<?xml version="1.0" encoding="utf-8"?>
<!-- Generator: Adobe Illustrator 18.0.0, SVG Export Plug-In . SVG Version: 6.00 Build 0)  -->
<!DOCTYPE svg PUBLIC "-//W3C//DTD SVG 1.1//EN" "http://www.w3.org/Graphics/SVG/1.1/DTD/svg11.dtd">
<svg version="1.1" id="Layer_1" xmlns="http://www.w3.org/2000/svg" xmlns:xlink="http://www.w3.org/1999/xlink" x="0px" y="0px"
	 viewBox="0 0 640 600" enable-background="new 0 0 640 600" xml:space="preserve">
<rect fill="#FFFFFF" width="640" height="600"/>
<g>
	<path d="M181.7,255.8h-16.3v-5c0-2.3-0.2-3.8-0.6-4.5c-0.4-0.6-1.1-1-2.1-1c-1.1,0-1.9,0.4-2.4,1.3c-0.5,0.9-0.8,2.2-0.8,3.9
		c0,2.2,0.3,3.9,0.9,5.1c0.6,1.1,2.2,2.5,5,4.1c7.8,4.6,12.7,8.4,14.7,11.4c2,3,3,7.8,3,14.4c0,4.8-0.6,8.3-1.7,10.6
		c-1.1,2.3-3.3,4.2-6.5,5.7c-3.2,1.5-7,2.3-11.2,2.3c-4.7,0-8.7-0.9-12-2.7c-3.3-1.8-5.5-4-6.5-6.8c-1-2.7-1.5-6.6-1.5-11.7v-4.4
		h16.3v8.2c0,2.5,0.2,4.1,0.7,4.9c0.5,0.7,1.3,1.1,2.4,1.1s2-0.5,2.6-1.4s0.9-2.3,0.9-4.1c0-4-0.5-6.6-1.6-7.8
		c-1.1-1.2-3.8-3.3-8.2-6.1c-4.4-2.9-7.2-5-8.7-6.3c-1.4-1.3-2.6-3.1-3.5-5.4c-0.9-2.3-1.4-5.2-1.4-8.8c0-5.2,0.7-8.9,2-11.3
		c1.3-2.4,3.4-4.3,6.4-5.6c2.9-1.3,6.5-2,10.7-2c4.6,0,8.4,0.7,11.6,2.2c3.2,1.5,5.3,3.3,6.4,5.6c1,2.2,1.6,6,1.6,11.4V255.8z"/>
	<path d="M227.4,235.4l10,67.4h-17.9l-0.9-12.1h-6.3l-1.1,12.1h-18.1l8.9-67.4H227.4z M218.2,278.7c-0.9-7.6-1.8-17.1-2.7-28.3
		c-1.8,12.9-2.9,22.3-3.4,28.3H218.2z"/>
	<path d="M249,235.4h12.4c8.3,0,13.9,0.3,16.8,1c2.9,0.6,5.3,2.3,7.2,4.9c1.8,2.6,2.8,6.8,2.8,12.5c0,5.2-0.7,8.8-2,10.6
		c-1.3,1.8-3.9,2.9-7.7,3.2c3.5,0.9,5.8,2,7,3.5c1.2,1.4,1.9,2.8,2.2,4s0.4,4.5,0.4,10v17.8h-16.3v-22.4c0-3.6-0.3-5.8-0.9-6.7
		c-0.6-0.9-2.1-1.3-4.5-1.3v30.4H249V235.4z M266.5,246.9v15c2,0,3.4-0.3,4.1-0.8c0.8-0.5,1.2-2.3,1.2-5.3v-3.7
		c0-2.1-0.4-3.5-1.1-4.2C269.9,247.2,268.5,246.9,266.5,246.9z"/>
	<path d="M333.7,235.4l10,67.4h-17.9l-0.9-12.1h-6.3l-1.1,12.1h-18.1l8.9-67.4H333.7z M324.4,278.7c-0.9-7.6-1.8-17.1-2.7-28.3
		c-1.8,12.9-2.9,22.3-3.4,28.3H324.4z"/>
	<path d="M355.2,235.4h29.7v13.5h-12.2v12.8h10.8v12.8h-10.8v28.3h-17.5V235.4z"/>
	<path d="M426.2,235.4l10,67.4h-17.9l-0.9-12.1h-6.3l-1.1,12.1H392l8.9-67.4H426.2z M417,278.7c-0.9-7.6-1.8-17.1-2.7-28.3
		c-1.8,12.9-2.9,22.3-3.4,28.3H417z"/>
	<path d="M486.9,235.4v67.4h-15.4l-9.1-30.6v30.6h-14.7v-67.4h14.7l9.8,30.3v-30.3H486.9z"/>
</g>
<g>
	<rect x="130" y="323" width="372" height="3"/>
</g>
<g>
	<path d="M142.7,346.8h-9v6.6h3.9c0.9,0,1.8,0.1,2.5,0.3c0.7,0.2,1.3,0.5,1.7,0.9s0.8,0.8,1,1.4c0.2,0.5,0.3,1.2,0.3,1.9
		c0,0.7-0.1,1.4-0.4,2s-0.6,1.1-1.1,1.5c-0.5,0.4-1.1,0.7-1.8,1c-0.7,0.2-1.5,0.3-2.4,0.3h-5.1v-16.8h10.2V346.8z M133.7,354.4v7.3
		h3.9c1.5,0,2.6-0.3,3.3-1s1.1-1.6,1.1-2.7c0-1.2-0.4-2.1-1.1-2.7c-0.7-0.6-1.8-0.9-3.3-0.9H133.7z"/>
	<path d="M152,361.3c0.4-0.2,0.7-0.7,1-1.2l1-2.2l-6.8-12.1h1.1c0.1,0,0.2,0,0.3,0.1s0.1,0.1,0.2,0.2l5.2,9.5
		c0.1,0.2,0.2,0.4,0.3,0.6c0.1,0.2,0.2,0.4,0.2,0.6c0.1-0.2,0.1-0.4,0.2-0.6c0.1-0.2,0.2-0.4,0.3-0.6l4.4-9.5c0-0.1,0.1-0.2,0.2-0.2
		c0.1-0.1,0.2-0.1,0.3-0.1h1l-6.9,14.8c-0.2,0.4-0.4,0.7-0.6,1c-0.2,0.3-0.4,0.5-0.7,0.7c-0.2,0.2-0.5,0.3-0.8,0.4s-0.6,0.1-0.9,0.1
		c-0.3,0-0.5,0-0.7-0.1c-0.2,0-0.3-0.1-0.3-0.2v-0.8h0.7C151.2,361.7,151.7,361.6,152,361.3z"/>
	<path d="M176.9,345.8v1H171v15.8h-1.2v-15.8h-5.9v-1H176.9z"/>
	<path d="M193.7,346.2c0.1-0.1,0.1-0.2,0.2-0.3c0.1-0.1,0.2-0.1,0.3-0.1h0.9v16.8h-1.2v-13.8c0-0.3,0-0.5,0-0.8c0-0.3,0-0.5,0.1-0.8
		c-0.1,0.2-0.2,0.5-0.3,0.7s-0.2,0.4-0.3,0.6l-9.7,13.8c-0.1,0.1-0.1,0.2-0.2,0.3c-0.1,0.1-0.2,0.1-0.3,0.1h-0.9v-16.8h1.2v13.8
		c0,0.3,0,0.5,0,0.8s0,0.5-0.1,0.8c0.1-0.2,0.2-0.5,0.3-0.7c0.1-0.2,0.2-0.4,0.3-0.6L193.7,346.2z"/>
	<path d="M203.7,353.6h1.9c0.2,0,0.4,0,0.5,0c0.2,0,0.3-0.1,0.5-0.1c0.1-0.1,0.3-0.1,0.4-0.3c0.1-0.1,0.3-0.3,0.4-0.4l5.3-6.5
		c0.1-0.1,0.2-0.2,0.3-0.3c0.1-0.1,0.2-0.1,0.4-0.1h1l-5.7,7.1c-0.2,0.3-0.4,0.5-0.6,0.6c-0.2,0.2-0.5,0.3-0.8,0.4
		c0.4,0.1,0.7,0.2,0.9,0.4c0.2,0.2,0.5,0.4,0.7,0.8l6,7.5h-1c-0.2,0-0.3,0-0.4-0.1c-0.1-0.1-0.2-0.2-0.3-0.3l-5.5-6.8
		c-0.1-0.1-0.2-0.3-0.3-0.4c-0.1-0.1-0.2-0.2-0.4-0.3c-0.1-0.1-0.3-0.1-0.4-0.1c-0.2,0-0.4,0-0.6,0h-2.2v8.1h-1.2v-16.8h1.2V353.6z"
		/>
	<path d="M228,345.8c0.1,0,0.3,0,0.4,0.1c0.1,0.1,0.2,0.2,0.3,0.3l5.2,6.5c0.1,0.2,0.3,0.3,0.4,0.4c0.1,0.1,0.3,0.2,0.5,0.3
		c0.2,0.1,0.3,0.1,0.5,0.1s0.3,0,0.5,0h1.9v-7.8h1.2v7.8h1.9c0.2,0,0.4,0,0.6,0s0.3-0.1,0.5-0.1s0.3-0.2,0.4-0.3
		c0.1-0.1,0.3-0.3,0.4-0.4l5.2-6.5c0.1-0.1,0.2-0.2,0.3-0.3c0.1-0.1,0.2-0.1,0.4-0.1h0.9l-5.6,7c-0.2,0.3-0.4,0.5-0.7,0.7
		c-0.2,0.2-0.5,0.3-0.8,0.4c0.4,0.1,0.7,0.2,0.9,0.4c0.3,0.2,0.5,0.5,0.7,0.8l5.7,7.5H249c-0.2,0-0.3,0-0.5-0.1
		c-0.1-0.1-0.3-0.2-0.3-0.3l-5.3-6.7c-0.2-0.3-0.5-0.5-0.8-0.7s-0.6-0.2-1.1-0.2h-2.2v8.1h-1.2v-8.1h-2.1c-0.5,0-0.8,0.1-1.1,0.2
		s-0.5,0.4-0.8,0.7l-5.3,6.7c-0.1,0.1-0.2,0.2-0.3,0.3s-0.3,0.1-0.5,0.1h-0.8l5.7-7.5c0.2-0.3,0.5-0.6,0.7-0.8
		c0.3-0.2,0.6-0.3,0.9-0.4c-0.3-0.1-0.6-0.2-0.8-0.4c-0.2-0.2-0.5-0.4-0.7-0.7l-5.6-7H228z"/>
	<path d="M265.2,345.8v1h-8.9v6.8h7.4v1h-7.4v7h8.9l0,1h-10.1v-16.8H265.2z"/>
	<path d="M284.2,362.6H283v-8.1h-10.5v8.1h-1.2v-16.8h1.2v7.8H283v-7.8h1.2V362.6z"/>
	<path d="M303.7,359.8c0.1,0,0.1,0,0.2,0.1l0.5,0.5c-0.3,0.4-0.7,0.7-1.1,1c-0.4,0.3-0.9,0.6-1.3,0.8c-0.5,0.2-1,0.4-1.6,0.5
		c-0.6,0.1-1.2,0.2-1.9,0.2c-1.2,0-2.2-0.2-3.2-0.6s-1.8-1-2.5-1.7c-0.7-0.7-1.2-1.7-1.6-2.7s-0.6-2.2-0.6-3.5
		c0-1.3,0.2-2.4,0.6-3.5c0.4-1.1,1-2,1.7-2.7c0.7-0.8,1.6-1.3,2.6-1.8s2.1-0.6,3.3-0.6c1.1,0,2.2,0.2,3.1,0.5s1.7,0.9,2.4,1.5
		l-0.4,0.5c-0.1,0.1-0.2,0.1-0.3,0.1c-0.1,0-0.2-0.1-0.5-0.3c-0.2-0.2-0.5-0.4-0.9-0.6c-0.4-0.2-0.9-0.4-1.4-0.6
		c-0.6-0.2-1.2-0.3-2-0.3c-1,0-1.9,0.2-2.8,0.5c-0.8,0.3-1.6,0.8-2.2,1.5s-1.1,1.4-1.4,2.4c-0.3,0.9-0.5,2-0.5,3.1
		c0,1.2,0.2,2.3,0.5,3.2c0.3,0.9,0.8,1.7,1.4,2.4c0.6,0.6,1.3,1.1,2.1,1.5s1.7,0.5,2.7,0.5c0.6,0,1.1,0,1.6-0.1
		c0.5-0.1,0.9-0.2,1.3-0.4c0.4-0.2,0.8-0.4,1.1-0.6c0.3-0.2,0.7-0.5,1-0.8c0,0,0.1-0.1,0.1-0.1S303.7,359.8,303.7,359.8z"/>
	<path d="M311.2,353.6h1.9c0.2,0,0.4,0,0.5,0c0.2,0,0.3-0.1,0.5-0.1c0.1-0.1,0.3-0.1,0.4-0.3c0.1-0.1,0.3-0.3,0.4-0.4l5.3-6.5
		c0.1-0.1,0.2-0.2,0.3-0.3c0.1-0.1,0.2-0.1,0.4-0.1h1l-5.7,7.1c-0.2,0.3-0.4,0.5-0.6,0.6c-0.2,0.2-0.5,0.3-0.8,0.4
		c0.4,0.1,0.7,0.2,0.9,0.4c0.2,0.2,0.5,0.4,0.7,0.8l6,7.5h-1c-0.2,0-0.3,0-0.4-0.1c-0.1-0.1-0.2-0.2-0.3-0.3l-5.5-6.8
		c-0.1-0.1-0.2-0.3-0.3-0.4c-0.1-0.1-0.2-0.2-0.4-0.3c-0.1-0.1-0.3-0.1-0.4-0.1c-0.2,0-0.4,0-0.6,0h-2.2v8.1H310v-16.8h1.2V353.6z"
		/>
	<path d="M341.6,354.2c0,1.3-0.2,2.5-0.6,3.5s-0.9,2-1.6,2.7c-0.7,0.7-1.5,1.3-2.5,1.7s-2.1,0.6-3.3,0.6s-2.3-0.2-3.3-0.6
		s-1.8-1-2.5-1.7c-0.7-0.7-1.3-1.7-1.6-2.7s-0.6-2.2-0.6-3.5c0-1.3,0.2-2.5,0.6-3.5s0.9-2,1.6-2.7c0.7-0.7,1.5-1.3,2.5-1.7
		s2.1-0.6,3.3-0.6s2.3,0.2,3.3,0.6s1.8,1,2.5,1.7c0.7,0.8,1.3,1.7,1.6,2.7S341.6,352.9,341.6,354.2z M340.3,354.2
		c0-1.2-0.2-2.2-0.5-3.2c-0.3-0.9-0.8-1.7-1.4-2.4s-1.3-1.1-2.1-1.5s-1.8-0.5-2.8-0.5c-1,0-1.9,0.2-2.7,0.5s-1.5,0.8-2.1,1.5
		c-0.6,0.6-1.1,1.4-1.4,2.4s-0.5,2-0.5,3.2c0,1.2,0.2,2.2,0.5,3.2s0.8,1.7,1.4,2.4c0.6,0.6,1.3,1.1,2.1,1.5c0.8,0.3,1.7,0.5,2.7,0.5
		c1,0,1.9-0.2,2.8-0.5c0.8-0.3,1.5-0.8,2.1-1.5s1.1-1.4,1.4-2.4C340.2,356.4,340.3,355.4,340.3,354.2z"/>
	<path d="M359.4,346.2c0.1-0.1,0.1-0.2,0.2-0.3s0.2-0.1,0.3-0.1h0.9v16.8h-1.2v-13.8c0-0.3,0-0.5,0-0.8c0-0.3,0-0.5,0.1-0.8
		c-0.1,0.2-0.2,0.5-0.3,0.7c-0.1,0.2-0.2,0.4-0.3,0.6l-9.7,13.8c-0.1,0.1-0.1,0.2-0.2,0.3c-0.1,0.1-0.2,0.1-0.3,0.1h-0.9v-16.8h1.2
		v13.8c0,0.3,0,0.5,0,0.8c0,0.3,0,0.5-0.1,0.8c0.1-0.2,0.2-0.5,0.3-0.7c0.1-0.2,0.2-0.4,0.3-0.6L359.4,346.2z M354.3,343.9
		c0.7,0,1.2-0.2,1.5-0.5c0.3-0.4,0.5-0.9,0.5-1.7h0.6c0.1,0,0.2,0,0.2,0.1c0.1,0.1,0.1,0.2,0.1,0.3c0,0.8-0.2,1.4-0.7,1.8
		c-0.5,0.4-1.2,0.7-2.2,0.7c-1,0-1.7-0.2-2.2-0.7s-0.7-1-0.7-1.8c0-0.1,0-0.2,0.1-0.3c0.1-0.1,0.1-0.1,0.2-0.1h0.6
		c0,0.8,0.2,1.4,0.5,1.7C353.1,343.8,353.6,343.9,354.3,343.9z"/>
	<path d="M391.9,354.2c0,1.3-0.2,2.5-0.6,3.5c-0.4,1.1-0.9,2-1.6,2.7c-0.7,0.7-1.5,1.3-2.5,1.7s-2.1,0.6-3.3,0.6
		c-1.2,0-2.3-0.2-3.3-0.6c-1-0.4-1.8-1-2.5-1.7c-0.7-0.7-1.3-1.7-1.6-2.7c-0.4-1.1-0.6-2.2-0.6-3.5c0-1.3,0.2-2.5,0.6-3.5
		c0.4-1.1,0.9-2,1.6-2.7c0.7-0.7,1.5-1.3,2.5-1.7c1-0.4,2.1-0.6,3.3-0.6c1.2,0,2.3,0.2,3.3,0.6s1.8,1,2.5,1.7
		c0.7,0.8,1.3,1.7,1.6,2.7C391.7,351.7,391.9,352.9,391.9,354.2z M390.7,354.2c0-1.2-0.2-2.2-0.5-3.2c-0.3-0.9-0.8-1.7-1.4-2.4
		c-0.6-0.6-1.3-1.1-2.1-1.5c-0.8-0.3-1.8-0.5-2.8-0.5c-1,0-1.9,0.2-2.7,0.5s-1.5,0.8-2.1,1.5s-1.1,1.4-1.4,2.4
		c-0.3,0.9-0.5,2-0.5,3.2c0,1.2,0.2,2.2,0.5,3.2c0.3,0.9,0.8,1.7,1.4,2.4s1.3,1.1,2.1,1.5c0.8,0.3,1.7,0.5,2.7,0.5
		c1,0,1.9-0.2,2.8-0.5c0.8-0.3,1.5-0.8,2.1-1.5c0.6-0.6,1.1-1.4,1.4-2.4C390.5,356.4,390.7,355.4,390.7,354.2z"/>
	<path d="M409.4,345.8v15.8h2.9v4.8c0,0.1,0,0.2-0.1,0.3s-0.2,0.1-0.3,0.1h-0.7v-4.2h-15v3.8c0,0.1,0,0.2-0.1,0.3
		c-0.1,0.1-0.2,0.1-0.3,0.1H395v-5.2h1.6c0.3-0.1,0.6-0.3,0.8-0.6s0.5-0.7,0.8-1.2c0.2-0.5,0.5-1.2,0.7-2s0.4-1.8,0.6-2.9
		c0.2-1.1,0.3-2.5,0.5-4s0.2-3.2,0.3-5.2H409.4z M401.4,346.8c-0.1,2.3-0.3,4.3-0.5,6c-0.2,1.7-0.4,3.1-0.7,4.3
		c-0.3,1.2-0.6,2.1-0.9,2.9c-0.3,0.7-0.7,1.3-1.1,1.7h9.9v-14.9H401.4z"/>
	<path d="M427.8,345.8v1H419v6.8h7.4v1H419v7h8.9l0,1h-10.1v-16.8H427.8z"/>
	<path d="M433.1,345.8c0.1,0,0.3,0,0.4,0.1c0.1,0.1,0.2,0.2,0.3,0.3l5.2,6.5c0.1,0.2,0.3,0.3,0.4,0.4c0.1,0.1,0.3,0.2,0.5,0.3
		s0.3,0.1,0.5,0.1s0.3,0,0.5,0h1.9v-7.8h1.2v7.8h1.9c0.2,0,0.4,0,0.6,0s0.3-0.1,0.5-0.1s0.3-0.2,0.4-0.3c0.1-0.1,0.3-0.3,0.4-0.4
		l5.2-6.5c0.1-0.1,0.2-0.2,0.3-0.3c0.1-0.1,0.2-0.1,0.4-0.1h0.9l-5.6,7c-0.2,0.3-0.4,0.5-0.7,0.7c-0.2,0.2-0.5,0.3-0.8,0.4
		c0.4,0.1,0.7,0.2,0.9,0.4c0.3,0.2,0.5,0.5,0.7,0.8l5.7,7.5H454c-0.2,0-0.3,0-0.5-0.1s-0.3-0.2-0.3-0.3l-5.3-6.7
		c-0.2-0.3-0.5-0.5-0.8-0.7s-0.6-0.2-1.1-0.2h-2.2v8.1h-1.2v-8.1h-2.1c-0.5,0-0.8,0.1-1.1,0.2s-0.5,0.4-0.8,0.7l-5.3,6.7
		c-0.1,0.1-0.2,0.2-0.3,0.3s-0.3,0.1-0.5,0.1h-0.8l5.7-7.5c0.2-0.3,0.5-0.6,0.7-0.8c0.3-0.2,0.6-0.3,0.9-0.4
		c-0.3-0.1-0.6-0.2-0.8-0.4c-0.2-0.2-0.5-0.4-0.7-0.7l-5.6-7H433.1z"/>
	<path d="M472.2,345.8v15.8h2.9v4.8c0,0.1,0,0.2-0.1,0.3s-0.2,0.1-0.3,0.1H474v-4.2h-15v3.8c0,0.1,0,0.2-0.1,0.3
		c-0.1,0.1-0.2,0.1-0.3,0.1h-0.7v-5.2h1.6c0.3-0.1,0.6-0.3,0.8-0.6s0.5-0.7,0.8-1.2c0.2-0.5,0.5-1.2,0.7-2s0.4-1.8,0.6-2.9
		c0.2-1.1,0.3-2.5,0.5-4s0.2-3.2,0.3-5.2H472.2z M464.2,346.8c-0.1,2.3-0.3,4.3-0.5,6c-0.2,1.7-0.4,3.1-0.7,4.3
		c-0.3,1.2-0.6,2.1-0.9,2.9c-0.3,0.7-0.7,1.3-1.1,1.7h9.9v-14.9H464.2z"/>
	<path d="M481.8,345.8v7.6h3.9c0.9,0,1.8,0.1,2.5,0.3c0.7,0.2,1.3,0.5,1.7,0.9c0.5,0.4,0.8,0.8,1,1.4c0.2,0.5,0.3,1.2,0.3,1.9
		c0,0.7-0.1,1.4-0.4,2c-0.3,0.6-0.6,1.1-1.1,1.5c-0.5,0.4-1.1,0.7-1.8,1c-0.7,0.2-1.5,0.3-2.4,0.3h-5.1v-16.8H481.8z M481.8,354.4
		v7.3h3.9c1.5,0,2.6-0.3,3.3-1c0.7-0.7,1.1-1.6,1.1-2.7c0-1.2-0.4-2.1-1.1-2.7c-0.7-0.6-1.8-0.9-3.3-0.9H481.8z M496.4,362.6h-1.2
		v-16.8h1.2V362.6z"/>
</g>
<circle opacity="0.68" fill="#D37199" cx="154.8" cy="178.3" r="42.7"/>
<circle opacity="0.68" fill="#60BEE8" cx="111.7" cy="135.7" r="31.1"/>
<circle opacity="0.68" fill="#8CC63F" cx="167.4" cy="95.3" r="43.7"/>
<circle opacity="0.68" fill="#F7931E" cx="112.3" cy="58.7" r="41.7"/>
<path fill="none" stroke="#808080" stroke-width="3" stroke-miterlimit="10" d="M123.7,207.6c0,0-30.1,11.5-30.1,26.5
	s13.6,16.5,15.1,34.5c1.4,18-25.6,27-15.1,49.5"/>
</svg>
