<?xml version="1.0" encoding="utf-8"?>
<!-- Generator: Adobe Illustrator 18.0.0, SVG Export Plug-In . SVG Version: 6.00 Build 0)  -->
<!DOCTYPE svg PUBLIC "-//W3C//DTD SVG 1.1//EN" "http://www.w3.org/Graphics/SVG/1.1/DTD/svg11.dtd">
<svg version="1.1" id="Layer_1" xmlns="http://www.w3.org/2000/svg" xmlns:xlink="http://www.w3.org/1999/xlink" x="0px" y="0px"
	 viewBox="0 0 640 600" enable-background="new 0 0 640 600" xml:space="preserve">
<rect y="-1.2" fill="#FFFFFF" width="641.5" height="601.2"/>
<g>
	<path fill="none" stroke="#595651" stroke-width="2" stroke-miterlimit="10" d="M194.8,199.5l22.7,26.5h0.2l22.5-26.5
		c0.1-0.1,0-0.2-0.1-0.2h-45.2C194.8,199.3,194.8,199.4,194.8,199.5z"/>
	<path fill="none" stroke="#595651" stroke-width="2" stroke-miterlimit="10" d="M217.6,226l-22.7,64c0,0.1-0.2,0.1-0.2,0v-90.5
		c0-0.1,0.1-0.1,0.2-0.1L217.6,226L217.6,226L217.6,226z M217.6,226l22.5,64c0,0.1,0.2,0.1,0.2,0v-90.5c0-0.1-0.1-0.1-0.2-0.1
		L217.6,226L217.6,226L217.6,226z"/>
	<path fill="none" stroke="#595651" stroke-width="2" stroke-miterlimit="10" d="M194.8,290.5h45.4c0.1,0,0.1-0.1,0.1-0.1
		l-22.6-64.2c0-0.1-0.2-0.1-0.2,0L194.8,290.5C194.8,290.5,194.8,290.5,194.8,290.5z M194.8,290.6l22.7,28.7c0,0.1,0.1,0.1,0.2,0
		l22.5-28.7c0.1-0.1,0-0.2-0.1-0.2h-45.2C194.8,290.5,194.8,290.5,194.8,290.6z"/>
	<path fill="none" stroke="#595651" stroke-width="2" stroke-miterlimit="10" d="M217.6,319.4l22.5,35.4c0.1,0.1,0.2,0,0.2-0.1
		v-64.1c0-0.1-0.1-0.1-0.2-0.1l-22.5,28.7V319.4L217.6,319.4z M217.6,319.4l-22.7-28.7c-0.1-0.1-0.2,0-0.2,0.1v72.6
		c0,0.1,0.1,0.1,0.2,0l22.7-43.9L217.6,319.4L217.6,319.4z"/>
	<path fill="none" stroke="#595651" stroke-width="2" stroke-miterlimit="10" d="M194.8,363.6l45.3-8.5c0.1,0,0.1-0.1,0.1-0.2
		l-22.6-35.5c0-0.1-0.1-0.1-0.2,0l-22.7,43.9C194.8,363.5,194.8,363.6,194.8,363.6L194.8,363.6z M194.8,363.8l22.7,20.4h0.2
		l22.5-28.9c0.1-0.1,0-0.2-0.1-0.2l-45.2,8.4C194.8,363.6,194.8,363.7,194.8,363.8z"/>
	<path fill="none" stroke="#595651" stroke-width="2" stroke-miterlimit="10" d="M217.6,384.3l-22.7,65.4c0,0.1-0.2,0.1-0.2,0v-85.8
		c0-0.1,0.1-0.1,0.2-0.1L217.6,384.3L217.6,384.3z M217.6,384.3l22.5,65.4c0,0.1,0.2,0.1,0.2,0v-94.3c0-0.1-0.1-0.1-0.2-0.1
		L217.6,384.3C217.6,384.2,217.6,384.2,217.6,384.3z"/>
	<path fill="none" stroke="#595651" stroke-width="2" stroke-miterlimit="10" d="M217.6,384.4L194.8,450c0,0.1,0,0.1,0.1,0.1h45.4
		c0.1,0,0.1-0.1,0.1-0.1l-22.6-65.5C217.6,384.4,217.6,384.4,217.6,384.4L217.6,384.4z M240.4,244.9l24.7,5.5c0.1,0,0.1,0.1,0.1,0.2
		l-24.7,39.7c-0.1,0.1-0.2,0-0.2-0.1L240.4,244.9L240.4,244.9L240.4,244.9z"/>
	<path fill="none" stroke="#595651" stroke-width="2" stroke-miterlimit="10" d="M265.2,250.4l12.3-30.2c0-0.1-0.1-0.2-0.2-0.1
		l-37,24.7c-0.1,0.1-0.1,0.2,0,0.2l24.7,5.5C265.2,250.4,265.2,250.4,265.2,250.4z M265.3,250.5l23.3,7.8c0.1,0,0.1,0.1,0,0.2
		l-48,31.9c-0.1,0.1-0.2,0-0.1-0.1L265.3,250.5C265.2,250.5,265.2,250.5,265.3,250.5z"/>
	<path fill="none" stroke="#595651" stroke-width="2" stroke-miterlimit="10" d="M265.2,250.3l12.4-30.2c0-0.1,0.2-0.1,0.2,0
		l10.9,37.9c0,0.1-0.1,0.2-0.1,0.1l-23.3-7.7C265.2,250.5,265.2,250.4,265.2,250.3z M277.8,219.9l30.6-20.4c0.1-0.1,0.2,0,0.2,0.1
		l-10.6,26.4l-0.1,0.1l-20.1-5.9C277.8,220,277.8,219.9,277.8,219.9L277.8,219.9z"/>
	<path fill="none" stroke="#595651" stroke-width="2" stroke-miterlimit="10" d="M298,226.1l-9.2,31.9c0,0.1-0.2,0.1-0.2,0
		l-10.9-37.9c0-0.1,0.1-0.2,0.1-0.1L298,226.1C298,226,298,226,298,226.1z M298,226l10.5,18.6c0.1,0.1,0.2,0.1,0.2-0.1v-44.9
		c0-0.1-0.2-0.1-0.2,0L298,226z"/>
	<path fill="none" stroke="#595651" stroke-width="2" stroke-miterlimit="10" d="M298,226.2l-9.3,31.9c0,0.1,0.1,0.2,0.2,0.1
		l19.8-13.2c0,0,0.1-0.1,0-0.1L298,226.2C298.1,226.1,298,226.1,298,226.2z"/>
	<path fill="none" stroke="#595651" stroke-width="2" stroke-miterlimit="10" d="M327.3,199.9l22.7,26.5h0.2l22.5-26.5
		c0.1-0.1,0-0.2-0.1-0.2h-45.2C327.3,199.7,327.3,199.8,327.3,199.9z"/>
	<path fill="none" stroke="#595651" stroke-width="2" stroke-miterlimit="10" d="M350.1,226.5l-22.7,64c0,0.1-0.2,0.1-0.2,0v-90.5
		c0-0.1,0.1-0.1,0.2-0.1l22.7,26.5V226.5z M350.1,226.5l22.5,64c0,0.1,0.2,0.1,0.2,0v-90.5c0-0.1-0.1-0.1-0.2-0.1l-22.5,26.5V226.5z
		"/>
	<path fill="none" stroke="#595651" stroke-width="2" stroke-miterlimit="10" d="M327.3,290.9h45.4c0.1,0,0.1-0.1,0.1-0.1
		l-22.6-64.2c0-0.1-0.2-0.1-0.2,0L327.3,290.9L327.3,290.9z M327.3,291.1l22.7,28.7c0,0.1,0.1,0.1,0.2,0l22.5-28.7
		c0.1-0.1,0-0.2-0.1-0.2h-45.2C327.3,290.9,327.3,291,327.3,291.1z"/>
	<path fill="none" stroke="#595651" stroke-width="2" stroke-miterlimit="10" d="M350.1,319.9l22.5,35.4c0.1,0.1,0.2,0,0.2-0.1
		v-64.1c0-0.1-0.1-0.1-0.2-0.1l-22.5,28.7V319.9z M350.1,319.8l-22.7-28.7c-0.1-0.1-0.2,0-0.2,0.1v72.6c0,0.1,0.1,0.1,0.2,0
		L350.1,319.8L350.1,319.8z"/>
	<path fill="none" stroke="#595651" stroke-width="2" stroke-miterlimit="10" d="M327.3,364.1l45.3-8.5c0.1,0,0.1-0.1,0.1-0.2
		l-22.6-35.5c0-0.1-0.1-0.1-0.2,0l-22.7,43.9C327.2,364,327.3,364.1,327.3,364.1L327.3,364.1z"/>
	<path fill="none" stroke="#595651" stroke-width="2" stroke-miterlimit="10" d="M327.3,364.2l22.7,20.4h0.2l22.5-28.9
		c0.1-0.1,0-0.2-0.1-0.2l-45.2,8.4C327.3,364.1,327.3,364.1,327.3,364.2z"/>
	<path fill="none" stroke="#595651" stroke-width="2" stroke-miterlimit="10" d="M350.1,384.7L327.3,450c0,0.1-0.2,0.1-0.2,0v-85.8
		c0-0.1,0.1-0.1,0.2-0.1L350.1,384.7L350.1,384.7z M350.1,384.7l22.5,65.4c0,0.1,0.2,0.1,0.2,0v-94.3c0-0.1-0.1-0.1-0.2-0.1
		L350.1,384.7L350.1,384.7z"/>
	<path fill="none" stroke="#595651" stroke-width="2" stroke-miterlimit="10" d="M350,384.9l-22.8,65.5c0,0.1,0,0.1,0.1,0.1h45.4
		c0.1,0,0.1-0.1,0.1-0.1l-22.6-65.5C350.1,384.8,350,384.8,350,384.9L350,384.9z M372.9,245.3l24.7,5.5c0.1,0,0.1,0.1,0.1,0.2
		l-24.7,39.8c-0.1,0.1-0.2,0-0.2-0.1L372.9,245.3C372.8,245.4,372.8,245.3,372.9,245.3z"/>
	<path fill="none" stroke="#595651" stroke-width="2" stroke-miterlimit="10" d="M397.7,250.8l12.3-30.2c0-0.1-0.1-0.2-0.2-0.1
		l-37,24.7c-0.1,0.1-0.1,0.2,0,0.2l24.7,5.5C397.7,250.9,397.7,250.9,397.7,250.8z M397.7,250.9l23.3,7.8c0.1,0,0.1,0.1,0,0.2
		l-48,31.9c-0.1,0.1-0.2,0-0.1-0.1L397.7,250.9C397.7,250.9,397.7,250.9,397.7,250.9L397.7,250.9z"/>
	<path fill="none" stroke="#595651" stroke-width="2" stroke-miterlimit="10" d="M397.7,250.8l12.4-30.2c0-0.1,0.2-0.1,0.2,0
		l10.9,37.9c0,0.1-0.1,0.2-0.1,0.1L397.7,250.8C397.7,250.9,397.7,250.9,397.7,250.8L397.7,250.8z M410.3,220.3l30.6-20.4
		c0.1-0.1,0.2,0,0.2,0.1l-10.6,26.4l-0.1,0.1l-20.1-5.9C410.3,220.5,410.3,220.4,410.3,220.3L410.3,220.3z"/>
	<path fill="none" stroke="#595651" stroke-width="2" stroke-miterlimit="10" d="M430.4,226.5l-9.2,31.9c0,0.1-0.2,0.1-0.2,0
		l-10.9-37.9c0-0.1,0.1-0.2,0.1-0.1L430.4,226.5C430.4,226.4,430.5,226.5,430.4,226.5z M430.5,226.5l10.5,18.6
		c0.1,0.1,0.2,0.1,0.2-0.1v-44.9c0-0.1-0.2-0.1-0.2,0L430.5,226.5C430.5,226.4,430.5,226.4,430.5,226.5z"/>
	<path fill="none" stroke="#595651" stroke-width="2" stroke-miterlimit="10" d="M430.4,226.6l-9.2,31.9c0,0.1,0.1,0.2,0.2,0.1
		l19.8-13.2c0,0,0.1-0.1,0-0.1l-10.6-18.7C430.6,226.5,430.4,226.5,430.4,226.6z"/>
</g>
<g>
	<path fill="#74B87A" stroke="#46433E" stroke-width="2" stroke-miterlimit="10" d="M0-1.2l69,66.7L0,108V-1.2z"/>
	<path fill="none" stroke="#46433E" stroke-width="2" stroke-miterlimit="10" d="M115.8,32.2L203,65.5l13.2-66.7L115.8,32.2z"/>
	<path fill="#ECE888" stroke="#46433E" stroke-width="2" stroke-miterlimit="10" d="M216.1-1.2h148.8L309,65.5L216.1-1.2z"/>
	<path fill="#DBCE82" stroke="#46433E" stroke-width="2" stroke-miterlimit="10" d="M203,65.5h106L216.1-1.2L203,65.5z"/>
	<path fill="#EFBC84" stroke="#46433E" stroke-width="2" stroke-miterlimit="10" d="M309,65.5l92,27.1L364.9-1.2L309,65.5z"/>
	<path fill="#E49881" stroke="#46433E" stroke-width="2" stroke-miterlimit="10" d="M364.9-1.2h141L401,92.7L364.9-1.2z"/>
	<path fill="#7EB987" stroke="#46433E" stroke-width="2" stroke-miterlimit="10" d="M69,65.5L0-1.2l115.8,33.4L69,65.5z"/>
	<path fill="none" stroke="#46433E" stroke-width="2" stroke-miterlimit="10" d="M505.9-1.2l61.2,56.6l-77.5,23.3L505.9-1.2z"/>
	<path fill="#E18C86" stroke="#46433E" stroke-width="2" stroke-miterlimit="10" d="M401,92.7l88.6-14.1l16.3-79.8L401,92.7z"/>
	<path fill="#BF7789" stroke="#46433E" stroke-width="2" stroke-miterlimit="10" d="M567.1,55.3l-77.5,23.3l16.3,71.6L567.1,55.3z"
		/>
	<path fill="#D6706B" stroke="#46433E" stroke-width="2" stroke-miterlimit="10" d="M505.9-1.2H640l-72.9,56.6L505.9-1.2z"/>
	<path fill="#C07494" stroke="#46433E" stroke-width="2" stroke-miterlimit="10" d="M567.1,55.3L640,213.7V-1.2L567.1,55.3z"/>
	<path fill="#AC759B" stroke="#46433E" stroke-width="2" stroke-miterlimit="10" d="M505.9,150.2L640,213.7L567.1,55.3L505.9,150.2z
		"/>
	<path fill="#7877AF" stroke="#46433E" stroke-width="2" stroke-miterlimit="10" d="M505.9,150.2l12.5,85L640,213.7L505.9,150.2z"/>
	<path fill="#6D6EAA" stroke="#46433E" stroke-width="2" stroke-miterlimit="10" d="M581.5,224l58.5,64.4v-74.7L581.5,224z"/>
	<path fill="#9CC07D" stroke="#46433E" stroke-width="2" stroke-miterlimit="10" d="M69,65.5H203l-87.2-33.4L69,65.5z"/>
	<path fill="#8DC282" stroke="#46433E" stroke-width="2" stroke-miterlimit="10" d="M0-1.2l115.8,33.4L216.1-1.2H0z"/>
	<path fill="#BFD182" stroke="#46433E" stroke-width="2" stroke-miterlimit="10" d="M216.1-1.2L115.8,32.2L203,65.5L216.1-1.2z"/>
	<path fill="#D96A6A" stroke="#46433E" stroke-width="2" stroke-miterlimit="10" d="M505.9-1.2l-16.3,79.8l77.5-23.3L505.9-1.2z"/>
</g>
</svg>
