<?xml version="1.0" encoding="UTF-8"?>
<?xml-stylesheet href="../css/style.css" type="text/css"?>
	<svg class="infographic-desktop" viewBox="0 0 640 480" xml:space="preserve" xmlns="http://www.w3.org/2000/svg"><circle class="first-icon" fill="rgba(255,255,255,0)" stroke="#ffe028" stroke-width="2" stroke-miterlimit="10" cx="320" cy="43" r="35"/><polygon class="third-icon" fill="rgba(255,255,255,0)" stroke="#61A5EC" stroke-width="2" stroke-miterlimit="10" points="300.2 473.5 279.3 437 300.2 400.5 341.8 400.5 362.7 437 341.8 473.5"/><polygon class="second-icon" fill="rgba(255,255,255,0)" stroke="#FF6A6A" stroke-width="2" stroke-miterlimit="10" points="600.5 204.5 559 276.4 517.5 204.5"/><rect class="fourth-icon" x="41.3" y="204" fill="rgba(255,255,255,0)" stroke="#78EA9D" stroke-width="2" stroke-miterlimit="10" width="72" height="72"/><g class="thinking-g"><text class="thinking-desc" transform="matrix(1 0 0 1 134.4956 284)"><tspan x="0" y="0" fill="#333333" font-family="'Muli'" font-size="16">The first thing we should do - it is to create a plan. </tspan><tspan x="-9.7" y="21.6" fill="#333333" font-family="'Muli'" font-size="16">Strategy of development is the first step of my work.</tspan></text><g><circle class="bulb-light" fill="transparent" cx="326.2" cy="145.4" r="24.6"/><path fill="#4D4D4D" d="M326.2 120.9c-11.9 0-24.8 9.5-24.8 24.8 0 7.5 3 13.9 8.8 18.7 0.1 0.1 0.1 0.2 0.2 0.2 4.3 4.6 4.5 5.5 4.5 7.5 0 0.8 0 1 0 1.2v0.5c-0.1 1-0.1 2.7 2 3.3l18.2 4c0.1 0 0.2 0 0.2 0 0.5 0 1-0.3 1.1-0.9 0.1-0.6-0.2-1.2-0.9-1.4l-18.1-4c-0.3-0.1-0.4-0.1-0.3-1.1v-0.5c0 0 0-0.2 0-1.3 -0.1-2.8-0.7-4.3-5.2-9.1 -0.1-0.1-0.2-0.2-0.3-0.3 -5.3-4.5-8-10.3-8-17.1 0-13.9 11.7-22.5 22.5-22.5 11.1 0 22.5 8.4 22.5 22.5 0 9-4.4 13.9-7.9 17 -0.1 0.1-0.2 0.2-0.3 0.2 -4.6 5-5.2 6.4-5.3 9.2 0 0.1 0 0.2 0 0.2v0.1c0 0.2-0.1 0.3-0.1 0.3 -0.1 0-0.3-0.1-0.3-0.1l-9.5-2.2c-0.6-0.1-1.2 0.2-1.4 0.9s0.2 1.2 0.9 1.4l9.4 2.2c0.1 0.1 1.2 0.4 2.2-0.2 0.4-0.3 0.9-0.9 1-1.9v-0.1c0-0.1 0-0.2 0-0.2v-0.1V172c0.1-2 0.2-2.9 4.5-7.5l0.1-0.1c6-5 8.9-11.2 8.9-18.9C351 130.1 338.4 120.9 326.2 120.9z"/><path fill="#444444" d="M335.3 187.3c0.5 0 1-0.3 1.1-0.9 0.1-0.6-0.2-1.2-0.9-1.4l-18-4.1c-0.6-0.1-1.2 0.2-1.4 0.9 -0.1 0.6 0.2 1.2 0.9 1.4l18 4.1C335.1 187.3 335.1 187.3 335.3 187.3z"/><path fill="#444444" d="M318.6 187.4c-0.6-0.1-1.2 0.2-1.4 0.9 -0.1 0.6 0.2 1.2 0.9 1.4l14.6 3.3c0.1 0 0.2 0.1 0.2 0.1 0.5 0 1-0.3 1.1-0.9 0.1-0.6-0.2-1.2-0.9-1.4C333.2 190.7 318.6 187.4 318.6 187.4z"/></g><text transform="matrix(1 0 0 1 279.1724 224.0386)" fill="#444444" font-family="'Geomanist'" font-size="28">thinking</text><g class="circles"><circle fill="transparent" cx="224.3" cy="143.7" r="13.2"/><circle fill="transparent" cx="403" cy="141.5" r="13.8"/><circle fill="transparent" cx="420.4" cy="188.4" r="8.5"/><circle fill="transparent" cx="264" cy="173" r="5.3"/><circle fill="transparent" cx="282.4" cy="108.7" r="6.8"/><circle fill="transparent" cx="340.1" cy="96.8" r="5.1"/></g></g><g class="sketch-g" opacity="0"><g class="ruler"><path fill="#444444" d="M344.3 118.3c0-0.9-0.7-1.6-1.6-1.6H324c-0.9 0-1.6 0.7-1.6 1.6v71.6c0 0.9 0.7 1.6 1.6 1.6h18.7c0.9 0 1.6-0.7 1.6-1.6V118.3z"/><path class="ruler-fill" fill="#FFFFFF" d="M340.8 188.6h-15.5v-9.2h5.2c0.9 0 1.6-0.6 1.6-1.4s-0.7-1.4-1.6-1.4h-5.2v-9.8h5.2c0.9 0 1.6-0.6 1.6-1.4s-0.7-1.4-1.6-1.4h-5.2v-9.2h5.2c0.9 0 1.6-0.9 1.6-1.7s-0.7-1.7-1.6-1.7h-5.2V142h5.2c0.9 0 1.6-0.6 1.6-1.4 0-0.9-0.7-1.4-1.6-1.4h-5.2v-9.8h5.2c0.9 0 1.6-0.6 1.6-1.4s-0.7-1.4-1.6-1.4h-5.2v-6.3h15.5V188.6z"/></g><g class="pencil"><path fill="#444444" d="M309.6 191.5c-4.3 0-7.8-3.5-7.8-7.8v-42.2c0-0.2 0.1-0.5 0.1-0.6l6.3-14.1c0.5-1.1 2.4-1.1 2.9 0l6.2 14.1c0.1 0.2 0.1 0.4 0.1 0.6v42.2C317.4 188 313.9 191.5 309.6 191.5z"/><g class="pencil-fill"><path fill="#FFFFFF" d="M304.9 182.1v1.6c0 2.6 2.1 4.7 4.7 4.7 2.6 0 4.7-2.1 4.7-4.7v-1.6H304.9z"/><polygon fill="#FFFFFF" points="304.9 179 314.3 179 314.3 175.9 304.9 175.9"/><polygon fill="#FFFFFF" points="304.9 172.8 314.3 172.8 314.3 141.8 309.6 131.3 304.9 141.8"/></g><path fill="#444444" d="M309.6 175.9c-0.9 0-1.6-0.7-1.6-1.6v-31.3h-4.7c-0.9 0-1.6-0.7-1.6-1.6s0.7-1.6 1.6-1.6h12.5c0.9 0 1.6 0.7 1.6 1.6s-0.7 1.6-1.6 1.6h-4.7v31.3C311.2 175.2 310.5 175.9 309.6 175.9z"/></g><g class="triangles"><polygon points="194.2 159.5 219.1 116.4 244 159.5 "/><polygon points="253.7 117.6 268.5 91.9 283.4 117.6"/><polygon points="371.5 172.2 386.4 146.5 401.2 172.2"/><polygon points="381.1 122.2 401.3 87.3 421.5 122.2"/><polygon points="417.9 155.5 438.1 120.6 458.3 155.5"/></g><text transform="matrix(1 0 0 1 264.7328 223.9581)" fill="#444444" font-family="'Geomanist'" font-size="28">designing</text><text class="designing-desc" transform="matrix(1 0 0 1 136.0974 284)"><tspan x="0" y="0" fill="#333333" font-family="'Muli'" font-size="16">Next step in our development journey - is design.</tspan><tspan x="-6.3" y="21.6" fill="#333333" font-family="'Muli'" font-size="16">I making sketch of the future project and prototyping it.</tspan><tspan x="49.1" y="43.2" fill="#333333" font-family="'Muli'" font-size="16">Then i’m giving the colorful life to it.</tspan></text></g><g class="coding-g" opacity="0"><path fill="#444444" d="M366.7 122.3h-80.8c-2.8 0-5 2.2-5 5v55.6c0 2.8 2.2 5 5 5h80.8c2.8 0 5-2.2 5-5v-55.5C371.8 124.6 369.5 122.3 366.7 122.3z"/><path fill="#FFFFFF" d="M285.9 126h80.8c0.7 0 1.3 0.6 1.3 1.3v5.7h-83.5v-5.7C284.6 126.6 285.2 126 285.9 126z"/><path class="coding-inner" fill="#FFFFFF" d="M366.7 184.3h-80.8c-0.7 0-1.3-0.6-1.3-1.3v-46.1h83.5v46.1C368.1 183.7 367.5 184.3 366.7 184.3z"/><path fill="#444444" d="M315.8 148.7c-0.7-0.7-1.9-0.7-2.6 0l-8.4 8.4c-0.3 0.3-0.5 0.8-0.5 1.3 0 0.5 0.2 1 0.5 1.3l8.4 8.4c0.4 0.4 0.8 0.5 1.3 0.5s0.9-0.2 1.3-0.5c0.7-0.7 0.7-1.9 0-2.6l-7-7 7-7C316.5 150.6 316.5 149.4 315.8 148.7z"/><path fill="#444444" d="M338.2 148.7c-0.7-0.7-1.9-0.7-2.6 0 -0.7 0.7-0.7 1.9 0 2.6l7 7 -7 7c-0.7 0.7-0.7 1.9 0 2.6 0.4 0.4 0.8 0.5 1.3 0.5 0.5 0 0.9-0.2 1.3-0.5l8.4-8.4c0.3-0.3 0.5-0.8 0.5-1.3 0-0.5-0.2-1-0.5-1.3L338.2 148.7z"/><path class="coding-line" fill="#444444" d="M330.9 148.4c-0.9-0.4-2-0.1-2.5 0.8l-8.8 17.4c-0.4 0.9-0.1 2 0.8 2.5 0.3 0.1 0.5 0.2 0.8 0.2 0.7 0 1.3-0.4 1.6-1l8.8-17.4C332.1 150 331.8 148.8 330.9 148.4z"/><text transform="matrix(1 0 0 1 286.1726 223.9356)" fill="#444444" font-family="'Geomanist'" font-size="28">coding</text><g class="oct"><polygon points="190.4 159.3 180.1 127.3 207.2 107.5 234.3 127.3 224 159.3 "/><polygon points="221.6 191.5 228.6 179 242.7 181.8 244.3 196 231.3 202 "/><polygon points="390.9 149.5 402.3 129.3 425 133.8 427.7 156.9 406.6 166.6 "/><polygon points="416.9 186.8 444.2 179.2 459.9 202.7 442.3 224.9 415.7 215 "/></g><text class="coding-desc" transform="matrix(1 0 0 1 181.8343 284)"><tspan x="0" y="0" fill="#333333" font-family="'Muli'" font-size="16">And main part of working - is coding.</tspan><tspan x="-34.4" y="21.6" fill="#333333" font-family="'Muli'" font-size="16">I’m using progressive tools to reach maximum</tspan><tspan x="-51.2" y="43.2" fill="#333333" font-family="'Muli'" font-size="16">speed and quality.  Then my code is going to test.</tspan></text></g><g class="deploying-g" opacity="0"><g><path class="cloud-inner" stroke="#444444" stroke-width="6" stroke-miterlimit="10" d="M332.1 169.5h21c11.5 0 20.9-9.4 20.9-20.9 0-12.8-11.6-23-24.8-20.6 -3.8-6.3-10.6-10.2-18-10.2 -1.7 0-3.4 0.2-5 0.6 -3.7-6.7-10.6-10.7-18.3-10.7 -11.2 0-20.5 9-20.9 20.2 -10.2 1.5-17.9 10.2-17.9 20.7 0 11.5 9.4 20.9 20.9 20.9H311"/><polygon class="cloud-arrow" fill="#444444" stroke="#444444" stroke-width="3" stroke-miterlimit="10" points="339.6 162.9 321.7 144.9 303.7 162.9 305.1 164.4 320.7 148.8 320.7 192 322.7 192 322.7 148.8 338.2 164.4"/></g><text transform="matrix(1 0 0 1 265.3878 223.9357)" fill="#444444" font-family="'Geomanist'" font-size="28">deploying</text><g class="rect"><rect x="210.8" y="110.9" fill="#FFFFFF" width="21" height="14.3"/><rect x="210.8" y="149.8" fill="#FFFFFF" width="31.6" height="36.9"/><rect x="380.9" y="106.1" fill="#FFFFFF" width="22.4" height="19"/><rect x="431.4" y="154.2" fill="#FFFFFF" width="27.9" height="32.5"/><rect x="395.6" y="168.2" fill="#FFFFFF" width="19.6" height="18.5"/></g><text class="deploying-desc" transform="matrix(1 0 0 1 221.3435 284)"><tspan x="0" y="0" fill="#333333" font-family="'Muli'" font-size="16">When all steps are behind </tspan><tspan x="-56.9" y="21.6" fill="#333333" font-family="'Muli'" font-size="16">And it’s all ok there, i’m pushing my work.</tspan><tspan x="75.6" y="43.2" fill="#333333" font-family="'Muli'" font-size="16">Finita!</tspan></text></g><text transform="matrix(1 0 0 1 310 47.6668)" font-family="'Geomanist'" font-weight="bold" font-size="12" fill="#555">first</text><text transform="matrix(1 0 0 1 540 236.6669)" font-weight="bold" font-family="'Geomanist'" font-size="12" fill="#555">second</text><text transform="matrix(1 0 0 1 310 443)" font-family="'Geomanist'" font-weight="bold" font-size="12" fill="#555">third</text><text transform="matrix(1 0 0 1 62 246)" font-weight="bold" font-family="'Geomanist'" font-size="12" fill="#555">fourth</text><g class="circles-indicators"><g class="first-path"><circle class="c1" fill="rgba(255,255,255,0)" stroke="#E5E5E5" stroke-miterlimit="10" cx="389.3" cy="47.3" r="8.3"/><circle class="c2" fill="rgba(255,255,255,0)" stroke="#E5E5E5" stroke-miterlimit="10" cx="423.7" cy="48" r="8.3"/><circle class="c3" fill="rgba(255,255,255,0)" stroke="#E5E5E5" stroke-miterlimit="10" cx="457.3" cy="47.3" r="8.3"/><circle class="c4" fill="rgba(255,255,255,0)" stroke="#E5E5E5" stroke-miterlimit="10" cx="491.7" cy="48" r="8.3"/><circle class="c5" fill="rgba(255,255,255,0)" stroke="#E5E5E5" stroke-miterlimit="10" cx="524.3" cy="47.3" r="8.3"/><circle class="c6" fill="rgba(255,255,255,0)" stroke="#E5E5E5" stroke-miterlimit="10" cx="558.7" cy="48" r="8.3"/><circle class="c7" fill="rgba(255,255,255,0)" stroke="#E5E5E5" stroke-miterlimit="10" cx="558.7" cy="78" r="8.3"/><circle class="c8" fill="rgba(255,255,255,0)" stroke="#E5E5E5" stroke-miterlimit="10" cx="558.7" cy="107" r="8.3"/><circle class="c9" fill="rgba(255,255,255,0)" stroke="#E5E5E5" stroke-miterlimit="10" cx="558.7" cy="135" r="8.3"/><circle class="c10" fill="rgba(255,255,255,0)" stroke="#E5E5E5" stroke-miterlimit="10" cx="558.7" cy="164" r="8.3"/></g><g class="second-path"><circle class="c20" fill="rgba(255,255,255,0)" stroke="#E5E5E5" stroke-miterlimit="10" cx="390.3" cy="439" r="8.3"/><circle class="c19" fill="rgba(255,255,255,0)" stroke="#E5E5E5" stroke-miterlimit="10" cx="424.7" cy="438.3" r="8.3"/><circle class="c18" fill="rgba(255,255,255,0)" stroke="#E5E5E5" stroke-miterlimit="10" cx="458.3" cy="439" r="8.3"/><circle class="c17" fill="rgba(255,255,255,0)" stroke="#E5E5E5" stroke-miterlimit="10" cx="492.7" cy="438.3" r="8.3"/><circle class="c16" fill="rgba(255,255,255,0)" stroke="#E5E5E5" stroke-miterlimit="10" cx="525.3" cy="439" r="8.3"/><circle class="c15" fill="rgba(255,255,255,0)" stroke="#E5E5E5" stroke-miterlimit="10" cx="559.7" cy="438.3" r="8.3"/><circle class="c14" fill="rgba(255,255,255,0)" stroke="#E5E5E5" stroke-miterlimit="10" cx="559.7" cy="408.3" r="8.3"/><circle class="c13" fill="rgba(255,255,255,0)" stroke="#E5E5E5" stroke-miterlimit="10" cx="559.7" cy="379.3" r="8.3"/><circle class="c12" fill="rgba(255,255,255,0)" stroke="#E5E5E5" stroke-miterlimit="10" cx="559.7" cy="351.3" r="8.3"/><circle class="c11" fill="rgba(255,255,255,0)" stroke="#E5E5E5" stroke-miterlimit="10" cx="559.7" cy="322.3" r="8.3"/></g><g class="third-path"><circle class="c21" fill="rgba(255,255,255,0)" stroke="#E5E5E5" stroke-miterlimit="10" cx="245.7" cy="438" r="8.3"/><circle class="c22" fill="rgba(255,255,255,0)" stroke="#E5E5E5" stroke-miterlimit="10" cx="211.3" cy="437.3" r="8.3"/><circle class="c23" fill="rgba(255,255,255,0)" stroke="#E5E5E5" stroke-miterlimit="10" cx="177.7" cy="438" r="8.3"/><circle class="c24" fill="rgba(255,255,255,0)" stroke="#E5E5E5" stroke-miterlimit="10" cx="143.3" cy="437.3" r="8.3"/><circle class="c25" fill="rgba(255,255,255,0)" stroke="#E5E5E5" stroke-miterlimit="10" cx="110.7" cy="438" r="8.3"/><circle class="c26" fill="rgba(255,255,255,0)" stroke="#E5E5E5" stroke-miterlimit="10" cx="76.3" cy="407.3" r="8.3"/><circle class="c27" fill="rgba(255,255,255,0)" stroke="#E5E5E5" stroke-miterlimit="10" cx="76.3" cy="378.3" r="8.3"/><circle class="c28" fill="rgba(255,255,255,0)" stroke="#E5E5E5" stroke-miterlimit="10" cx="76.3" cy="350.3" r="8.3"/><circle class="c29" fill="rgba(255,255,255,0)" stroke="#E5E5E5" stroke-miterlimit="10" cx="76.3" cy="321.3" r="8.3"/><circle class="c30" fill="rgba(255,255,255,0)" stroke="#E5E5E5" stroke-miterlimit="10" cx="76.3" cy="437.3" r="8.3"/></g></g></svg>
