<svg id="portrait-lines" xmlns="http://www.w3.org/2000/svg" viewBox="0 0 1368 1464"><path fill="none" stroke="#181E1C" stroke-miterlimit="10" d="M259.6 510.3l-9.9 20.5-14 23.3-4 26.1 8 15.2 15.9 11.3v33l-8.1 21.2 21 8.7 2.2 20.1-3.6 10.1.9 18.8 6.1 21.3 5.6 37.5-14.6 28.1 12.2 40.9 25 26.1 73.9 16.1 65.1-10.1 33.4 4 33.5-4 97.1-24.7 30.8 3.8 46.9-11.5 80.3-66 77-49.2 34.2-27 12.7-125.5L908 511l33.4-77.5 12.8-85.9-12.8-112.5-36.8-81.7L847 83.7l-70.9-46.2L685 14.8l-118.5 6-94.4 36.8-72.3 37.9-61.2 67.3-16.9 36-52.4 119.3-17.6 29.5 7.9 42.1"/><path fill="none" stroke="#181E1C" stroke-miterlimit="10" d="M346.6 530.8l11.2 12.1 64.7 24.9h67l22.7-20 19.7-63.9 16.5-25.2h115.8l99.1-1.3 52.9-4.8 32.8 11.2 12.8 20.1 6-20.1-14.1-30.3-46.2-8.9-79-3.3-115.8-3.1h-76.8l-71.4-14.4-85.6-4.1-53.7 9.5-32.6-3.4-32.6-15.5-45.1-7.3-34.3 6.3v44.2l4.8 36.1 26.4 36.4 25.9 9.9 21.9-5.6L281 479l11.6-25.2 1.7-21.8 16.8 1.5 18.4 66.1 17.4 31.5"/><path fill="none" stroke="#181E1C" stroke-miterlimit="10" d="M187.2 421.3l21.4-29.9 31.1-1.7 25.4 7.2 12.8 24.5v32.4l-10.1 5.6L281 479l-11.7-2.3v11l-29.6 20.8-38-18.1-1.9-2.5-13.4-37.2.7-28.4M332.3 427.2l19.3-10.9 34.1-3.3 23.5-5.1 99 19.3-.9 54 2.5 34.1-1.6 34.7-22.3 5.1-60.3 4.7-36.6-16.9-23.2-14.8-22.9-35.5-4.3-11.4-6.3-51.3M321.7 198.8l61.8 21.2 73.4-5.4 79 35.4 30.6 104.3 42.2 58.7M668 461.4l41.1 29 54.2-33M830.6 607.9l24.8 5.1 19.1 90.9M699.1 628.7l18.1 29.9 54.2-11.1 44.8-23.2 14.4-19.2 12.2-30.6 10.9-25.6 10.7-34.7-2.6-28.5"/><path fill="none" stroke="#181E1C" stroke-miterlimit="10" d="M747.3 565.6l20.7 21.9 21.8-1.4 21.7-7.7 15.4-29.5 8-20.8-18.7-34"/><path fill="none" stroke="#181E1C" stroke-miterlimit="10" d="M791.5 518.2l18.8 19.9-20.5 4.8-11.4 17.3M341.3 559.8l18.3 23.2-20.3 30-23.2-16.8-27.6-.8 17.8 17.6 4.1-6.8"/><path fill="none" stroke="#181E1C" stroke-miterlimit="10" d="M255.6 606.7l15.1 8 37.7 9.7 12 11.3 10.6 10.6 16.5 1.2 29.9 22.1 23.2-6.2 51.4 9 25.9-53.5 35.9-17.7 52.7-25.3 24.8-52.6 58.9-44.3 14-20.3 44.9 31.7-38.8 68.5 24.1 130.8-46.9 82.4-74.3 64.6-65 20.5-66.9 21.3-65.1 10.1-73.9-16.1-25-26.1-12.2-40.9 14.6-28.1 54.8 23.5 38.1-16.1 30.3-41.5-7.2-14.8-26.7-11.7-6.7-14.9-21.5-4.6-32.4-12.6-22.5-7.7-17.4-7.4"/><path fill="none" stroke="#181E1C" stroke-miterlimit="10" d="M268 718.6l52.4 4.1 48.6-5.9-6.7-14.9-21.5-4.6h-23.2l-31.6-3.8-15.3-3.8M442.2 882.5l10.4 47.4-6.9 38.4-24.6 33 20.2 34.8-57.2 121.4-55.3 61.6-58.9 111.6 133 31.3 53.7 25.9H502l71.4 7.1 43-18.8 276.6 42.9 169.6 31.2 100 9 71.4-9 3.2-110.2 37.9-49.6 36.6-150.8 8-140.2-8-116.7-77.7-104.1-105.3-63.9-136.6-87.9-37.9-43.5-67-5 67 5 37.9 43.5 62.5 109.2 74.1 44 48.2 48 8.9 91.1-98.2-61.6-74.1-35.3-81.2-13-146.9 14.4L683 846.1l182.3 7.7 94.4 24.7 243.1 90.6"/><path fill="none" stroke="#181E1C" stroke-miterlimit="10" d="M441.3 1036.1l50.2 17.9 133.6-4.2 69.3-2.1 180.1 28.3 148.9 88.7h117.8l92.8-50 62.5-32.2 23.2-83-116.9-30.4-143.7-14.2-126.8-26.8-128.1-34.8-140-14.8-85.9 42.4-21.5 23.7-113.5 61.1"/><path fill="none" stroke="#181E1C" stroke-miterlimit="10" d="M573.4 1395l28.3-90.6 63.7-173 26.6-47.1 25.1-33"/><path fill="none" stroke="#28282F" stroke-miterlimit="10" d="M747.5 1056.1l-42.9 75.3-88.2 244.8"/><path fill="none" stroke="#181E1C" stroke-miterlimit="10" d="M694.4 1047.7l-34.9 56.3-23.4 27.4-48.9 130.4-37.9 126.1"/><path fill="none" stroke="#28282F" stroke-miterlimit="10" d="M625.1 1049.8l-37.9 73.8-30.4 7.8-14.8 30.1 7.3 28.8-41.1 28.8-51.6 168.8"/><path fill="none" stroke="#181E1C" stroke-miterlimit="10" d="M513.6 1388.1l27.1-107.4 69.6-160.4 23.3-7.7 2.8-56.5"/><path fill="none" stroke="#181E1C" stroke-miterlimit="10" d="M502 1387.9l2.8-57.2 31.6-111.6 50.8-95.5 21.1-3.3 27-61.7"/></svg>