<?xml version="1.0" encoding="UTF-8"?>
<?xml-stylesheet href="../css/style.css" type="text/css"?>
<svg xmlns="http://www.w3.org/2000/svg" viewBox="0 0 500 300"><path class="code-bg" fill="rgba(0,0,0,0)" d="M0 0h500v299.9H0z"/><circle class="code-moon" cx="600" r="100" fill="rgba(255,255,255,0)"/><g class="code-houses"><path fill="#FF7122" d="M15.5 238.7h66.1v61.2H15.5z"/><path fill="#6353F4" d="M414.8 238.7h77.9v61.6h-77.9z"/><path fill="#F9508D" d="M201.1 243.5h97.8v57h-97.8z"/><path fill="#FF5D24" d="M91.1 202.5h100.5v97.8H91.1z"/><path fill="#CA52F7" d="M310.1 213h94.2v86.7h-94.2z"/><path d="M39.2 251.7h8v36.6h-8zm10.7 0h8v36.6h-8zm10.8 0h8v36.6h-8zm-32.2 0h8v36.6h-8zm76.5-14.1h72.7v14.7H105zm0 19.7h72.7V272H105zm0 19.8h72.7v14.7H105zm0-59.2h72.7v14.7H105zm107.3 45.5h75.3v8.9h-75.3zm0 11.9h75.3v8.9h-75.3zm0 11.9h75.3v8.9h-75.3zm0-35.7h75.3v8.9h-75.3zm147-25.4h12.4v63.1h-12.4zm-16.6 0h12.4v63.1h-12.4zm-16.6 0h12.4v63.1h-12.4zm49.8 0h12.4v63.1h-12.4zm79.5 22.6h9.5v41.7h-9.5zm-12.8 0h9.5v41.7h-9.5zm-12.8 0h9.5v41.7h-9.5zm38.4 0h9.5v41.7h-9.5z" class="code-windows" fill="#FFF"/></g><g class="code-interface"><path fill="#FFF" stroke="#B3B3B3" stroke-miterlimit="10" d="M379.1 32.1H120.9c-5.1 0-9.2 4.1-9.2 9.2v217.4c0 5.1 4.1 9.2 9.2 9.2H379c5.1 0 9.2-4.1 9.2-9.2V41.3c.1-5.1-4.1-9.2-9.1-9.2z"/><path fill="#CCC" d="M120.9 36.9H379c2.4 0 4.4 2 4.4 4.4v8.5H208c-1.3 0-2.4 1.1-2.4 2.4 0 1.3 1.1 2.4 2.4 2.4h175.4v10.5H116.5V41.3c0-2.4 2-4.4 4.4-4.4z"/><path fill="#E6E6E6" d="M379.1 263.1H120.9c-2.4 0-4.4-2-4.4-4.4v-9.3h266.9v9.3c.1 2.4-1.9 4.4-4.3 4.4z"/><path fill="#666" stroke="#999" stroke-miterlimit="10" d="M116.5 70.5h266.9v173H116.5z"/><g class="code-lines"><path fill="#ED4C4C" d="M171.6 106.5h-36.2c-1.8 0-3.3-1.5-3.3-3.3 0-1.8 1.5-3.3 3.3-3.3h36.2c1.8 0 3.3 1.5 3.3 3.3-.1 1.8-1.5 3.3-3.3 3.3zm0 24.3h-36.2c-1.8 0-3.3-1.5-3.3-3.3 0-1.8 1.5-3.3 3.3-3.3h36.2c1.8 0 3.3 1.5 3.3 3.3-.1 1.8-1.5 3.3-3.3 3.3z"/><path fill="#FFF" d="M272.8 130.8h-77.9c-1.8 0-3.3-1.5-3.3-3.3 0-1.8 1.5-3.3 3.3-3.3h77.9c1.8 0 3.3 1.5 3.3 3.3-.1 1.8-1.5 3.3-3.3 3.3zm-25.2 22.4h-52.7c-1.8 0-3.3-1.5-3.3-3.3 0-1.8 1.5-3.3 3.3-3.3h52.7c1.8 0 3.3 1.5 3.3 3.3 0 1.8-1.5 3.3-3.3 3.3zm20.5 24h-52.7c-1.8 0-3.3-1.5-3.3-3.3 0-1.8 1.5-3.3 3.3-3.3h52.7c1.8 0 3.3 1.5 3.3 3.3 0 1.8-1.5 3.3-3.3 3.3z"/><path fill="#ED4C4C" d="M336.5 177.2h-52.7c-1.8 0-3.3-1.5-3.3-3.3 0-1.8 1.5-3.3 3.3-3.3h52.7c1.8 0 3.3 1.5 3.3 3.3-.1 1.8-1.5 3.3-3.3 3.3z"/><path fill="#FFF" d="M320 205.7h-52.7c-1.8 0-3.3-1.5-3.3-3.3 0-1.8 1.5-3.3 3.3-3.3H320c1.8 0 3.3 1.5 3.3 3.3 0 1.9-1.5 3.3-3.3 3.3zm-6.3-99.2H194.9c-1.8 0-3.3-1.5-3.3-3.3 0-1.8 1.5-3.3 3.3-3.3h118.9c1.8 0 3.3 1.5 3.3 3.3-.1 1.8-1.6 3.3-3.4 3.3z"/><path fill="#ED4C4C" d="M254.2 205.7H135.3c-1.8 0-3.3-1.5-3.3-3.3 0-1.8 1.5-3.3 3.3-3.3h118.9c1.8 0 3.3 1.5 3.3 3.3 0 1.9-1.5 3.3-3.3 3.3z"/></g><circle fill="#D8505B" cx="132.1" cy="51.8" r="6.8"/><circle fill="#F7931E" cx="150.1" cy="51.8" r="6.8"/><circle fill="#22B573" cx="168.1" cy="51.8" r="6.8"/><g class="code-modal" opacity="0"><path fill="#FFF" d="M159.9 184.2h176.6c6.6 0 12-5.4 12-12v-29.5c0-6.6-5.4-12-12-12H159.9c-6.6 0-12 5.4-12 12v29.5c0 6.6 5.4 12 12 12z"/><path fill="#74E27C" d="M164.6 152.8v-9.7c0-.2.1-.4.2-.5.1-.1.3-.2.5-.2h4.4c2.3 0 3.9.5 4.9 1.4 1 .9 1.5 2.3 1.5 4.3s-.5 3.3-1.5 4.2c-1 .9-2.7 1.4-4.9 1.4h-4.4c-.2 0-.4-.1-.5-.2-.1-.3-.2-.5-.2-.7zm3-1.5h2.1c1.4 0 2.3-.3 2.9-.8.5-.5.8-1.4.8-2.6 0-1.2-.3-2.1-.8-2.6s-1.5-.8-2.9-.8h-2.1v6.8zm10.2 1.5V143c0-.2.1-.4.2-.5.1-.1.3-.2.5-.2h9c.2 0 .4.1.5.2.1.1.2.3.2.5v.7c0 .2-.1.4-.2.5-.1.1-.3.2-.5.2h-6.8v2.3h5.9c.2 0 .4.1.5.2.1.1.2.3.2.5v.7c0 .2-.1.4-.2.5-.1.1-.3.2-.5.2h-5.9v2.3h6.8c.2 0 .4.1.5.2.1.1.2.3.2.5v.8c0 .2-.1.4-.2.5-.1.1-.3.2-.5.2h-9c-.2 0-.4-.1-.5-.2-.1 0-.2-.1-.2-.3zm11.9-9.8c0-.2.1-.4.2-.5.1-.1.3-.2.5-.2h6.4c.7 0 1.4.1 1.9.3.6.2 1.1.5 1.5 1 .4.5.6 1.1.6 1.8 0 .8-.4 1.5-1.1 2.1 1 .5 1.5 1.4 1.5 2.6 0 1.1-.4 1.9-1.2 2.5-.8.6-1.8.9-2.9.9h-6.7c-.2 0-.4-.1-.5-.2-.1-.1-.2-.3-.2-.5V143zm3 3.6h4.2c.3 0 .6-.1.8-.3.2-.2.3-.5.3-.8s-.1-.6-.3-.8c-.2-.2-.5-.3-.8-.3h-4.2v2.2zm0 4.8h4.5c.4 0 .7-.1.9-.4.2-.2.3-.6.3-1s-.1-.7-.3-1c-.2-.2-.5-.4-.9-.4h-4.5v2.8zm10.1-2.3v-6c0-.2.1-.4.2-.5.1-.1.3-.2.5-.2h1.5c.2 0 .4.1.5.2.1.1.2.3.2.5v6c0 .8.2 1.3.5 1.7s.9.6 1.6.6h1.3c.7 0 1.2-.2 1.6-.6s.5-.9.5-1.7v-6c0-.2.1-.4.2-.5.1-.1.3-.2.5-.2h1.5c.2 0 .4.1.5.2.1.1.2.3.2.5v6c0 1.4-.4 2.5-1.3 3.3-.8.8-2.1 1.2-3.7 1.2h-1.4c-1.6 0-2.8-.4-3.7-1.2-.8-.8-1.2-1.9-1.2-3.3zm12.6-1.2c0-1.9.5-3.4 1.4-4.3 1-.9 2.4-1.4 4.3-1.4h1.7c1.2 0 2.2.3 3.1.8.9.5 1.4 1.2 1.4 2.1 0 .3-.1.5-.3.7-.2.1-.4.2-.5.2h-.9c-.4 0-.8-.2-1.1-.7-.3-.5-.9-.8-2-.8h-1.4c-1.1 0-1.9.2-2.3.7s-.6 1.4-.6 2.7c0 1.3.2 2.2.5 2.7.4.5 1 .8 2 .8h1.6c.8 0 1.4-.2 1.8-.5.4-.3.5-.8.6-1.4h-1.8c-.2 0-.4-.1-.5-.2-.1-.1-.2-.3-.2-.5v-.6c0-.2.1-.4.2-.5.1-.1.3-.2.5-.2h3.9c.2 0 .4.1.5.2.1.1.2.3.2.5v.9c0 1.5-.4 2.6-1.3 3.4s-2.2 1.2-3.9 1.2h-1.8c-1.7 0-3.1-.5-4-1.4-.6-1.1-1.1-2.5-1.1-4.4zm13.3 0c0-1.9.5-3.4 1.4-4.3 1-.9 2.4-1.4 4.3-1.4h1.7c1.2 0 2.2.3 3.1.8.9.5 1.4 1.2 1.4 2.1 0 .3-.1.5-.3.7-.2.1-.4.2-.5.2h-.8c-.4 0-.8-.2-1.1-.7-.3-.5-.9-.8-2-.8h-1.4c-1.1 0-1.9.2-2.3.7s-.6 1.4-.6 2.7c0 1.3.2 2.2.5 2.7.4.5 1 .8 2 .8h1.6c.8 0 1.4-.2 1.8-.5.4-.3.5-.8.6-1.4h-1.8c-.2 0-.4-.1-.5-.2-.1-.1-.2-.3-.2-.5v-.6c0-.2.1-.4.2-.5.1-.1.3-.2.5-.2h3.9c.2 0 .4.1.5.2.1.1.2.3.2.5v.9c0 1.5-.4 2.6-1.3 3.4s-2.2 1.2-3.9 1.2h-1.8c-1.7 0-3.1-.5-4-1.4-.8-1.1-1.2-2.5-1.2-4.4zm13.9 4.9V143c0-.2.1-.4.2-.5.1-.1.3-.2.5-.2h1.5c.2 0 .4.1.5.2.1.1.2.3.2.5v9.7c0 .2-.1.4-.2.5-.1.1-.3.2-.5.2h-1.5c-.2 0-.4-.1-.5-.2-.2 0-.2-.2-.2-.4zm5.2 0V143c0-.2.1-.4.2-.5.1-.1.3-.2.5-.2h2.3c.2 0 .4.1.6.2.2.1.4.3.5.5l4.8 7.3V143c0-.2.1-.4.2-.5s.3-.2.5-.2h1.3c.2 0 .4.1.5.2.1.1.2.3.2.5v9.7c0 .2-.1.4-.2.5-.1.1-.3.2-.5.2h-2.6c-.2 0-.4-.1-.6-.2-.2-.1-.4-.3-.5-.5l-4.3-6.7v6.7c0 .2-.1.4-.2.5-.1.1-.3.2-.5.2h-1.4c-.2 0-.4-.1-.5-.2-.3-.1-.3-.2-.3-.4zm13.2-4.9c0-1.9.5-3.4 1.4-4.3 1-.9 2.4-1.4 4.3-1.4h1.7c1.2 0 2.2.3 3.1.8.9.5 1.4 1.2 1.4 2.1 0 .3-.1.5-.3.7s-.4.2-.5.2h-.9c-.4 0-.8-.2-1.1-.7-.3-.5-.9-.8-2-.8h-1.4c-1.1 0-1.9.2-2.3.7s-.6 1.4-.6 2.7c0 1.3.2 2.2.5 2.7s1 .8 2 .8h1.6c.8 0 1.4-.2 1.8-.5s.5-.8.6-1.4h-1.8c-.2 0-.4-.1-.5-.2-.1-.1-.2-.3-.2-.5v-.6c0-.2.1-.4.2-.5.1-.1.3-.2.5-.2h3.9c.2 0 .4.1.5.2.1.1.2.3.2.5v.9c0 1.5-.4 2.6-1.3 3.4s-2.2 1.2-3.9 1.2h-1.8c-1.7 0-3.1-.5-4-1.4s-1.1-2.5-1.1-4.4zm-95.6 23.5c-1-.9-1.4-2.3-1.4-4.3s.5-3.4 1.5-4.3c1-.9 2.4-1.4 4.4-1.4h1.8c1.2 0 2.2.3 3.2.9s1.4 1.5 1.4 2.5c0 .3-.1.5-.3.7-.2.1-.4.2-.5.2h-1c-.5 0-.9-.3-1.2-.9-.4-.8-1-1.2-1.9-1.2H170c-1.1 0-1.9.2-2.3.7s-.6 1.4-.6 2.7.2 2.2.6 2.7 1.2.7 2.3.7h1.6c.9 0 1.5-.4 1.9-1.2.3-.6.6-.9 1.1-.9h.9c.1 0 .2 0 .3.1.1 0 .2.1.3.3.1.1.2.3.2.5 0 1.1-.5 1.9-1.4 2.5s-2 .9-3.1.9h-1.9c-2.1.2-3.5-.3-4.5-1.2zm13.2.1c-1.1-.9-1.6-2.4-1.6-4.4s.5-3.5 1.6-4.4c1.1-.9 2.6-1.4 4.7-1.4s3.6.5 4.7 1.4c1.1.9 1.6 2.4 1.6 4.4s-.5 3.5-1.6 4.4c-1.1.9-2.6 1.4-4.7 1.4-2 0-3.6-.4-4.7-1.4zm2.2-7.2c-.5.6-.8 1.6-.8 2.8s.3 2.2.8 2.8c.5.6 1.4.9 2.6.9 1.2 0 2-.3 2.6-.9.5-.6.8-1.6.8-2.8s-.3-2.2-.8-2.8c-.5-.6-1.4-.9-2.6-.9-1.2 0-2.1.3-2.6.9zm10.4 7.7v-9.7c0-.2.1-.4.2-.5.1-.1.3-.2.5-.2h3.2c.2 0 .4.1.6.2s.3.3.4.5l2.3 6.7 2.3-6.7c.1-.2.2-.4.4-.5s.4-.2.6-.2h3.2c.2 0 .4.1.5.2.1.1.2.3.2.5v9.7c0 .2-.1.4-.2.5-.1.1-.3.2-.5.2h-1.4c-.2 0-.4-.1-.5-.2-.1-.1-.2-.3-.2-.5v-7.6l-2.8 7.7c-.1.2-.2.4-.4.5s-.4.2-.6.2h-1.1c-.2 0-.4-.1-.6-.2s-.3-.3-.4-.5l-2.7-7.7v7.6c0 .2-.1.4-.2.5-.1.1-.3.2-.5.2H192c-.2 0-.4-.1-.5-.2-.2-.2-.3-.3-.3-.5zm16.6 0v-9.7c0-.2.1-.4.2-.5s.3-.2.5-.2h6c3.1 0 4.7 1.5 4.7 4.4 0 2.9-1.6 4.4-4.7 4.4h-3.7v1.8c0 .2-.1.4-.2.5-.1.1-.3.2-.5.2h-1.5c-.2 0-.4-.1-.5-.2-.3-.4-.3-.5-.3-.7zm2.9-4h2.9c.9 0 1.5-.1 2-.4s.7-.9.7-1.7-.2-1.4-.7-1.7-1.1-.4-2-.4h-2.9v4.2zm9.9 4v-9.7c0-.2.1-.4.2-.5.1-.1.3-.2.5-.2h1.5c.2 0 .4.1.5.2.1.1.2.3.2.5v8.2h6.8c.2 0 .4.1.5.2.1.1.2.3.2.5v.7c0 .2-.1.4-.2.5-.1.1-.3.2-.5.2h-9c-.2 0-.4-.1-.5-.2-.1 0-.2-.2-.2-.4zm11.8 0v-9.7c0-.2.1-.4.2-.5.1-.1.3-.2.5-.2h9c.2 0 .4.1.5.2.1.1.2.3.2.5v.7c0 .2-.1.4-.2.5-.1.1-.3.2-.5.2h-6.8v2.3h5.9c.2 0 .4.1.5.2.1.1.2.3.2.5v.7c0 .2-.1.4-.2.5-.1.1-.3.2-.5.2h-5.9v2.3h6.8c.2 0 .4.1.5.2.1.1.2.3.2.5v.8c0 .2-.1.4-.2.5-.1.1-.3.2-.5.2h-9c-.2 0-.4-.1-.5-.2-.2-.1-.2-.2-.2-.4zm10.9-9v-.7c0-.2.1-.4.2-.5s.3-.2.5-.2h9.9c.2 0 .4.1.5.2s.2.3.2.5v.7c0 .2-.1.4-.2.5s-.3.2-.5.2h-3.5v8.3c0 .2-.1.4-.2.5-.1.1-.3.2-.5.2h-1.5c-.2 0-.4-.1-.5-.2-.1-.1-.2-.3-.2-.5v-8.3H244c-.2 0-.4-.1-.5-.2s-.2-.3-.2-.5zm12.7 9v-9.7c0-.2.1-.4.2-.5s.3-.2.5-.2h9c.2 0 .4.1.5.2s.2.3.2.5v.7c0 .2-.1.4-.2.5s-.3.2-.5.2h-6.8v2.3h5.9c.2 0 .4.1.5.2s.2.3.2.5v.7c0 .2-.1.4-.2.5s-.3.2-.5.2h-5.9v2.3h6.8c.2 0 .4.1.5.2s.2.3.2.5v.8c0 .2-.1.4-.2.5s-.3.2-.5.2h-9c-.2 0-.4-.1-.5-.2s-.2-.2-.2-.4zm11.8-9.8c0-.2.1-.4.2-.5s.3-.2.5-.2h1.6c.2 0 .4.1.5.2.1.1.2.3.2.5l-.1 6.4c0 .2-.1.4-.2.5s-.3.2-.5.2h-1.2c-.2 0-.4-.1-.5-.2s-.2-.3-.2-.5l-.3-6.4zm0 9.5v-.5c0-.3.1-.6.3-.8s.4-.3.7-.3h.9c.3 0 .6.1.8.3.2.2.3.4.3.8v.5c0 .3-.1.6-.3.8-.2.2-.4.3-.8.3h-.9c-.3 0-.6-.1-.8-.3-.1-.2-.2-.4-.2-.8z"/></g><g class="code-check-group"><circle class="code-ok" opacity=".1" fill="#F2F2F2" cx="249.6" cy="157.4" r="42.4"/><path class="code-check" opacity="0" fill="none" stroke="#74E27C" stroke-width="4" stroke-miterlimit="10" d="M227.4 149.3l19.1 25.5 27-42.5"/></g></g></svg>
