<?xml version="1.0" encoding="utf-8"?>
<!-- Generator: Adobe Illustrator 18.0.0, SVG Export Plug-In . SVG Version: 6.00 Build 0)  -->
<!DOCTYPE svg PUBLIC "-//W3C//DTD SVG 1.1//EN" "http://www.w3.org/Graphics/SVG/1.1/DTD/svg11.dtd">
<svg version="1.1" id="Layer_1" xmlns="http://www.w3.org/2000/svg" xmlns:xlink="http://www.w3.org/1999/xlink" x="0px" y="0px"
	 viewBox="0 180.3 640 119.5" enable-background="new 0 180.3 640 119.5" xml:space="preserve">
<path fill="#91ADD4" stroke="#91ADD4" stroke-width="1.51" d="M-7.5,307.2l21.3-22.4l-21.3-34.1V307.2z"/>
<path fill="#81A9D1" stroke="#81A9D1" stroke-width="1.51" d="M-7.5,307.2l27.7,1.1l-6.4-23.5L-7.5,307.2z"/>
<path fill="#AFACAA" stroke="#AFACAA" stroke-width="1.51" d="M-18.1,203.7l10.7,46.9l34.1-51.2L-18.1,203.7z"/>
<path fill="#B28D8C" stroke="#B28D8C" stroke-width="1.51" d="M-24.5,171.7l6.4,32l38.4-38.4L-24.5,171.7z"/>
<path fill="#B59B96" stroke="#B59B96" stroke-width="1.51" d="M-18.1,203.7l44.8-4.3l-6.4-34.1L-18.1,203.7z"/>
<path fill="#B1BBBA" stroke="#B1BBBA" stroke-width="1.51" d="M-7.5,250.7l38.4,6.4l-4.3-57.6L-7.5,250.7z"/>
<path fill="#A1B8D2" stroke="#A1B8D2" stroke-width="1.51" d="M-7.5,250.7l21.3,34.1l17.1-27.7L-7.5,250.7z"/>
<path fill="#B8C0B9" stroke="#B8C0B9" stroke-width="1.51" d="M26.7,199.5l4.3,57.6l32-27.7L26.7,199.5z"/>
<path fill="#89B5D6" stroke="#89B5D6" stroke-width="1.51" d="M13.9,284.8l6.4,23.5l49.1-10.7L13.9,284.8z"/>
<path fill="#9ABDDC" stroke="#9ABDDC" stroke-width="1.51" d="M13.9,284.8l55.5,12.8l-38.4-40.5L13.9,284.8z"/>
<path fill="#BD9890" stroke="#BD9890" stroke-width="1.51" d="M20.3,165.3l6.4,34.1l27.7-34.1H20.3z"/>
<path fill="#7EAFD3" stroke="#7EAFD3" stroke-width="1.51" d="M20.3,308.3l25.6,23.5l23.5-34.1L20.3,308.3z"/>
<path fill="#C0AE9F" stroke="#C0AE9F" stroke-width="1.51" d="M26.7,199.5l57.6,12.8l-29.9-46.9L26.7,199.5z"/>
<path fill="#BDBFB0" stroke="#BDBFB0" stroke-width="1.51" d="M26.7,199.5l36.3,29.9l21.3-17.1L26.7,199.5z"/>
<path fill="#AEC8D7" stroke="#AEC8D7" stroke-width="1.51" d="M30.9,257.1l38.4,40.5l-6.4-68.3L30.9,257.1z"/>
<path fill="#72AAD0" stroke="#72AAD0" stroke-width="1.51" d="M45.9,331.7l38.4-12.8l-14.9-21.3L45.9,331.7z"/>
<path fill="#ACD0E5" stroke="#ACD0E5" stroke-width="1.51" d="M62.9,229.3l6.4,68.3l49.1-4.3L62.9,229.3z"/>
<path fill="#C1DAD7" stroke="#C1DAD7" stroke-width="1.51" d="M62.9,229.3l55.5,64l10.7-57.6L62.9,229.3z"/>
<path fill="#CAA897" stroke="#CAA897" stroke-width="1.51" d="M54.4,165.3l29.9,46.9l29.9-66.1L54.4,165.3z"/>
<path fill="#CFB8A1" stroke="#CFB8A1" stroke-width="1.51" d="M84.3,212.3l38.4-14.9l-8.5-51.2L84.3,212.3z"/>
<path fill="#83B8D7" stroke="#83B8D7" stroke-width="1.51" d="M69.3,297.6l14.9,21.3l44.8-12.8L69.3,297.6z"/>
<path fill="#9CCBE1" stroke="#9CCBE1" stroke-width="1.51" d="M69.3,297.6l59.7,8.5l-10.7-12.8L69.3,297.6z"/>
<path fill="#C6D1BE" stroke="#C6D1BE" stroke-width="1.51" d="M62.9,229.3l66.1,6.4l-44.8-23.5L62.9,229.3z"/>
<path fill="#BFDEE8" stroke="#BFDEE8" stroke-width="1.51" d="M118.4,293.3l19.2-19.2l-8.5-38.4L118.4,293.3z"/>
<path fill="#CDD1B9" stroke="#CDD1B9" stroke-width="1.51" d="M84.3,212.3l44.8,23.5l-6.4-38.4L84.3,212.3z"/>
<path fill="#D9BCA2" stroke="#D9BCA2" stroke-width="1.51" d="M122.7,197.3l19.2-4.3l4.3-40.5L122.7,197.3z"/>
<path fill="#D3D8BE" stroke="#D3D8BE" stroke-width="1.51" d="M122.7,197.3l6.4,38.4l17.1-14.9L122.7,197.3z"/>
<path fill="#D7AB98" stroke="#D7AB98" stroke-width="1.51" d="M114.1,146.1l8.5,51.2l23.5-44.8L114.1,146.1z"/>
<path fill="#ABD5E7" stroke="#ABD5E7" stroke-width="1.51" d="M118.4,293.3l10.7,12.8l8.5-32L118.4,293.3z"/>
<path fill="#D6CFB3" stroke="#D6CFB3" stroke-width="1.51" d="M122.7,197.3l23.5,23.5l-4.3-27.7L122.7,197.3z"/>
<path fill="#ABD7E8" stroke="#ABD7E8" stroke-width="1.51" d="M129.1,306.1l36.3,4.3l-27.7-36.3L129.1,306.1z"/>
<path fill="#D1E5D3" stroke="#D1E5D3" stroke-width="1.51" d="M129.1,235.7l8.5,38.4l8.5-53.3L129.1,235.7z"/>
<path fill="#D7ECE3" stroke="#D7ECE3" stroke-width="1.51" d="M146.1,220.8l38.4,66.1l23.5-27.7L146.1,220.8z"/>
<path fill="#E1B99F" stroke="#E1B99F" stroke-width="1.51" d="M141.9,193.1l61.9-27.7l-57.6-12.8L141.9,193.1z"/>
<path fill="#CCE7E6" stroke="#CCE7E6" stroke-width="1.51" d="M137.6,274.1l46.9,12.8l-38.4-66.1L137.6,274.1z"/>
<path fill="#B7DEED" stroke="#B7DEED" stroke-width="1.51" d="M137.6,274.1l27.7,36.3l19.2-23.5L137.6,274.1z"/>
<path fill="#DFD1B2" stroke="#DFD1B2" stroke-width="1.51" d="M141.9,193.1l4.3,27.7l66.1-42.7L141.9,193.1z"/>
<path fill="#E7C5A5" stroke="#E7C5A5" stroke-width="1.51" d="M141.9,193.1l70.4-14.9l-8.5-12.8L141.9,193.1z"/>
<path fill="#E4E5C6" stroke="#E4E5C6" stroke-width="1.51" d="M146.1,220.8l61.9,38.4l4.3-81.1L146.1,220.8z"/>
<path fill="#B0DAE9" stroke="#B0DAE9" stroke-width="1.51" d="M165.3,310.4l32,8.5l-12.8-32L165.3,310.4z"/>
<path fill="#EDECCB" stroke="#EDECCB" stroke-width="1.51" d="M208,259.2l38.4-27.7l-34.1-53.3L208,259.2z"/>
<path fill="#F2E4BF" stroke="#F2E4BF" stroke-width="1.51" d="M212.3,178.1l34.1,53.3l4.3-21.3L212.3,178.1z"/>
<path fill="#C6E5F0" stroke="#C6E5F0" stroke-width="1.51" d="M184.5,286.9l12.8,32l36.3-55.5L184.5,286.9z"/>
<path fill="#D8EEF3" stroke="#D8EEF3" stroke-width="1.51" d="M184.5,286.9l49.1-23.5l-25.6-4.3L184.5,286.9z"/>
<path fill="#BBE0ED" stroke="#BBE0ED" stroke-width="1.51" d="M197.3,318.9l23.5,14.9l12.8-70.4L197.3,318.9z"/>
<path fill="#E9F5E4" stroke="#E9F5E4" stroke-width="1.51" d="M208,259.2l25.6,4.3l12.8-32L208,259.2z"/>
<path fill="#F2C0A2" stroke="#F2C0A2" stroke-width="1.51" d="M203.7,165.3l8.5,12.8l42.7-17.1L203.7,165.3z"/>
<path fill="#CBE8F0" stroke="#CBE8F0" stroke-width="1.51" d="M220.8,333.9l64-36.3l-51.2-34.1L220.8,333.9z"/>
<path fill="#F6D1AD" stroke="#F6D1AD" stroke-width="1.51" d="M212.3,178.1l38.4,32l4.3-49.1L212.3,178.1z"/>
<path fill="#BFDCE2" stroke="#BFDCE2" stroke-width="1.51" d="M220.8,333.9l66.1-14.9l-2.1-21.3L220.8,333.9z"/>
<path fill="#F3F9DA" stroke="#F3F9DA" stroke-width="1.51" d="M233.6,263.5l36.3-27.7l-23.5-4.3L233.6,263.5z"/>
<path fill="#E9F5EA" stroke="#E9F5EA" stroke-width="1.51" d="M233.6,263.5l51.2,34.1l-14.9-61.9L233.6,263.5z"/>
<path fill="#FAD6A7" stroke="#FAD6A7" stroke-width="1.51" d="M250.7,210.1l46.9-19.2l-42.7-29.9L250.7,210.1z"/>
<path fill="#F5F1C9" stroke="#F5F1C9" stroke-width="1.51" d="M246.4,231.5l23.5,4.3l-19.2-25.6L246.4,231.5z"/>
<path fill="#EDF7E3" stroke="#EDF7E3" stroke-width="1.51" d="M269.9,235.7l14.9,61.9l25.6-29.9L269.9,235.7z"/>
<path fill="#F8ECB9" stroke="#F8ECB9" stroke-width="1.51" d="M250.7,210.1l19.2,25.6l27.7-44.8L250.7,210.1z"/>
<path fill="#FCC796" stroke="#FCC796" stroke-width="1.51" d="M254.9,161.1l42.7,29.9l2.1-32L254.9,161.1z"/>
<path fill="#FAF7C1" stroke="#FAF7C1" stroke-width="1.51" d="M269.9,235.7l40.5,32l-12.8-76.8L269.9,235.7z"/>
<path fill="#FFFBBC" stroke="#FFFBBC" stroke-width="1.51" d="M297.6,190.9l12.8,76.8l32-17.1L297.6,190.9z"/>
<path fill="#FFECA4" stroke="#FFECA4" stroke-width="1.51" d="M297.6,190.9l44.8,59.7l-4.3-61.9L297.6,190.9z"/>
<path fill="#FEC990" stroke="#FEC990" stroke-width="1.51" d="M297.6,190.9l8.5-27.7l-6.4-4.3L297.6,190.9z"/>
<path fill="#D9EDE0" stroke="#D9EDE0" stroke-width="1.51" d="M284.8,297.6l2.1,21.3l23.5-51.2L284.8,297.6z"/>
<path fill="#CDE4D7" stroke="#CDE4D7" stroke-width="1.51" d="M286.9,318.9l34.1-8.5l-10.7-42.7L286.9,318.9z"/>
<path fill="#C5D6C6" stroke="#C5D6C6" stroke-width="1.51" d="M321.1,310.4l27.7,6.4l17.1-40.5L321.1,310.4z"/>
<path fill="#DDECD3" stroke="#DDECD3" stroke-width="1.51" d="M310.4,267.7l10.7,42.7l44.8-34.1L310.4,267.7z"/>
<path fill="#FFD591" stroke="#FFD591" stroke-width="1.51" d="M297.6,190.9l40.5-2.1l-32-25.6L297.6,190.9z"/>
<path fill="#FFEEA5" stroke="#FFEEA5" stroke-width="1.51" d="M338.1,188.8l4.3,61.9l21.3-29.9L338.1,188.8z"/>
<path fill="#FFBC7E" stroke="#FFBC7E" stroke-width="1.51" d="M306.1,163.2l32,25.6l29.9-61.9L306.1,163.2z"/>
<path fill="#FFB576" stroke="#FFB576" stroke-width="1.51" d="M338.1,188.8l40.5-32L368,126.9L338.1,188.8z"/>
<path fill="#FFE599" stroke="#FFE599" stroke-width="1.51" d="M338.1,188.8l25.6,32v-8.5L338.1,188.8z"/>
<path fill="#F5F7D0" stroke="#F5F7D0" stroke-width="1.51" d="M310.4,267.7l55.5,8.5l-23.5-25.6L310.4,267.7z"/>
<path fill="#C7D2C0" stroke="#C7D2C0" stroke-width="1.51" d="M348.8,316.8l38.4-8.5l-21.3-32L348.8,316.8z"/>
<path fill="#DBE0C4" stroke="#DBE0C4" stroke-width="1.51" d="M365.9,276.3l21.3,32l4.3-23.5L365.9,276.3z"/>
<path fill="#FFD287" stroke="#FFD287" stroke-width="1.51" d="M338.1,188.8l25.6,23.5l14.9-55.5L338.1,188.8z"/>
<path fill="#FCF6BC" stroke="#FCF6BC" stroke-width="1.51" d="M342.4,250.7l23.5,25.6l-2.1-55.5L342.4,250.7z"/>
<path fill="#D2D6BC" stroke="#D2D6BC" stroke-width="1.51" d="M387.2,308.3h21.3l-17.1-23.5L387.2,308.3z"/>
<path fill="#F6EDC2" stroke="#F6EDC2" stroke-width="1.51" d="M365.9,276.3l25.6,8.5l14.9-49.1L365.9,276.3z"/>
<path fill="#FEF3B0" stroke="#FEF3B0" stroke-width="1.51" d="M363.7,220.8l2.1,55.5l40.5-40.5L363.7,220.8z"/>
<path fill="#FFE89C" stroke="#FFE89C" stroke-width="1.51" d="M363.7,220.8l42.7,14.9l2.1-17.1L363.7,220.8z"/>
<path fill="#FFE79B" stroke="#FFE79B" stroke-width="1.51" d="M363.7,212.3v8.5l44.8-2.1L363.7,212.3z"/>
<path fill="#FFD688" stroke="#FFD688" stroke-width="1.51" d="M363.7,212.3l44.8,6.4l-29.9-61.9L363.7,212.3z"/>
<path fill="#FECF80" stroke="#FECF80" stroke-width="1.51" d="M378.7,156.8l29.9,61.9l32-10.7L378.7,156.8z"/>
<path fill="#FDB46C" stroke="#FDB46C" stroke-width="1.51" d="M378.7,156.8l61.9,51.2l-19.2-36.3L378.7,156.8z"/>
<path fill="#E3DABA" stroke="#E3DABA" stroke-width="1.51" d="M391.5,284.8l17.1,23.5l59.7-23.5H391.5z"/>
<path fill="#F4DDB8" stroke="#F4DDB8" stroke-width="1.51" d="M391.5,284.8h76.8l-4.3-34.1L391.5,284.8z"/>
<path fill="#FAE7B0" stroke="#FAE7B0" stroke-width="1.51" d="M391.5,284.8l72.5-34.1l-57.6-14.9L391.5,284.8z"/>
<path fill="#FCA461" stroke="#FCA461" stroke-width="1.51" d="M421.3,171.7l19.2,36.3l17.1-36.3H421.3z"/>
<path fill="#FFDF91" stroke="#FFDF91" stroke-width="1.51" d="M406.4,235.7l34.1-27.7l-32,10.7L406.4,235.7z"/>
<path fill="#FFDF95" stroke="#FFDF95" stroke-width="1.51" d="M406.4,235.7l57.6,14.9L440.5,208L406.4,235.7z"/>
<path fill="#DACDAF" stroke="#DACDAF" stroke-width="1.51" d="M408.5,308.3l46.9,7.5l12.8-30.9L408.5,308.3z"/>
<path fill="#FEB96B" stroke="#FEB96B" stroke-width="1.51" d="M440.5,208l34.1,6.4l-17.1-42.7L440.5,208z"/>
<path fill="#FDA75D" stroke="#FDA75D" stroke-width="1.51" d="M474.7,214.4l40.5-32l-40.5-10.7V214.4z"/>
<path fill="#FB9D5A" stroke="#FB9D5A" stroke-width="1.51" d="M457.6,171.7l17.1,42.7v-42.7H457.6z"/>
<path fill="#FFD588" stroke="#FFD588" stroke-width="1.51" d="M440.5,208l23.5,42.7l10.7-36.3L440.5,208z"/>
<path fill="#FFD68C" stroke="#FFD68C" stroke-width="1.51" d="M464,250.7l23.5-10.7l-12.8-25.6L464,250.7z"/>
<path fill="#F7D4AD" stroke="#F7D4AD" stroke-width="1.51" d="M464,250.7l4.3,34.1l17.1-10.7L464,250.7z"/>
<path fill="#D6BEA4" stroke="#D6BEA4" stroke-width="1.51" d="M455.5,315.7L496,320l-27.7-35.2L455.5,315.7z"/>
<path fill="#E4C6A7" stroke="#E4C6A7" stroke-width="1.51" d="M468.3,284.8L496,320l-10.7-45.9L468.3,284.8z"/>
<path fill="#FCD59D" stroke="#FCD59D" stroke-width="1.51" d="M464,250.7l21.3,23.5l2.1-34.1L464,250.7z"/>
<path fill="#E1BEA1" stroke="#E1BEA1" stroke-width="1.51" d="M485.3,274.1L496,320l32-24.5L485.3,274.1z"/>
<path fill="#FEC476" stroke="#FEC476" stroke-width="1.51" d="M474.7,214.4l12.8,25.6l27.7-57.6L474.7,214.4z"/>
<path fill="#FFC47D" stroke="#FFC47D" stroke-width="1.51" d="M487.5,240l40.5,14.9l-12.8-72.5L487.5,240z"/>
<path fill="#FCCD99" stroke="#FCCD99" stroke-width="1.51" d="M485.3,274.1l42.7-19.2L487.5,240L485.3,274.1z"/>
<path fill="#F4C4A5" stroke="#F4C4A5" stroke-width="1.51" d="M485.3,274.1l42.7,21.3v-40.5L485.3,274.1z"/>
<path fill="#FDB26D" stroke="#FDB26D" stroke-width="1.51" d="M515.2,182.4l12.8,72.5l32-61.9L515.2,182.4z"/>
<path fill="#D6AD99" stroke="#D6AD99" stroke-width="1.51" d="M496,320l44.8-12.8L528,295.5L496,320z"/>
<path fill="#FB9756" stroke="#FB9756" stroke-width="1.51" d="M515.2,182.4l44.8,10.7l-65.1-21.3L515.2,182.4z"/>
<path fill="#F4BA9F" stroke="#F4BA9F" stroke-width="1.51" d="M528,254.9v40.5l36.3-19.2L528,254.9z"/>
<path fill="#F7814C" stroke="#F7814C" stroke-width="1.51" d="M502.8,171.7l57.2,21.3l38.4-27.7L502.8,171.7z"/>
<path fill="#FFB77A" stroke="#FFB77A" stroke-width="1.51" d="M528,254.9h57.6L560,193.1L528,254.9z"/>
<path fill="#E4B09A" stroke="#E4B09A" stroke-width="1.51" d="M528,295.5l12.8,11.7l23.5-30.9L528,295.5z"/>
<path fill="#FAB693" stroke="#FAB693" stroke-width="1.51" d="M528,254.9l36.3,21.3l21.3-21.3H528z"/>
<path fill="#DBA192" stroke="#DBA192" stroke-width="1.51" d="M540.8,307.2h55.5l-32-30.9L540.8,307.2z"/>
<path fill="#F9A46B" stroke="#F9A46B" stroke-width="1.51" d="M585.6,254.9l40.5-12.8l-21.3-59.7L585.6,254.9z"/>
<path fill="#F9A163" stroke="#F9A163" stroke-width="1.51" d="M560,193.1l25.6,61.9l19.2-72.5L560,193.1z"/>
<path fill="#F4804A" stroke="#F4804A" stroke-width="1.51" d="M560,193.1l44.8-10.7l-6.4-17.1L560,193.1z"/>
<path fill="#F4AA90" stroke="#F4AA90" stroke-width="1.51" d="M564.3,276.3l70.4-6.4l-49.1-14.9L564.3,276.3z"/>
<path fill="#E3A090" stroke="#E3A090" stroke-width="1.51" d="M564.3,276.3l32,30.9l38.4-37.3L564.3,276.3z"/>
<path fill="#D09087" stroke="#D09087" stroke-width="1.51" d="M596.3,307.2l12.8,10.7l25.6-48L596.3,307.2z"/>
<path fill="#F5A681" stroke="#F5A681" stroke-width="1.51" d="M585.6,254.9l49.1,14.9l-8.5-27.7L585.6,254.9z"/>
<path fill="#CF8A82" stroke="#CF8A82" stroke-width="1.51" d="M609.1,317.9l36.3-11.7l-10.7-36.3L609.1,317.9z"/>
<path fill="#EE6D41" stroke="#EE6D41" stroke-width="1.51" d="M598.4,165.3l6.4,17.1l36.3-4.3L598.4,165.3z"/>
<path fill="#F2945B" stroke="#F2945B" stroke-width="1.51" d="M604.8,182.4l21.3,59.7l14.9-25.6L604.8,182.4z"/>
<path fill="#EE7C48" stroke="#EE7C48" stroke-width="1.51" d="M604.8,182.4l36.3,34.1v-38.4L604.8,182.4z"/>
<path fill="#DC9186" stroke="#DC9186" stroke-width="1.51" d="M634.7,269.9l10.7,36.3l-5.3-37.3L634.7,269.9z"/>
<path fill="#F19E7C" stroke="#F19E7C" stroke-width="1.51" d="M626.1,242.1l8.5,27.7l7.5-18.1L626.1,242.1z"/>
<path fill="#F19B6A" stroke="#F19B6A" stroke-width="1.51" d="M626.1,242.1l16,9.6l-1.1-35.2L626.1,242.1z"/>
<path fill="#EB9A83" stroke="#EB9A83" stroke-width="1.51" d="M634.7,269.9l5.3-1.1l2.1-17.1L634.7,269.9z"/>
</svg>
