<?xml version="1.0" encoding="UTF-8"?>
<?xml-stylesheet href="../css/style.css" type="text/css"?>
<svg id="design-tab" xmlns="http://www.w3.org/2000/svg" viewBox="0 0 500 300"><path class="design-bg" fill="rgba(255,255,255,0)" d="M0 0h500v299.9H0z"/><circle class="design-sun" fill="#ffe082" r="100"/><g class="design-triangle-group"><path fill="#22B573" d="M0 300v-73l114.2 73"/><path fill="#B2DB4D" d="M114.2 300l39.1-30.1 88.4 30"/><path fill="#FFE820" d="M241.7 300l54.3-30 40.3 30"/><path fill="#FFC522" d="M336.3 300l66.2-41.9 52.1 41.9"/><path fill="#FF7122" d="M454.6 299.9H500V210"/><polygon class="design-shadow" fill="#AEC64A" points="153.3 269.9 153.3 300 241.7 300 "/><polygon class="design-shadow" fill="#F2D422" points="296 270 296 299.9 336.3 300 "/><polygon class="design-shadow" fill="#F2B622" points="402.5 258.1 402.5 300 454.6 299.9 "/></g><g class="forest"><polygon fill="#58A824" points="13.1 299.2 43.9 220.8 74.8 299.2 "/><polygon fill="#58A824" points="53.6 299.2 84.4 228.7 115.3 299.2 "/><polygon fill="#58A824" points="84.1 299.2 114.9 212.6 145.7 299.2 "/><polygon fill="#58A824" points="121.9 299.2 152.7 237.2 183.6 299.2 "/><polygon fill="#58A824" points="160.3 299.2 191.1 223.5 222 299.2 "/><polygon fill="#58A824" points="205.9 299.2 236.8 216.8 267.6 299.2 "/><polygon fill="#58A824" points="260 299.2 290.9 228.7 321.7 299.2 "/><polygon fill="#58A824" points="308 299.2 338.8 212.6 369.6 299.2 "/><polygon fill="#58A824" points="362.5 299.2 393.4 237.2 424.2 299.2 "/><polygon fill="#58A824" points="403.8 299.2 434.6 228.7 465.5 299.2 "/><polygon fill="#58A824" points="437 299.2 467.9 210.7 498.7 299.2 "/></g><g><path fill="#FFF" stroke="#B3B3B3" stroke-miterlimit="10" d="M379.1 32.1H120.9c-5.1 0-9.2 4.1-9.2 9.2v217.4c0 5.1 4.1 9.2 9.2 9.2H379c5.1 0 9.2-4.1 9.2-9.2V41.3c0.1-5.1-4.1-9.2-9.1-9.2z"/><path fill="#CCC" d="M120.9 36.9H379c2.4 0 4.4 2 4.4 4.4v8.5H208c-1.3 0-2.4 1.1-2.4 2.4 0 1.3 1.1 2.4 2.4 2.4h175.4v10.5H116.5V41.3c0-2.4 2-4.4 4.4-4.4z"/><path fill="#E6E6E6" d="M379.1 263.1H120.9c-2.4 0-4.4-2-4.4-4.4v-9.3h266.9v9.3c0.1 2.4-1.9 4.4-4.3 4.4z"/><path fill="#F2F2F2" stroke="#CCC" stroke-miterlimit="10" d="M116.5 70.5h266.9v173H116.5z"/><circle fill="#D8505B" cx="132.1" cy="51.8" r="6.8"/><path class="cloud" fill="#FDFDFD" d="M498.3 62.2c0-7.8-6.3-14.1-14.1-14.1 -0.8 0-1.6 0.1-2.4 0.2 0.2-0.9 0.3-1.8 0.3-2.8 0-6.6-5.4-12-12-12 -3.5 0-6.7 1.5-8.9 3.9 0-0.1 0-0.2 0-0.3 0-5.5-4.4-9.9-9.9-9.9 -4.5 0-8.3 3-9.5 7.2 -2.7-2.5-6.3-4.1-10.3-4.1 -7.7 0-14 5.7-14.9 13 -0.1 0-0.1 0-0.2 0 -7.8 0-14.1 6.3-14.1 14.1 0 5.3 3 9.9 7.3 12.3 -1.4 2.4-2.1 5.3-2.1 8.2 0 9.3 7.6 16.9 16.9 16.9 3.8 0 7.3-1.2 10.2-3.4 0.4 6.3 5.6 11.2 11.9 11.2 6.6 0 12-5.4 12-12 0-0.1 0-0.1 0-0.2 3 4.2 8 7 13.5 7 9.2 0 16.7-7.4 16.7-16.7 0-1.8-0.3-3.6-0.8-5.2C494 74.1 498.3 68.6 498.3 62.2z"/><circle fill="#F7931E" cx="150.1" cy="51.8" r="6.8"/><circle fill="#22B573" cx="168.1" cy="51.8" r="6.8"/><path class="design-tab-triangle" fill="rgba(255,255,255,0)" stroke="#4D4D4D" stroke-miterlimit="10" d="M197.8 196.5L250 106l52.2 90.5z"/><g class="rr-letter" fill="none" stroke="#595651" stroke-miterlimit="10"><path d="M229.8 112.9l4.7 5.4 4.6-5.4h-9.3z"/><path d="M234.5 118.4l-4.7 13.1v-18.6l4.7 5.5c0-0.1 0 0 0 0zM234.5 118.4l4.6 13.1v-18.6l-4.6 5.5c0-0.1 0 0 0 0z"/><path d="M229.8 131.6h9.3l-4.6-13.2-4.7 13.2zM229.8 131.6l4.7 5.9 4.6-5.9h-9.3zM234.5 137.5l4.6 7.3v-13.2l-4.6 5.9z"/><path d="M234.5 137.5l-4.7-5.9v14.9l4.7-9zM229.8 146.6l9.3-1.7-4.6-7.3-4.7 9z"/><path d="M229.8 146.6l4.7 4.2 4.6-5.9-9.3 1.7zM234.5 150.8l-4.7 13.4v-17.6l4.7 4.2zM234.5 150.8l4.6 13.4v-19.3l-4.6 5.9z"/><path d="M234.4 150.9l-4.7 13.5h9.3l-4.6-13.5c0.1 0 0.1 0 0 0zM239.1 122.2l5.1 1.1-5.1 8.2v-9.3z"/><path d="M244.2 123.4l2.5-6.2-7.6 5.1 5.1 1.1z"/><path d="M244.2 123.4l4.8 1.6-9.8 6.6 5-8.2z"/><path d="M244.2 123.4l2.5-6.2 2.2 7.8-4.7-1.6zM246.8 117.1l6.3-4.2-2.2 5.4-4.1-1.2zM251 118.4l-1.9 6.6-2.2-7.8 4.1 1.2zM251 118.4l2.2 3.8V113l-2.2 5.4c0-0.1 0 0 0 0z"/><path d="M251 118.4l-1.9 6.5 4.1-2.7-2.2-3.8zM256 112.4l4.7 5.4 4.6-5.4H256s-0.1 0 0 0z"/><path d="M260.6 117.9L256 131v-18.6l4.6 5.5zM260.6 117.9l4.6 13.1v-18.6l-4.6 5.5z"/><path d="M256 131.1h9.3l-4.6-13.2-4.7 13.2c-0.1 0-0.1 0 0 0zM256 131.1l4.7 5.9 4.6-5.9H256s-0.1 0 0 0z"/><path d="M260.6 137.1l4.6 7.3v-13.2l-4.6 5.9zM260.6 137l-4.7-5.9V146l4.7-9c0 0.1 0 0.1 0 0z"/><path d="M256 146.1l9.3-1.7-4.6-7.3-4.7 9c-0.1 0 0 0 0 0z"/><path d="M256 146.2l4.7 4.2 4.6-5.9-9.3 1.7c0-0.1-0.1-0.1 0 0zM260.6 150.4l-4.7 13.4v-17.6l4.7 4.2c0-0.1 0 0 0 0z"/><path d="M260.6 150.4l4.6 13.4v-19.3l-4.6 5.9c0-0.1 0 0 0 0zM260.6 150.4l-4.7 13.5h9.3l-4.6-13.5zM265.3 121.8l5.1 1.1-5.1 8.2v-9.3z"/><path d="M270.4 122.9l2.5-6.2-7.6 5.1 5.1 1.1z"/><path d="M270.4 122.9l4.8 1.6-9.8 6.6 5-8.2z"/><path d="M270.4 122.9l2.5-6.2 2.2 7.8-4.7-1.6zM273 116.6l6.3-4.2-2.2 5.4-4.1-1.2zM277.1 117.9l-1.9 6.6-2.2-7.8 4.1 1.2z"/><path d="M277.1 117.9l2.2 3.8v-9.2l-2.2 5.4z"/><path d="M277.1 117.9l-1.9 6.5 4.1-2.7-2.2-3.8z"/></g></g></svg>