<?xml version="1.0" encoding="UTF-8"?>
<?xml-stylesheet href="../css/style.css" type="text/css"?>
<svg viewBox="0 0 560 1511.6" xmlns="http://www.w3.org/2000/svg"><style>@font-face {font-family: "Geomanist";src: url("../fonts/geomanist-regular-webfont.woff") format("woff"),url("../fonts/geomanist-regular-webfont.ttf") format("truetype");font-weight: normal;font-style: normal;} </style><text transform="matrix(1 0 0 1 24.3418 69)" font-family="'Geomanist'" font-size="48">Development cycle</text><g class="cycle-arrows"><path fill="#FFE082" d="M523.8 77.7c-6.4 6.4-14.9 9.9-24 9.9 -18.7 0-33.9-15.2-33.9-33.9l6.9 6.9c0.5 0.5 1.2 0.5 1.7 0 0.5-0.5 0.5-1.2 0-1.7l-9.2-9.2L456 59c-0.5 0.5-0.5 1.2 0 1.7 0.2 0.2 0.5 0.3 0.8 0.3 0.3 0 0.6-0.1 0.8-0.3l5.8-5.8c0.6 19.5 16.6 35.2 36.2 35.2 9.7 0 18.8-3.8 25.7-10.6 0.5-0.5 0.5-1.2 0-1.7C525 77.2 524.2 77.2 523.8 77.7z"/><path fill="#FFE082" d="M543.6 46.6c-0.5-0.5-1.2-0.5-1.7 0l-5.8 5.8c-0.6-19.5-16.6-35.2-36.2-35.2 -9.7 0-18.8 3.8-25.7 10.6 -0.5 0.5-0.5 1.2 0 1.7 0.5 0.5 1.2 0.5 1.7 0 6.4-6.4 14.9-9.9 24-9.9 18.7 0 33.9 15.2 34 33.9l-6.9-6.9c-0.5-0.5-1.2-0.5-1.7 0 -0.5 0.5-0.5 1.2 0 1.7l9.2 9.2 9.2-9.2C544 47.8 544 47 543.6 46.6z"/></g><g class="complete-arrows"><path class="arrow" fill="#FFE082" d="M154.7 356.6c0-1.4-1.1-2.5-2.5-2.5 -21 0-40.8 8.2-55.7 23.1 -30.1 30.1-30.6 78.7-1.7 109.5l-17.9 0c-0.7 0-1.3 0.3-1.8 0.7 -0.5 0.5-0.7 1.1-0.7 1.8 0 1.4 1.1 2.5 2.5 2.5l28.2 0 0-28.2c0-1.4-1.1-2.5-2.5-2.5 -1.4 0-2.5 1.1-2.5 2.5l0 21.3c-28.7-28.7-28.7-75.4 0-104.1 13.9-13.9 32.4-21.6 52.1-21.6C153.5 359.1 154.7 358 154.7 356.6z"/><path class="arrow" fill="#FFE082" d="M180.7 1051.7c0-1.4-1.1-2.5-2.5-2.5 -21 0-40.8 8.2-55.7 23.1 -30.1 30.1-30.6 78.7-1.7 109.5l-17.9 0c-0.7 0-1.3 0.3-1.8 0.7 -0.5 0.5-0.7 1.1-0.7 1.8 0 1.4 1.1 2.5 2.5 2.5l28.2 0 0-28.2c0-1.4-1.1-2.5-2.5-2.5 -1.4 0-2.5 1.1-2.5 2.5l0 21.3c-28.7-28.7-28.7-75.4 0-104.1 13.9-13.9 32.4-21.6 52.1-21.6C179.6 1054.2 180.7 1053.1 180.7 1051.7z"/><path class="arrow" fill="#FFE082" d="M412.2 707.2c19.7 0 38.2 7.7 52.1 21.6 28.7 28.7 28.7 75.4 0 104.1l0-21.3c0-1.4-1.1-2.5-2.5-2.5 -1.4 0-2.5 1.1-2.5 2.5l0 28.2 28.2 0c1.4 0 2.5-1.1 2.5-2.5 0-0.7-0.3-1.3-0.7-1.8 -0.5-0.5-1.1-0.7-1.8-0.7l-17.9 0c29-30.8 28.5-79.4-1.7-109.5 -14.9-14.9-34.7-23.1-55.7-23.1 -1.4 0-2.5 1.1-2.5 2.5C409.6 706.1 410.8 707.2 412.2 707.2z"/></g><g class="thinking-gm"><g class="bulb"><circle class="bulb-light-m" fill="rgba(255,255,255,0)" cx="278" cy="225.6" r="43.3"/><path fill="#4D4D4D" d="M278 182.4c-21 0-43.7 16.7-43.7 43.7 0 13.3 5.3 24.5 15.5 33 0.1 0.1 0.2 0.3 0.4 0.3 7.5 8.2 7.9 9.7 8 13.3 0 1.4 0 1.8 0 2.1l0 0.8c-0.1 1.8-0.2 4.8 3.6 5.9l32.1 7.1c0.1 0 0.3 0 0.4 0 0.9 0 1.7-0.6 1.9-1.6 0.2-1.1-0.4-2.1-1.5-2.4l-32-7c-0.6-0.2-0.7-0.2-0.6-2l0-0.8c0 0 0-0.3 0-2.3 -0.1-5-1.2-7.5-9.2-16.1 -0.2-0.2-0.3-0.3-0.5-0.5 -9.4-8-14.1-18.1-14.1-30.1 0-24.5 20.6-39.7 39.7-39.7 19.5 0 39.7 14.9 39.7 39.7 0 15.8-7.7 24.5-14 30 -0.2 0.1-0.4 0.3-0.6 0.4 -8.1 8.8-9.2 11.2-9.3 16.2 0 0.1 0 0.3 0 0.4l0 0.1c0 0.3-0.1 0.5-0.1 0.5 -0.1 0-0.5-0.1-0.5-0.1l-16.7-3.9c-1.1-0.2-2.1 0.4-2.4 1.5 -0.3 1.1 0.4 2.1 1.5 2.4l16.5 3.9c0.2 0.1 2.2 0.7 3.9-0.4 0.7-0.5 1.6-1.5 1.7-3.4l0-0.2c0-0.1 0-0.3 0-0.4 0 0 0-0.1 0-0.1l0-0.2c0.1-3.6 0.4-5.1 8-13.3 0 0 0.1-0.1 0.1-0.1 10.6-8.9 15.7-19.8 15.7-33.3C321.7 198.7 299.5 182.4 278 182.4z"/><path fill="#444444" d="M293.9 299.5c0.9 0 1.7-0.6 1.9-1.5 0.2-1.1-0.4-2.1-1.5-2.4l-31.8-7.2c-1.1-0.2-2.1 0.4-2.4 1.5 -0.2 1.1 0.4 2.1 1.5 2.4l31.8 7.2C293.6 299.5 293.7 299.5 293.9 299.5z"/><path fill="#444444" d="M264.5 299.7c-1.1-0.2-2.1 0.4-2.4 1.5 -0.2 1.1 0.4 2.1 1.5 2.4l25.8 5.8c0.2 0 0.3 0.1 0.4 0.1 0.9 0 1.7-0.6 1.9-1.6 0.2-1.1-0.4-2.1-1.5-2.4C290.3 305.5 264.5 299.7 264.5 299.7z"/></g><text transform="matrix(1 0 0 1 195 364.3332)" fill="#444444" font-family="'Geomanist'" font-size="48" stroke="#444444" stroke-width="0">thinking</text><g class="circles-m"><circle fill="rgba(255,255,255,0)" cx="98.2" cy="222.7" r="23.2"/><circle fill="rgba(255,255,255,0)" cx="413.3" cy="218.7" r="24.3"/><circle fill="rgba(255,255,255,0)" cx="444" cy="301.5" r="15"/><circle fill="rgba(255,255,255,0)" cx="168.3" cy="274.3" r="9.3"/><circle fill="rgba(255,255,255,0)" cx="200.7" cy="161" r="12"/><circle fill="rgba(255,255,255,0)" cx="302.5" cy="140" r="9"/></g></g><g class="sketch-gm"><g class="ruler-m"><path fill="#444444" d="M316 533.7c0-1.5-1.2-2.7-2.7-2.7h-32.6c-1.5 0-2.7 1.2-2.7 2.7v124.6c0 1.5 1.2 2.7 2.7 2.7h32.6c1.5 0 2.7-1.2 2.7-2.7V533.7z"/><path class="ruler-fill-m" fill="#FFFFFF" d="M310 656h-27v-16h9.1c1.5 0 2.7-1 2.7-2.5s-1.2-2.5-2.7-2.5H283v-17h9.1c1.5 0 2.7-1 2.7-2.5s-1.2-2.5-2.7-2.5H283v-16h9.1c1.5 0 2.7-1.5 2.7-3s-1.2-3-2.7-3H283v-16h9.1c1.5 0 2.7-1 2.7-2.5s-1.2-2.5-2.7-2.5H283v-17h9.1c1.5 0 2.7-1 2.7-2.5s-1.2-2.5-2.7-2.5H283v-11h27V656z"/></g><g class="pencil-m"><path fill="#444444" d="M255.7 661.1c-7.5 0-13.6-6.1-13.6-13.6v-73.4c0-0.4 0.1-0.8 0.2-1.1l10.9-24.5c0.9-2 4.1-2 5 0L269 573c0.2 0.3 0.2 0.7 0.2 1.1v73.4C269.2 655 263.2 661.1 255.7 661.1z"/><g class="pen-fill-m"><path fill="#FFFFFF" d="M247.5 644.8v2.7c0 4.5 3.7 8.2 8.2 8.2s8.2-3.7 8.2-8.2v-2.7H247.5z"/><polygon fill="#FFFFFF" points="247.5 639.3 263.8 639.3 263.8 633.9 247.5 633.9 247.5 639.3 "/><polygon fill="#FFFFFF" points="247.5 628.5 263.8 628.5 263.8 574.7 255.7 556.3 247.5 574.7 247.5 628.5 "/></g><path fill="#444444" d="M255.7 633.9c-1.5 0-2.7-1.2-2.7-2.7v-54.4h-8.2c-1.5 0-2.7-1.2-2.7-2.7s1.2-2.7 2.7-2.7h21.7c1.5 0 2.7 1.2 2.7 2.7s-1.2 2.7-2.7 2.7h-8.2v54.4C258.4 632.7 257.2 633.9 255.7 633.9z"/></g><g class="triangles-m"><polygon fill="rgba(0,0,0,0)" points="54.9 605.5 98.2 530.5 141.5 605.5 "/><polygon fill="rgba(0,0,0,0)" points="158.4 532.5 184.2 487.8 210 532.5 "/><polygon fill="rgba(0,0,0,0)" points="363.4 627.5 389.2 582.8 415 627.5 "/><polygon fill="rgba(0,0,0,0)" points="380.1 540.5 415.2 479.8 450.3 540.5 "/><polygon fill="rgba(0,0,0,0)" points="444.1 598.5 479.2 537.8 514.3 598.5 "/></g><text transform="matrix(1 0 0 1 177.5907 717.5621)" fill="#444444" font-family="'Geomanist'" font-size="48">designing</text></g><g class="code-gm"><path fill="#444444" d="M358 880.1H209.9c-5.1 0-9.2 4.1-9.2 9.2v101.8c0 5.1 4.1 9.2 9.2 9.2H358c5.1 0 9.2-4.1 9.2-9.2V889.4C367.2 884.3 363.1 880.1 358 880.1z"/><path fill="#FFFFFF" d="M209.9 886.9H358c1.3 0 2.4 1.1 2.4 2.4v10.5h-153v-10.5C207.4 888 208.5 886.9 209.9 886.9z"/><path class="coding-inner-m" fill="#fff" d="M358 993.6H209.9c-1.3 0-2.4-1.1-2.4-2.4v-84.5h153v84.5C360.4 992.5 359.3 993.6 358 993.6z"/><path fill="#444444" d="M264.6 928.5c-1.3-1.3-3.5-1.3-4.8 0l-15.4 15.4c-0.6 0.6-1 1.5-1 2.4 0 0.9 0.4 1.8 1 2.4l15.4 15.4c0.7 0.7 1.5 1 2.4 1s1.7-0.3 2.4-1c1.3-1.3 1.3-3.5 0-4.8l-12.9-12.9 12.9-12.9C265.9 932 265.9 929.8 264.6 928.5z"/><path fill="#444444" d="M305.7 928.5c-1.3-1.3-3.5-1.3-4.8 0 -1.3 1.3-1.3 3.5 0 4.8l12.9 12.9 -12.9 12.9c-1.3 1.3-1.3 3.5 0 4.8 0.7 0.7 1.5 1 2.4 1 0.9 0 1.7-0.3 2.4-1l15.4-15.4c0.6-0.6 1-1.5 1-2.4s-0.4-1.8-1-2.4L305.7 928.5z"/><path class="coding-line-m" fill="#444444" d="M292.3 927.9c-1.7-0.8-3.7-0.2-4.6 1.5l-16.1 31.8c-0.8 1.7-0.2 3.7 1.5 4.6 0.5 0.2 1 0.4 1.5 0.4 1.2 0 2.4-0.7 3-1.9l16.1-31.8C294.6 930.8 294 928.7 292.3 927.9z"/><text transform="matrix(1 0 0 1 213.5205 1060.9164)" fill="#444444" font-family="'Geomanist'" font-size="48">coding</text><g class="oct-m"><polygon fill="rgba(0,0,0,0)" points="45.6 947.5 27.4 891.4 75 856.7 122.6 891.4 104.4 947.5 "/><polygon fill="rgba(0,0,0,0)" points="100.3 1004 112.6 982.1 137.2 987 140.1 1012 117.2 1022.5 "/><polygon fill="rgba(0,0,0,0)" points="397.2 930.4 417.2 895 457.1 902.9 461.7 943.3 424.7 960.3 "/><polygon fill="rgba(0,0,0,0)" points="442.8 995.8 490.7 982.4 518.3 1023.7 487.3 1062.6 440.7 1045.3 "/></g></g><g class="cloud-gm"><g class="deploying-cloud-m"><path class="cloud-area-m" fill="rgba(255,255,255,0)" stroke="#444444" stroke-width="6" stroke-miterlimit="10" d="M301.7 1322.2h37.6c20.6 0 37.4-16.8 37.4-37.4 0-22.9-20.8-41.1-44.3-36.8 -6.8-11.3-18.9-18.2-32.1-18.2 -3 0-6.1 0.4-9 1.1 -6.6-11.9-19-19.2-32.7-19.2 -20.1 0-36.6 16-37.4 36.1 -18.3 2.7-32 18.3-32 37 0 20.6 16.8 37.4 37.4 37.4h37.4"/><polygon class="cloud-arrow-m" fill="#444444" stroke="#444444" stroke-width="3" stroke-miterlimit="10" points="315.2 1310.5 283.1 1278.4 251 1310.5 253.5 1313.1 281.3 1285.3 281.3 1362.5 284.9 1362.5 284.9 1285.3 312.7 1313.1 "/></g><text transform="matrix(1 0 0 1 182.5002 1419.5779)" fill="#444444" font-family="'Geomanist'" font-size="48">deploying</text><g class="rect-m"><rect x="85" y="1217.5" fill="#FFFFFF" width="37.6" height="25.5"/><rect x="85" y="1287" fill="#FFFFFF" width="56.5" height="66"/><rect x="389" y="1209" fill="#FFFFFF" width="40" height="34"/><rect x="479.2" y="1295" fill="#FFFFFF" width="49.8" height="58"/><rect x="415.2" y="1320" fill="#FFFFFF" width="35.1" height="33"/></g></g></svg>