<?xml version="1.0" encoding="utf-8"?>
<!-- Generator: Adobe Illustrator 18.0.0, SVG Export Plug-In . SVG Version: 6.00 Build 0)  -->
<!DOCTYPE svg PUBLIC "-//W3C//DTD SVG 1.1//EN" "http://www.w3.org/Graphics/SVG/1.1/DTD/svg11.dtd">
<svg version="1.1" id="Layer_1" xmlns="http://www.w3.org/2000/svg" xmlns:xlink="http://www.w3.org/1999/xlink" x="0px" y="0px"
	 viewBox="0 0 841.9 379.3" enable-background="new 0 0 841.9 379.3" xml:space="preserve">
<g id="low-triangles">
	<polygon fill="#6D6EAA" stroke="#46433E" stroke-width="2" stroke-miterlimit="10" points="841.9,381 751.1,293.2 841.9,237.2 	"/>
	<polygon fill="none" stroke="#46433E" stroke-width="2" stroke-miterlimit="10" points="689.6,337.1 574.9,293.2 557.6,381 	"/>
	<polygon fill="#9CC991" stroke="#46433E" stroke-width="2" stroke-miterlimit="10" points="557.6,381 361.9,381 435.4,293.2 	"/>
	<polygon fill="#95C9AE" stroke="#46433E" stroke-width="2" stroke-miterlimit="10" points="574.9,293.2 435.4,293.2 557.6,381 	"/>
	<polygon fill="#B7D596" stroke="#46433E" stroke-width="2" stroke-miterlimit="10" points="435.4,293.2 314.4,257.5 361.9,381 	"/>
	<polygon fill="#D9E59C" stroke="#46433E" stroke-width="2" stroke-miterlimit="10" points="361.9,381 176.4,381 314.4,257.5 	"/>
	<polygon fill="#7877AF" stroke="#46433E" stroke-width="2" stroke-miterlimit="10" points="751.1,293.2 841.9,381 689.6,337.1 	"/>
	<path fill="none" stroke="#46433E" stroke-width="2" stroke-miterlimit="10" d="M689.6,276"/>
	<polygon fill="none" stroke="#46433E" stroke-width="2" stroke-miterlimit="10" points="176.4,381 95.9,306.5 197.9,276 	"/>
	<polygon fill="#F7F2A2" stroke="#46433E" stroke-width="2" stroke-miterlimit="10" points="314.4,257.5 197.9,276 176.4,381 	"/>
	<polygon fill="#F1D578" stroke="#46433E" stroke-width="2" stroke-miterlimit="10" points="95.9,306.5 197.9,276 176.4,181.8 	"/>
	<polygon fill="#EEEB7A" stroke="#46433E" stroke-width="2" stroke-miterlimit="10" points="176.4,381 0,381 95.9,306.5 	"/>
	<polygon fill="#EDC47A" stroke="#46433E" stroke-width="2" stroke-miterlimit="10" points="95.9,306.5 0,98.3 0,381 	"/>
	<polygon fill="#E29277" stroke="#46433E" stroke-width="2" stroke-miterlimit="10" points="176.4,181.8 0,98.3 95.9,306.5 	"/>
	<polygon fill="#DD7D6D" stroke="#46433E" stroke-width="2" stroke-miterlimit="10" points="176.4,181.8 159.9,70 0,98.3 	"/>
	<polygon fill="#DB7274" stroke="#46433E" stroke-width="2" stroke-miterlimit="10" points="76.8,84.7 0,0 0,98.3 	"/>
	<polygon fill="#6CA9E0" stroke="#46433E" stroke-width="2" stroke-miterlimit="10" points="751.1,293.2 574.9,293.2 689.6,337.1 	
		"/>
	<polygon fill="#6DA0D8" stroke="#46433E" stroke-width="2" stroke-miterlimit="10" points="841.9,381 689.6,337.1 557.6,381 	"/>
	<polygon fill="#75C1D5" stroke="#46433E" stroke-width="2" stroke-miterlimit="10" points="557.6,381 689.6,337.1 574.9,293.2 	"/>
	<polygon fill="#EEEB7A" stroke="#46433E" stroke-width="2" stroke-miterlimit="10" points="176.4,381 197.9,276 95.9,306.5 	"/>
</g>
</svg>
