<svg xmlns="http://www.w3.org/2000/svg" width="1920" height="1080"><path d="M-53-238l511-8 376-10z" fill="#ffedb2" stroke="#ffedb2" stroke-width="1.51"/><path d="M932 1317l-207 23 495 4z" fill="#b35e17" stroke="#b35e17" stroke-width="1.51"/><path d="M834-256l325 8 342 4z" fill="#ffbe7f" stroke="#ffbe7f" stroke-width="1.51"/><path d="M1582 1321l-106 15 262-23z" fill="#993806" stroke="#993806" stroke-width="1.51"/><path d="M834-256l667 12h434z" fill="#f7ae77" stroke="#f7ae77" stroke-width="1.51"/><path d="M1501-244l132 38 302-38z" fill="#e49f6f" stroke="#e49f6f" stroke-width="1.51"/><path d="M2032-221l-75 152 140 45z" fill="#c28f5f" stroke="#c28f5f" stroke-width="1.51"/><path d="M2086 522l-195 113 210 106z" fill="#b75812" stroke="#b75812" stroke-width="1.51"/><path d="M2048 807l31 137 22-203z" fill="#a84409" stroke="#a84409" stroke-width="1.51"/><path d="M1738 1313l-262 23 636-35z" fill="#8c3206" stroke="#8c3206" stroke-width="1.51"/><path d="M1905 1284l-167 29 374-12z" fill="#822e06" stroke="#822e06" stroke-width="1.51"/><path d="M2055 1122l-108 68 165 111z" fill="#832e06" stroke="#832e06" stroke-width="1.51"/><path d="M2079 944l-24 178 57 179z" fill="#8a3006" stroke="#8a3006" stroke-width="1.51"/><path d="M2101 741l-22 203 33 357z" fill="#973706" stroke="#973706" stroke-width="1.51"/><path d="M1982 232l-67 117 219 66z" fill="#be7729" stroke="#be7729" stroke-width="1.51"/><path d="M2086 522l15 219 33-326z" fill="#b35d16" stroke="#b35d16" stroke-width="1.51"/><path d="M2101 741l11 560 22-886z" fill="#a5440a" stroke="#a5440a" stroke-width="1.51"/><path d="M1982 232l152 183 2-223z" fill="#b87831" stroke="#b87831" stroke-width="1.51"/><path d="M2092 86l-110 146 154-40z" fill="#bb8142" stroke="#bb8142" stroke-width="1.51"/><path d="M2097-24l-5 110 44 106z" fill="#b8844c" stroke="#b8844c" stroke-width="1.51"/><path d="M1915 349l171 173 48-107z" fill="#bb6c20" stroke="#bb6c20" stroke-width="1.51"/><path d="M2048 807l-65 41 96 96z" fill="#a94208" stroke="#a94208" stroke-width="1.51"/><path d="M1922 970l133 152 24-178z" fill="#9d3805" stroke="#9d3805" stroke-width="1.51"/><path d="M1915 349l-19 162 190 11z" fill="#c26c1e" stroke="#c26c1e" stroke-width="1.51"/><path d="M1981 87l1 145 110-146z" fill="#c08548" stroke="#c08548" stroke-width="1.51"/><path d="M1981 87l111-1 5-110z" fill="#bd8850" stroke="#bd8850" stroke-width="1.51"/><path d="M1947 1190l-42 94 207 17z" fill="#812d06" stroke="#812d06" stroke-width="1.51"/><path d="M1957-69l24 156 116-111z" fill="#c28c55" stroke="#c28c55" stroke-width="1.51"/><path d="M1891 635l157 172 53-66z" fill="#b44f0d" stroke="#b44f0d" stroke-width="1.51"/><path d="M1896 511l-5 124 195-113z" fill="#c16215" stroke="#c16215" stroke-width="1.51"/><path d="M1983 848l-61 122 157-26z" fill="#a93f06" stroke="#a93f06" stroke-width="1.51"/><path d="M1935-244l22 175 75-152z" fill="#c89266" stroke="#c89266" stroke-width="1.51"/><path d="M1891 635l92 213 65-41z" fill="#b64d0c" stroke="#b64d0c" stroke-width="1.51"/><path d="M1922 970l25 220 108-68z" fill="#973405" stroke="#973405" stroke-width="1.51"/><path d="M1922 970l-134 153 159 67z" fill="#9e3704" stroke="#9e3704" stroke-width="1.51"/><path d="M1780-98l-10 240 187-211z" fill="#d39357" stroke="#d39357" stroke-width="1.51"/><path d="M1935-244l-94 74 116 101z" fill="#ce9465" stroke="#ce9465" stroke-width="1.51"/><path d="M1957-69l-187 211 211-55z" fill="#cc8d50" stroke="#cc8d50" stroke-width="1.51"/><path d="M1770 142l50 111 161-166z" fill="#cf8944" stroke="#cf8944" stroke-width="1.51"/><path d="M1981 87l-161 166 162-21z" fill="#c8843f" stroke="#c8843f" stroke-width="1.51"/><path d="M1820 253l95 96 67-117z" fill="#c97f32" stroke="#c97f32" stroke-width="1.51"/><path d="M1838 879l84 91 61-122z" fill="#b14306" stroke="#b14306" stroke-width="1.51"/><path d="M1891 635l-53 244 145-31z" fill="#bb4d0a" stroke="#bb4d0a" stroke-width="1.51"/><path d="M1736 687l102 192 53-244z" fill="#c5550c" stroke="#c5550c" stroke-width="1.51"/><path d="M1840 592l51 43 5-124z" fill="#c86213" stroke="#c86213" stroke-width="1.51"/><path d="M1797 991l-9 132 134-153z" fill="#ab3c04" stroke="#ab3c04" stroke-width="1.51"/><path d="M1633-206l208 36 94-74z" fill="#d9996b" stroke="#d9996b" stroke-width="1.51"/><path d="M1841-170l-61 72 177 29z" fill="#d39561" stroke="#d39561" stroke-width="1.51"/><path d="M1761 381l135 130 19-162z" fill="#cc7422" stroke="#cc7422" stroke-width="1.51"/><path d="M1788 1123l117 161 42-94z" fill="#923205" stroke="#923205" stroke-width="1.51"/><path d="M1838 879l-41 112 125-21z" fill="#b34103" stroke="#b34103" stroke-width="1.51"/><path d="M1788 1123l-50 190 167-29z" fill="#923305" stroke="#923305" stroke-width="1.51"/><path d="M1820 253l-59 128 154-32z" fill="#cf7e2a" stroke="#cf7e2a" stroke-width="1.51"/><path d="M1840 592l-104 95 155-52z" fill="#ca5e11" stroke="#ca5e11" stroke-width="1.51"/><path d="M1761 381l79 211 56-81z" fill="#ce6d1a" stroke="#ce6d1a" stroke-width="1.51"/><path d="M1682-59l88 201 10-240z" fill="#db9758" stroke="#db9758" stroke-width="1.51"/><path d="M1682-59l-33 124 121 77z" fill="#df9753" stroke="#df9753" stroke-width="1.51"/><path d="M1736 687l-104 28 206 164z" fill="#cc560a" stroke="#cc560a" stroke-width="1.51"/><path d="M1632 715l-37 174 243-10z" fill="#ca5207" stroke="#ca5207" stroke-width="1.51"/><path d="M1761 381l-121 155 200 56z" fill="#d56f1a" stroke="#d56f1a" stroke-width="1.51"/><path d="M1633-206l147 108 61-72z" fill="#dd9b67" stroke="#dd9b67" stroke-width="1.51"/><path d="M1633 955l164 36 41-112z" fill="#bc4504" stroke="#bc4504" stroke-width="1.51"/><path d="M1640 536l96 151 104-95z" fill="#d26512" stroke="#d26512" stroke-width="1.51"/><path d="M1595 889l38 66 205-76z" fill="#c44b04" stroke="#c44b04" stroke-width="1.51"/><path d="M1770 142l-115 95 165 16z" fill="#d88a3e" stroke="#d88a3e" stroke-width="1.51"/><path d="M1655 237l106 144 59-128z" fill="#d78431" stroke="#d78431" stroke-width="1.51"/><path d="M1597 1132l141 181 50-190z" fill="#a23904" stroke="#a23904" stroke-width="1.51"/><path d="M1633 955l-36 177 191-9z" fill="#b44003" stroke="#b44003" stroke-width="1.51"/><path d="M1633 955l155 168 9-132z" fill="#b34004" stroke="#b34004" stroke-width="1.51"/><path d="M1633-206l49 147 98-39z" fill="#e19d64" stroke="#e19d64" stroke-width="1.51"/><path d="M1655 237l-58 104 164 40z" fill="#dd862d" stroke="#dd862d" stroke-width="1.51"/><path d="M1597 1132l-15 189 156-8z" fill="#9f3905" stroke="#9f3905" stroke-width="1.51"/><path d="M1597 341l43 195 121-155z" fill="#dd7c22" stroke="#dd7c22" stroke-width="1.51"/><path d="M1649 65l6 172 115-95z" fill="#de9248" stroke="#de9248" stroke-width="1.51"/><path d="M1640 536l-8 179 104-28z" fill="#d76410" stroke="#d76410" stroke-width="1.51"/><path d="M1520 683l112 32 8-179z" fill="#de6711" stroke="#de6711" stroke-width="1.51"/><path d="M1649 65l-130 62 136 110z" fill="#e6964a" stroke="#e6964a" stroke-width="1.51"/><path d="M1519 127l18 111 118-1z" fill="#e89341" stroke="#e89341" stroke-width="1.51"/><path d="M1507-29l142 94 33-124z" fill="#e89d5a" stroke="#e89d5a" stroke-width="1.51"/><path d="M1633-206L1507-29l175-30z" fill="#eaa163" stroke="#eaa163" stroke-width="1.51"/><path d="M1536 877l59 12 37-174z" fill="#d35607" stroke="#d35607" stroke-width="1.51"/><path d="M1457 1024l140 108 36-177z" fill="#c14703" stroke="#c14703" stroke-width="1.51"/><path d="M1501-244l6 215 126-177z" fill="#efa56b" stroke="#efa56b" stroke-width="1.51"/><path d="M1597 341l-131 145 174 50z" fill="#e67c1f" stroke="#e67c1f" stroke-width="1.51"/><path d="M1537 238l60 103 58-104z" fill="#e58d36" stroke="#e58d36" stroke-width="1.51"/><path d="M1520 683l16 194 96-162z" fill="#db5d0a" stroke="#db5d0a" stroke-width="1.51"/><path d="M1507-29l12 156 130-62z" fill="#ec9d55" stroke="#ec9d55" stroke-width="1.51"/><path d="M1444 410l22 76 131-145z" fill="#ea8525" stroke="#ea8525" stroke-width="1.51"/><path d="M1438 1157l144 164 15-189z" fill="#ad4005" stroke="#ad4005" stroke-width="1.51"/><path d="M1466 486l54 197 120-147z" fill="#e57115" stroke="#e57115" stroke-width="1.51"/><path d="M1595 889l-59-12 97 78z" fill="#cd4f03" stroke="#cd4f03" stroke-width="1.51"/><path d="M1536 877l-79 147 176-69z" fill="#cd4d02" stroke="#cd4d02" stroke-width="1.51"/><path d="M1438 1157l38 179 106-15z" fill="#a73f06" stroke="#a73f06" stroke-width="1.51"/><path d="M1537 238l-93 172 153-69z" fill="#e98c2c" stroke="#e98c2c" stroke-width="1.51"/><path d="M1457 1024l-19 133 159-25z" fill="#bc4705" stroke="#bc4705" stroke-width="1.51"/><path d="M1438 1157l-63 128 101 51z" fill="#ac4408" stroke="#ac4408" stroke-width="1.51"/><path d="M1159-248l191 85 151-81z" fill="#fbb277" stroke="#fbb277" stroke-width="1.51"/><path d="M1501-244l-151 81 157 134z" fill="#f4ab6c" stroke="#f4ab6c" stroke-width="1.51"/><path d="M1507-29L1370 98l149 29z" fill="#f0a256" stroke="#f0a256" stroke-width="1.51"/><path d="M1466 486l-88 77 142 120z" fill="#e97617" stroke="#e97617" stroke-width="1.51"/><path d="M1322 973l135 51 79-147z" fill="#d25305" stroke="#d25305" stroke-width="1.51"/><path d="M1520 683l-182 17 198 177z" fill="#e0640d" stroke="#e0640d" stroke-width="1.51"/><path d="M1338 700l-51 190 249-13z" fill="#df620d" stroke="#df620d" stroke-width="1.51"/><path d="M1519 127l-162 103 180 8z" fill="#e94" stroke="#e94" stroke-width="1.51"/><path d="M1357 230l87 180 93-172z" fill="#ee9335" stroke="#ee9335" stroke-width="1.51"/><path d="M1287 890l35 83 214-96z" fill="#d85b08" stroke="#d85b08" stroke-width="1.51"/><path d="M1357 230l-22 138 109 42z" fill="#f09430" stroke="#f09430" stroke-width="1.51"/><path d="M1375 1285l-155 59 256-8z" fill="#a7450b" stroke="#a7450b" stroke-width="1.51"/><path d="M1356-27l14 125 137-127z" fill="#f4a75d" stroke="#f4a75d" stroke-width="1.51"/><path d="M1350-163l6 136 151-2z" fill="#f6ac66" stroke="#f6ac66" stroke-width="1.51"/><path d="M1370 98l-13 132 162-103z" fill="#f1a04e" stroke="#f1a04e" stroke-width="1.51"/><path d="M1378 563l-40 137 182-17z" fill="#e97114" stroke="#e97114" stroke-width="1.51"/><path d="M1345 1153l93 4 19-133z" fill="#c04b07" stroke="#c04b07" stroke-width="1.51"/><path d="M1444 410l-66 153 88-77z" fill="#ed811f" stroke="#ed811f" stroke-width="1.51"/><path d="M1345 1153l30 132 63-128z" fill="#b64908" stroke="#b64908" stroke-width="1.51"/><path d="M1335 368l43 195 66-153z" fill="#f08825" stroke="#f08825" stroke-width="1.51"/><path d="M1322 973l23 180 112-129z" fill="#ca5107" stroke="#ca5107" stroke-width="1.51"/><path d="M834-256l207 37 118-29z" fill="#ffc783" stroke="#ffc783" stroke-width="1.51"/><path d="M1210 791l77 99 51-190z" fill="#e86b12" stroke="#e86b12" stroke-width="1.51"/><path d="M1322 973l-100 24 123 156z" fill="#cf570a" stroke="#cf570a" stroke-width="1.51"/><path d="M1350-163l-168 48 174 88z" fill="#fbb36d" stroke="#fbb36d" stroke-width="1.51"/><path d="M1356-27l-184 89 198 36z" fill="#f9ac5d" stroke="#f9ac5d" stroke-width="1.51"/><path d="M1209 187l148 43 13-132z" fill="#f6a44d" stroke="#f6a44d" stroke-width="1.51"/><path d="M1345 1153l-125 191 155-59z" fill="#b14b0b" stroke="#b14b0b" stroke-width="1.51"/><path d="M1177 555l161 145 40-137z" fill="#f07c1a" stroke="#f07c1a" stroke-width="1.51"/><path d="M1335 368l-158 187 201 8z" fill="#f38823" stroke="#f38823" stroke-width="1.51"/><path d="M1133 427l44 128 158-187z" fill="#f89129" stroke="#f89129" stroke-width="1.51"/><path d="M1209 187l126 181 22-138z" fill="#f69e3f" stroke="#f69e3f" stroke-width="1.51"/><path d="M1172 62l37 125 161-89z" fill="#faac57" stroke="#faac57" stroke-width="1.51"/><path d="M1222 997l-68 132 191 24z" fill="#cb570c" stroke="#cb570c" stroke-width="1.51"/><path d="M1154 1129l66 215 125-191z" fill="#bb510c" stroke="#bb510c" stroke-width="1.51"/><path d="M1182-115l-10 177 184-89z" fill="#fcb366" stroke="#fcb366" stroke-width="1.51"/><path d="M1177 555l-16 166 177-21z" fill="#f17c1a" stroke="#f17c1a" stroke-width="1.51"/><path d="M1159-248l23 133 168-48z" fill="#ffb875" stroke="#ffb875" stroke-width="1.51"/><path d="M1209 187l-76 240 202-59z" fill="#f79e35" stroke="#f79e35" stroke-width="1.51"/><path d="M1161 721l49 70 128-91z" fill="#ed7316" stroke="#ed7316" stroke-width="1.51"/><path d="M1287 890l-65 107 100-24z" fill="#db5d0a" stroke="#db5d0a" stroke-width="1.51"/><path d="M1210 791l12 206 65-107z" fill="#e1650e" stroke="#e1650e" stroke-width="1.51"/><path d="M1017-19l155 81 10-177z" fill="#ffbb6a" stroke="#ffbb6a" stroke-width="1.51"/><path d="M996 252l137 175 76-240z" fill="#fba840" stroke="#fba840" stroke-width="1.51"/><path d="M1027 1276l-95 41 288 27z" fill="#b35913" stroke="#b35913" stroke-width="1.51"/><path d="M1154 1129l-127 147 193 68z" fill="#ba5711" stroke="#ba5711" stroke-width="1.51"/><path d="M1060 1115l94 14 68-132z" fill="#cf5f0f" stroke="#cf5f0f" stroke-width="1.51"/><path d="M991 1001l69 114 162-118z" fill="#d66511" stroke="#d66511" stroke-width="1.51"/><path d="M1210 791l-200 12 212 194z" fill="#e76e13" stroke="#e76e13" stroke-width="1.51"/><path d="M1010 803l-19 198 231-4z" fill="#e36d12" stroke="#e36d12" stroke-width="1.51"/><path d="M458-246l131 25 245-35z" fill="#ffe29a" stroke="#ffe29a" stroke-width="1.51"/><path d="M1172 62l-161 7 198 118z" fill="#fdb45c" stroke="#fdb45c" stroke-width="1.51"/><path d="M1011 69l-15 183 213-65z" fill="#feb455" stroke="#feb455" stroke-width="1.51"/><path d="M1161 721l-151 82 200-12z" fill="#ee7718" stroke="#ee7718" stroke-width="1.51"/><path d="M996 252l27 163 110 12z" fill="#fca637" stroke="#fca637" stroke-width="1.51"/><path d="M1060 1115l-33 161 127-147z" fill="#c55e11" stroke="#c55e11" stroke-width="1.51"/><path d="M1019 553l-36 175 178-7z" fill="#f68620" stroke="#f68620" stroke-width="1.51"/><path d="M1019 553l142 168 16-166z" fill="#f78820" stroke="#f78820" stroke-width="1.51"/><path d="M1133 427l-114 126 158 2z" fill="#fa9227" stroke="#fa9227" stroke-width="1.51"/><path d="M1159-248l-118 29 141 104z" fill="#ffbf7b" stroke="#ffbf7b" stroke-width="1.51"/><path d="M1041-219l-24 200 165-96z" fill="#ffc175" stroke="#ffc175" stroke-width="1.51"/><path d="M1017-19l-6 88 161-7z" fill="#ffbc66" stroke="#ffbc66" stroke-width="1.51"/><path d="M983 728l27 75 151-82z" fill="#f27e1c" stroke="#f27e1c" stroke-width="1.51"/><path d="M1023 415l-4 138 114-126z" fill="#fc9b2d" stroke="#fc9b2d" stroke-width="1.51"/><path d="M911 943l80 58 19-198z" fill="#e87617" stroke="#e87617" stroke-width="1.51"/><path d="M917 63l79 189 15-183z" fill="#ffbd5f" stroke="#ffbd5f" stroke-width="1.51"/><path d="M829 1105l103 212 95-41z" fill="#c16618" stroke="#c16618" stroke-width="1.51"/><path d="M896-95l121 76 24-200z" fill="#ffc777" stroke="#ffc777" stroke-width="1.51"/><path d="M829 1105l198 171 33-161z" fill="#c96515" stroke="#c96515" stroke-width="1.51"/><path d="M991 1001l-162 104 231 10z" fill="#d66c15" stroke="#d66c15" stroke-width="1.51"/><path d="M905 520l-76 145 154 63z" fill="#fa9428" stroke="#fa9428" stroke-width="1.51"/><path d="M905 520l78 208 36-175z" fill="#fb9325" stroke="#fb9325" stroke-width="1.51"/><path d="M996 252l-139-3 166 166z" fill="#ffb142" stroke="#ffb142" stroke-width="1.51"/><path d="M857 249l-26 180 192-14z" fill="#feb03e" stroke="#feb03e" stroke-width="1.51"/><path d="M905 520l114 33 4-138z" fill="#fe9c2d" stroke="#fe9c2d" stroke-width="1.51"/><path d="M834-256l62 161 145-124z" fill="#ffcc82" stroke="#ffcc82" stroke-width="1.51"/><path d="M917 63l-60 186 139 3z" fill="#ffbc58" stroke="#ffbc58" stroke-width="1.51"/><path d="M874 813l37 130 99-140z" fill="#ed7e1c" stroke="#ed7e1c" stroke-width="1.51"/><path d="M917 63l94 6 6-88z" fill="#ffc169" stroke="#ffc169" stroke-width="1.51"/><path d="M831 429l74 91 118-105z" fill="#ffa534" stroke="#ffa534" stroke-width="1.51"/><path d="M896-95l21 158 100-82z" fill="#ffc670" stroke="#ffc670" stroke-width="1.51"/><path d="M983 728l-109 85 136-10z" fill="#f3821e" stroke="#f3821e" stroke-width="1.51"/><path d="M911 943l-82 162 162-104z" fill="#dd731a" stroke="#dd731a" stroke-width="1.51"/><path d="M829 665l45 148 109-85z" fill="#f68a24" stroke="#f68a24" stroke-width="1.51"/><path d="M834-256l-75 76 137 85z" fill="#ffd387" stroke="#ffd387" stroke-width="1.51"/><path d="M773 969l56 136 82-162z" fill="#e0791f" stroke="#e0791f" stroke-width="1.51"/><path d="M896-95L787 57l130 6z" fill="#ffcb71" stroke="#ffcb71" stroke-width="1.51"/><path d="M787 57l70 192 60-186z" fill="#ffc666" stroke="#ffc666" stroke-width="1.51"/><path d="M829 1105l-104 235 207-23z" fill="#bf6b1f" stroke="#bf6b1f" stroke-width="1.51"/><path d="M717 1129l8 211 104-235z" fill="#c87423" stroke="#c87423" stroke-width="1.51"/><path d="M874 813L773 969l138-26z" fill="#ea7f20" stroke="#ea7f20" stroke-width="1.51"/><path d="M741 493l88 172 76-145z" fill="#fea131" stroke="#fea131" stroke-width="1.51"/><path d="M787 57l-65 161 135 31z" fill="#ffc762" stroke="#ffc762" stroke-width="1.51"/><path d="M692-45l95 102L896-95z" fill="#ffd179" stroke="#ffd179" stroke-width="1.51"/><path d="M831 429l-90 64 164 27z" fill="#ffaa38" stroke="#ffaa38" stroke-width="1.51"/><path d="M718 828l55 141 101-156z" fill="#ed8826" stroke="#ed8826" stroke-width="1.51"/><path d="M759-180L692-45l204-50z" fill="#ffd583" stroke="#ffd583" stroke-width="1.51"/><path d="M681 336l150 93 26-180z" fill="#ffbb47" stroke="#ffbb47" stroke-width="1.51"/><path d="M829 665l-115 47 160 101z" fill="#f7922a" stroke="#f7922a" stroke-width="1.51"/><path d="M714 712l4 116 156-15z" fill="#f3902b" stroke="#f3902b" stroke-width="1.51"/><path d="M722 218l-41 118 176-87z" fill="#ffc355" stroke="#ffc355" stroke-width="1.51"/><path d="M384 1242l-154 74 495 24z" fill="#bb8040" stroke="#bb8040" stroke-width="1.51"/><path d="M741 493l-27 219 115-47z" fill="#fba032" stroke="#fba032" stroke-width="1.51"/><path d="M773 969l-56 160 112-24z" fill="#d87a22" stroke="#d87a22" stroke-width="1.51"/><path d="M681 336l60 157 90-64z" fill="#ffb542" stroke="#ffb542" stroke-width="1.51"/><path d="M589-221l170 41 75-76z" fill="#ffdb91" stroke="#ffdb91" stroke-width="1.51"/><path d="M559 1237l-175 5 341 98z" fill="#be7c34" stroke="#be7c34" stroke-width="1.51"/><path d="M717 1129l-158 108 166 103z" fill="#c27828" stroke="#c27828" stroke-width="1.51"/><path d="M585 1032l132 97 56-160z" fill="#db8228" stroke="#db8228" stroke-width="1.51"/><path d="M589 91l133 127 65-161z" fill="#ffd16f" stroke="#ffd16f" stroke-width="1.51"/><path d="M692-45L589 91l198-34z" fill="#ffd679" stroke="#ffd679" stroke-width="1.51"/><path d="M566 492l148 220 27-219z" fill="#feab3a" stroke="#feab3a" stroke-width="1.51"/><path d="M622-96l70 51 67-135z" fill="#ffdc88" stroke="#ffdc88" stroke-width="1.51"/><path d="M718 828l-133 204 188-63z" fill="#e78929" stroke="#e78929" stroke-width="1.51"/><path d="M566 492l67 251 81-31z" fill="#fba63a" stroke="#fba63a" stroke-width="1.51"/><path d="M585 1032l17 67 115 30z" fill="#d6822d" stroke="#d6822d" stroke-width="1.51"/><path d="M589-221l33 125 137-84z" fill="#ffdf90" stroke="#ffdf90" stroke-width="1.51"/><path d="M543 821l42 211 133-204z" fill="#ec9132" stroke="#ec9132" stroke-width="1.51"/><path d="M714 712l-81 31 85 85z" fill="#f59831" stroke="#f59831" stroke-width="1.51"/><path d="M621 242l60 94 41-118z" fill="#ffc85a" stroke="#ffc85a" stroke-width="1.51"/><path d="M589 91l32 151 101-24z" fill="#ffd06a" stroke="#ffd06a" stroke-width="1.51"/><path d="M681 336L566 492l175 1z" fill="#ffb946" stroke="#ffb946" stroke-width="1.51"/><path d="M-53-238l314 57 197-65z" fill="#fff4be" stroke="#fff4be" stroke-width="1.51"/><path d="M602 1099l-43 138 158-108z" fill="#cd7e2d" stroke="#cd7e2d" stroke-width="1.51"/><path d="M532 386l34 106 115-156z" fill="#ffc050" stroke="#ffc050" stroke-width="1.51"/><path d="M633 743l-90 78 175 7z" fill="#f39834" stroke="#f39834" stroke-width="1.51"/><path d="M622-96L589 91 692-45z" fill="#ffdc83" stroke="#ffdc83" stroke-width="1.51"/><path d="M621 242l-89 144 149-50z" fill="#fec757" stroke="#fec757" stroke-width="1.51"/><path d="M543 821l-56 23 98 188z" fill="#ec953c" stroke="#ec953c" stroke-width="1.51"/><path d="M459-108L439 74l150 17z" fill="#ffe18e" stroke="#ffe18e" stroke-width="1.51"/><path d="M589 91L430 272l191-30z" fill="#ffd472" stroke="#ffd472" stroke-width="1.51"/><path d="M459-108L589 91l33-187z" fill="#ffe18d" stroke="#ffe18d" stroke-width="1.51"/><path d="M589-221L459-108l163 12z" fill="#ffe498" stroke="#ffe498" stroke-width="1.51"/><path d="M566 492L380 685l253 58z" fill="#fcac48" stroke="#fcac48" stroke-width="1.51"/><path d="M380 685l163 136 90-78z" fill="#f8a244" stroke="#f8a244" stroke-width="1.51"/><path d="M439 74l-9 198L589 91z" fill="#ffdb81" stroke="#ffdb81" stroke-width="1.51"/><path d="M485 373l47 13 89-144z" fill="#ffca5c" stroke="#ffca5c" stroke-width="1.51"/><path d="M430 272l55 101 136-131z" fill="#ffce66" stroke="#ffce66" stroke-width="1.51"/><path d="M384 501l-4 184 186-193z" fill="#ffb855" stroke="#ffb855" stroke-width="1.51"/><path d="M487 844l-68 189 166-1z" fill="#e7913e" stroke="#e7913e" stroke-width="1.51"/><path d="M585 1032l-146 107 163-40z" fill="#d78737" stroke="#d78737" stroke-width="1.51"/><path d="M439 1139l120 98 43-138z" fill="#ce8337" stroke="#ce8337" stroke-width="1.51"/><path d="M419 1033l20 106 146-107z" fill="#da8b3e" stroke="#da8b3e" stroke-width="1.51"/><path d="M458-246l1 138 130-113z" fill="#ffe7a3" stroke="#ffe7a3" stroke-width="1.51"/><path d="M380 685l107 159 56-23z" fill="#f6a248" stroke="#f6a248" stroke-width="1.51"/><path d="M532 386l-47-13 81 119z" fill="#ffc357" stroke="#ffc357" stroke-width="1.51"/><path d="M485 373L384 501l182-9z" fill="#ffc15a" stroke="#ffc15a" stroke-width="1.51"/><path d="M439 1139l-55 103 175-5z" fill="#c8843f" stroke="#c8843f" stroke-width="1.51"/><path d="M232-23l207 97 20-182z" fill="#ffe99f" stroke="#ffe99f" stroke-width="1.51"/><path d="M324 405l60 96 101-128z" fill="#ffc865" stroke="#ffc865" stroke-width="1.51"/><path d="M380 685l-86 204 193-45z" fill="#f5a450" stroke="#f5a450" stroke-width="1.51"/><path d="M307 946l112 87 68-189z" fill="#eb9849" stroke="#eb9849" stroke-width="1.51"/><path d="M294 889l13 57 180-102z" fill="#ee9f4f" stroke="#ee9f4f" stroke-width="1.51"/><path d="M430 272L324 405l161-32z" fill="#ffcf6a" stroke="#ffcf6a" stroke-width="1.51"/><path d="M283 560l97 125 4-184z" fill="#ffbb5e" stroke="#ffbb5e" stroke-width="1.51"/><path d="M234 139l196 133 9-198z" fill="#ffe08b" stroke="#ffe08b" stroke-width="1.51"/><path d="M261-181L232-23l227-85z" fill="#ffefac" stroke="#ffefac" stroke-width="1.51"/><path d="M458-246l-197 65 198 73z" fill="#ffedad" stroke="#ffedad" stroke-width="1.51"/><path d="M-53-238l171 77 143-20z" fill="#fff7c4" stroke="#fff7c4" stroke-width="1.51"/><path d="M234 139l-1 150 197-17z" fill="#ffdd85" stroke="#ffdd85" stroke-width="1.51"/><path d="M232-23l2 162 205-65z" fill="#ffe89c" stroke="#ffe89c" stroke-width="1.51"/><path d="M419 1033l-106 86 126 20z" fill="#d78e48" stroke="#d78e48" stroke-width="1.51"/><path d="M313 1119l71 123 55-103z" fill="#ce8a47" stroke="#ce8a47" stroke-width="1.51"/><path d="M260 684l34 205 86-204z" fill="#f9ac59" stroke="#f9ac59" stroke-width="1.51"/><path d="M233 289l91 116 106-133z" fill="#ffd575" stroke="#ffd575" stroke-width="1.51"/><path d="M307 946l6 173 106-86z" fill="#e0954d" stroke="#e0954d" stroke-width="1.51"/><path d="M283 560l-23 124 120 1z" fill="#fdb65f" stroke="#fdb65f" stroke-width="1.51"/><path d="M313 1119l-83 197 154-74z" fill="#c6894c" stroke="#c6894c" stroke-width="1.51"/><path d="M324 405l-41 155 101-59z" fill="#ffc566" stroke="#ffc566" stroke-width="1.51"/><path d="M-19 1249l-113 43 298-15z" fill="#c28f60" stroke="#c28f60" stroke-width="1.51"/><path d="M166 1277l-298 15 362 24z" fill="#bf8c5a" stroke="#bf8c5a" stroke-width="1.51"/><path d="M172 1160l-6 117 64 39z" fill="#c48b54" stroke="#c48b54" stroke-width="1.51"/><path d="M104 740l38 154 118-210z" fill="#faaf62" stroke="#faaf62" stroke-width="1.51"/><path d="M260 684L142 894l152-5z" fill="#f5a85b" stroke="#f5a85b" stroke-width="1.51"/><path d="M307 946l-214 61 220 112z" fill="#e29955" stroke="#e29955" stroke-width="1.51"/><path d="M93 1007l79 153 141-41z" fill="#d99556" stroke="#d99556" stroke-width="1.51"/><path d="M172 1160l58 156 83-197z" fill="#cb8d51" stroke="#cb8d51" stroke-width="1.51"/><path d="M151 437l132 123 41-155z" fill="#ffc96d" stroke="#ffc96d" stroke-width="1.51"/><path d="M233 289l-82 148 173-32z" fill="#ffd376" stroke="#ffd376" stroke-width="1.51"/><path d="M142 894l-49 113 214-61z" fill="#eda05a" stroke="#eda05a" stroke-width="1.51"/><path d="M294 889l-152 5 165 52z" fill="#efa157" stroke="#efa157" stroke-width="1.51"/><path d="M232-23l-62 148 64 14z" fill="#ffeaa1" stroke="#ffeaa1" stroke-width="1.51"/><path d="M121-77l111 54 29-158z" fill="#fff2b3" stroke="#fff2b3" stroke-width="1.51"/><path d="M118-161l3 84 140-104z" fill="#fff4bb" stroke="#fff4bb" stroke-width="1.51"/><path d="M78 524l182 160 23-124z" fill="#ffbe68" stroke="#ffbe68" stroke-width="1.51"/><path d="M151 437l-73 87 205 36z" fill="#ffc870" stroke="#ffc870" stroke-width="1.51"/><path d="M115 209l118 80 1-150z" fill="#ffe290" stroke="#ffe290" stroke-width="1.51"/><path d="M170 125l-55 84 119-70z" fill="#ffe69a" stroke="#ffe69a" stroke-width="1.51"/><path d="M78 524l26 216 156-56z" fill="#ffbb69" stroke="#ffbb69" stroke-width="1.51"/><path d="M121-77l49 202 62-148z" fill="#ffefab" stroke="#ffefab" stroke-width="1.51"/><path d="M115 209l36 228 82-148z" fill="#ffdb83" stroke="#ffdb83" stroke-width="1.51"/><path d="M78 524l-90 132 116 84z" fill="#ffbe70" stroke="#ffbe70" stroke-width="1.51"/><path d="M115 209L5 429l146 8z" fill="#ffda83" stroke="#ffda83" stroke-width="1.51"/><path d="M0 1184l-19 65 185 28z" fill="#c7905e" stroke="#c7905e" stroke-width="1.51"/><path d="M121-77L34 142l136-17z" fill="#ffeea9" stroke="#ffeea9" stroke-width="1.51"/><path d="M0 1184l166 93 6-117z" fill="#cb9059" stroke="#cb9059" stroke-width="1.51"/><path d="M93 1007L0 1184l172-24z" fill="#d7975d" stroke="#d7975d" stroke-width="1.51"/><path d="M34 142l81 67 55-84z" fill="#ffe99e" stroke="#ffe99e" stroke-width="1.51"/><path d="M-24-94l58 236 87-219z" fill="#fff3b6" stroke="#fff3b6" stroke-width="1.51"/><path d="M104 740L-53 886l195 8z" fill="#f6ad66" stroke="#f6ad66" stroke-width="1.51"/><path d="M5 429l73 95 73-87z" fill="#ffcf7a" stroke="#ffcf7a" stroke-width="1.51"/><path d="M25 1000L0 1184l93-177z" fill="#df9c61" stroke="#df9c61" stroke-width="1.51"/><path d="M-68 198L5 429l110-220z" fill="#ffe292" stroke="#ffe292" stroke-width="1.51"/><path d="M25 1000l68 7 49-113z" fill="#eba160" stroke="#eba160" stroke-width="1.51"/><path d="M-53 886l78 114 117-106z" fill="#f0a665" stroke="#f0a665" stroke-width="1.51"/><path d="M118-161L-24-94l145 17z" fill="#fff7be" stroke="#fff7be" stroke-width="1.51"/><path d="M34 142l-102 56 183 11z" fill="#ffe9a1" stroke="#ffe9a1" stroke-width="1.51"/><path d="M-53-238l29 144 142-67z" fill="#fff9c8" stroke="#fff9c8" stroke-width="1.51"/><path d="M-12 656l-102 139 218-55z" fill="#feb770" stroke="#feb770" stroke-width="1.51"/><path d="M-114 795l61 91 157-146z" fill="#f9b06e" stroke="#f9b06e" stroke-width="1.51"/><path d="M-57 525l45 131 90-132z" fill="#ffc678" stroke="#ffc678" stroke-width="1.51"/><path d="M5 429l-62 96 135-1z" fill="#ffcd7d" stroke="#ffcd7d" stroke-width="1.51"/><path d="M-218-13l43 149L-24-94z" fill="#fff5c1" stroke="#fff5c1" stroke-width="1.51"/><path d="M-68 198l-143 243L5 429z" fill="#ffdd8f" stroke="#ffdd8f" stroke-width="1.51"/><path d="M-123 1139l123 45 25-184z" fill="#d99965" stroke="#d99965" stroke-width="1.51"/><path d="M-114 187l46 11 102-56z" fill="#ffeba7" stroke="#ffeba7" stroke-width="1.51"/><path d="M-175 136l61 51 148-45z" fill="#ffedac" stroke="#ffedac" stroke-width="1.51"/><path d="M-24-94l-151 230 209 6z" fill="#fff1b5" stroke="#fff1b5" stroke-width="1.51"/><path d="M-53 886l-110 86 188 28z" fill="#efa46b" stroke="#efa46b" stroke-width="1.51"/><path d="M-163 972l40 167 148-139z" fill="#e49f6a" stroke="#e49f6a" stroke-width="1.51"/><path d="M-114 187l-97 254 143-243z" fill="#ffe49d" stroke="#ffe49d" stroke-width="1.51"/><path d="M-57 525l-54 14 99 117z" fill="#ffc77c" stroke="#ffc77c" stroke-width="1.51"/><path d="M-211 441l154 84 62-96z" fill="#ffd286" stroke="#ffd286" stroke-width="1.51"/><path d="M-123 1139l104 110 19-65z" fill="#cf9565" stroke="#cf9565" stroke-width="1.51"/><path d="M-211 441l100 98 54-14z" fill="#ffce85" stroke="#ffce85" stroke-width="1.51"/><path d="M-53-238l-88 4L-24-94z" fill="#fffbd0" stroke="#fffbd0" stroke-width="1.51"/><path d="M-111 539l-99 175 198-58z" fill="#ffc17c" stroke="#ffc17c" stroke-width="1.51"/><path d="M-210 714l96 81 102-139z" fill="#ffb978" stroke="#ffb978" stroke-width="1.51"/><path d="M-123 1139l-9 153 113-43z" fill="#ca9367" stroke="#ca9367" stroke-width="1.51"/><path d="M-141-234l-77 221 194-81z" fill="#fffacd" stroke="#fffacd" stroke-width="1.51"/><path d="M-114 795l-49 177 110-86z" fill="#f4ab70" stroke="#f4ab70" stroke-width="1.51"/><path d="M-175 136l-36 305 97-254z" fill="#ffe6a2" stroke="#ffe6a2" stroke-width="1.51"/><path d="M-210 714l47 258 49-177z" fill="#f9b076" stroke="#f9b076" stroke-width="1.51"/><path d="M-211 441l1 273 99-175z" fill="#ffc884" stroke="#ffc884" stroke-width="1.51"/><path d="M-163 972l31 320 9-153z" fill="#d7996b" stroke="#d7996b" stroke-width="1.51"/><path d="M-163 972l-47-258 78 578z" fill="#eaa370" stroke="#eaa370" stroke-width="1.51"/><path d="M-218-13l7 454 36-305z" fill="#ffecaf" stroke="#ffecaf" stroke-width="1.51"/></svg>