<svg opacity=".8" xmlns="http://www.w3.org/2000/svg" viewBox="282 0 446 560"><path fill="#59413A" d="M313 252.8l4.7-2.9-1.6-5.2"/><path fill="#6D4C47" d="M316.1 244.7l1.6 5.2 5.7-3.4"/><path fill="#4E3D35" d="M313 252.8l4.7-2.9 3.4 6.2"/><path fill="#99625A" d="M321.1 256.1l2.3-9.6 4.3 12.5"/><path fill="#86564F" d="M317.7 249.9l3.4 6.2 2.3-9.6"/><path fill="#8D5D53" d="M323.4 246.5l12.9-7.7-14.4-3.7"/><path fill="#6D4C47" d="M323.4 246.5l-7.3-1.8 5.8-9.6"/><path fill="#533F38" d="M316.1 244.7v-12.6l5.8 3"/><path fill="#C0A590" d="M316.1 232.1l5.8 3 1.5-9.6"/><path fill="#C1A69A" d="M323.4 225.5l-.8 4.8 6.1-2.6M322.6 230.3l-.7 4.8 6.8-7.4"/><path fill="none" d="M328.7 227.7l6.8 6.8 3.8-6.4"/><path fill="#E7C6BB" d="M323.4 225.5l5.3 2.2.8-7.4"/><path fill="#E0C5BA" d="M316.1 232.1l7.3-6.6-5.7-6.6"/><path fill="#CEB0A5" d="M316.1 232.1l1.6-13.2-7.7 8.8"/><path fill="#D6AEA7" d="M310 227.7l7.7-8.8-9.2-6.9"/><path fill="#AC918B" d="M308.5 212l-1.5 9.9 3 5.8"/><path fill="none" d="M317.7 218.9l-3.8-15.9 9.3 2.8"/><path fill="#D5A89C" d="M317.7 218.9l-3.8-15.9-5.4 9"/><path fill="#F1CBC4" d="M317.7 218.9l5.5-13.1 6.3 12.1"/><path fill="#F3D8D1" d="M317.7 218.9l11.8-1v2.4"/><path fill="#EFD6CD" d="M317.7 218.9l11.8 1.4-6.1 5.2"/><path fill="#E9CBC1" d="M328.7 227.7l.8-7.4 9.8 7.8"/><path fill="none" d="M321.9 235.1l6.8-7.4 6.8 6.8"/><path fill="#D0AB9D" d="M321.9 235.1l13.6-.6.8 4.3"/><path fill="none" d="M335.5 234.5l3.8-6.4 8.8 6.4M335.5 234.5h12.6l-7.2 8.7"/><path fill="#8D5D53" d="M323.4 246.5l12.9-7.7 3.5 16.6"/><path fill="#86574E" d="M323.4 246.5l16.4 8.9-3.5 6.5"/><path fill="#99625A" d="M327.7 259l8.6 2.9-12.9-15.4"/><path fill="#AF7274" d="M320.9 274.9l-.4-7.2 11.5 5"/><path fill="#9B6B6C" d="M321.1 256.1l6.7 2.8s.2 6.3 0 6.3c-.2.1-6.7-9.1-6.7-9.1z"/><path fill="#884649" d="M321.1 256.1l6.7 9.2-5.9-1.5"/><path fill="#A66665" d="M327.7 259l8.6 2.9-8.5 3.4"/><path fill="none" d="M327.8 265.3l12 1.4-7.8 6"/><path fill="#9E5F61" d="M320.5 267.7l1.4-3.9 5.9 1.5"/><path fill="#824D3E" d="M336.3 238.8l4.6 4.4-1.1 12.2"/><path fill="none" d="M340.9 243.2l7.2-8.7-3.1 12.7"/><path fill="#815A51" d="M339.8 255.4l5.2-8.2-4.1-4"/><path fill="#E4B7AC" d="M348.1 234.5l3.2 13.2-6.3-.5"/><path fill="#997669" d="M345 247.2l6.3.5-2.6 19"/><path fill="#B87275" d="M320.5 267.7l7.3-2.4 4.2 7.4"/><path fill="#AD746D" d="M327.8 265.3l8.5-3.4 3.5 4.8"/><path fill="#936863" d="M345 247.2l-5.2 8.2 8.9 11.3"/><path fill="none" d="M339.8 255.4l8.9 11.3"/><path fill="#885E54" d="M336.3 261.9l3.5-6.5 8.9 11.3"/><path fill="#DDB4A8" d="M313.9 203l3.8-7.8 5.5 10.6"/><path fill="none" d="M323.2 205.8l2.9-22.6 7.5 18"/><path fill="#F0CCC4" d="M323.2 205.8l10.4-4.6-4.1 16.7"/><path fill="#DEB6A6" d="M317.7 195.2l8.4-12-2.9 22.6"/><path fill="#19211D" d="M317.7 195.2l-7.7-.7 16.1-11.3"/><path fill="none" d="M310 194.5l-.7-14.9-11.1-.6"/><path fill="#4A5C6C" d="M294.6 187.2c0-.5 3.6-8.2 3.6-8.2l11.9 15.6-15.5-7.4z"/><path fill="#505358" d="M294.6 187.2l3.6-8.2-10.8-13.2"/><path fill="#212622" d="M287.4 148.9v16.9l3.9-7.2"/><path fill="#232625" d="M287.4 148.9l13.2-2.4-9.3 12.1"/><path fill="none" d="M300.6 146.5l9.4 2.6-1.5 20.3"/><path fill="#505358" d="M298.2 162.4l2.4-15.9 7.9 22.9"/><path fill="#4A5564" d="M291.3 158.6l6.9 3.8 2.4-15.9"/><path fill="#505358" d="M291.3 158.6l1.1 9.6 5.8-5.8"/><path fill="#464C55" d="M287.4 165.8l3.9-7.2 1.1 9.6M292.4 168.2l5.8-5.8 10.3 7"/><path fill="#505965" d="M292.4 168.2l16.1 1.2-10.3 9.6"/><path fill="#414F5E" d="M292.4 168.2l5.8 10.8-10.8-13.2"/><path fill="none" d="M310 149.1l9.8 2.7-1.8 14M308.5 169.4l9.5-3.6-8-16.7"/><path fill="#414F5E" d="M298.2 179l10.3-9.6.8 10.2"/><path fill="none" d="M309.3 179.6l.7 14.9 16.1-11.3"/><path fill="#677D9F" d="M309.3 179.6l-.8-10.2 17.6 13.8"/><path fill="#414F5E" d="M308.5 169.4l9.5-3.6 2.8 9.9"/><path fill="none" d="M319.8 151.8l4.9 9.4-6.7 4.6"/><path fill="#6E89A1" d="M318 165.8l6.7-4.6v12.4"/><path fill="#1B221E" d="M320.8 175.7l5.3 7.5-1.4-9.6"/><path fill="#19211E" d="M319.8 151.8l4.9 9.4 5.6-6"/><path fill="#252725" d="M324.7 161.2l5.6-6 .6 10"/><path fill="#262928" d="M324.7 161.2l6.2 4-.6 8.4"/><path fill="#1F251F" d="M324.7 173.6v-12.4l5.6 12.4"/><path fill="#262724" d="M326.1 183.2l-1.4-9.6h5.6"/><path fill="#1A201D" d="M330.3 155.2l12.5 1.3-5.4 9.3"/><path fill="#1C2521" d="M330.9 165.2l-.6-10 7.1 10.6"/><path fill="#9F7C67" d="M330.9 165.2l6.5.6-7.1 7.8"/><path fill="none" d="M337.4 165.8l10.5 18.3-3.5 7"/><path fill="#E8C5B2" d="M330.3 173.6l7.1-7.8 7 25.3"/><path fill="#EACBBD" d="M326.1 183.2l4.2-9.6 5.7 9.6"/><path fill="#E0C1B1" d="M326.1 183.2h9.9l-2.4 18"/><path fill="#E7BBB2" d="M333.6 201.2l-4.1 16.7 9-1.6"/><path fill="none" d="M333.6 201.2l2.4-18 8.4 7.9"/><path fill="none" d="M344.4 191.1l-10.8 10.1 17.3 1.8M344.4 191.1l11.5-6 2.4 16.9"/><path fill="#EBC3BB" d="M333.6 201.2l4.9 15.1 10.4-2.2"/><path fill="#EBB6AE" d="M329.5 217.9l9-1.6.8 11.8"/><path fill="#DCA29C" d="M339.3 228.1l-.8-11.8 10.4-2.2"/><path fill="#E9C0B6" d="M339.3 228.1l8.8 6.4-.2-12.3"/><path fill="#D89D97" d="M347.9 222.2l.2 12.3 7.8-11.5"/><path fill="#D5A396" d="M347.9 222.2l1-8.1 7 8.9"/><path fill="#EECFC1" d="M330.3 173.6l14.1 17.5-8.4-7.9"/><path fill="#EBB6AE" d="M329.5 217.9v2.4l9.8 7.8"/><path fill="none" d="M344.4 191.1l3.5-7 8 1"/><path fill="#161919" d="M337.4 165.8l10.5 18.3-2.4-20.7"/><path fill="#1A201D" d="M337.4 165.8l5.4-9.3 2.7 6.9"/><path fill="#202621" d="M342.8 156.5l2.7 6.9 17.8-10.1"/><path fill="#171B19" d="M363.3 153.3l32.7 1.2.7 6"/><path fill="none" d="M345.5 163.4l6.5 7.4 3.2-8.4"/><path fill="#566370" d="M347.9 184.1l-2.4-20.7 6.5 7.4"/><path fill="#515C6F" d="M347.9 184.1l4.1-13.3 7.7 4.9"/><path fill="#566370" d="M345.5 163.4l17.8-10.1 4.4 7.9"/><path fill="none" d="M355.2 162.4l12.5-1.2-8 14.5"/><path fill="#566370" d="M352 170.8l3.2-8.4 4.5 13.3"/><path fill="#566370" d="M347.9 184.1l8 1 3.8-9.4"/><path fill="none" d="M359.7 175.7v17.1l22.8-5.2M359.7 175.7l8-14.5 15.9 15.3"/><path fill="none" d="M359.7 175.7l23.9.8-1.1 11.1"/><path fill="#566370" d="M359.7 175.7l-3.8 9.4 3.8 7.7"/><path fill="#6E89A1" d="M355.9 185.1l11.3 22.6-8.9-5.7"/><path fill="#6E89A1" d="M359.7 192.8l22.8-5.2-2.7 19"/><path fill="#7F8F9D" d="M359.7 192.8l20.1 13.8-12.6 1.1"/><path fill="#272A32" d="M363.3 152.9l4.4 8.3 7.2-5.2"/><path fill="none" d="M374.9 156l21.8 4.5-29 .7"/><path fill="none" d="M367.7 161.2l29-.7 2.1 24.6M383.6 176.5l-1.1 11.1 16.3-2.5M382.5 187.6l-2.7 19 11.5-2.5"/><path fill="#7E90A1" d="M382.5 187.6l16.3-2.5-2.8 20.7"/><path fill="#6E89A1" d="M396.7 160.5l2.1 24.6 5.4-19.3"/><path fill="none" d="M396.7 160.5"/><path fill="#171B19" d="M396 154.5l.7 6 16.1 2.9"/><path fill="#1A1C1D" d="M396 154.5l27.3 5.5-10.5 3.4"/><path fill="#111213" d="M344.4 191.1l13.9 10.9-7.4 1"/><path fill="#EDD3BF" d="M348.9 214.1l6.3-6.4 10.8 4.7"/><path fill="#E3ACA7" d="M348.9 214.1l-9.6 14 8.6-5.9"/><path fill="#F5D7CC" d="M333.6 201.2l17.3 1.8-2 11.1"/><path fill="#F1DBCC" d="M350.9 203l4.3 4.7-6.3 6.4"/><path fill="#161918" d="M358.3 202l-3.1 5.7-4.3-4.7"/><path fill="#171A1B" d="M367.2 207.7l-1.2 4.7-7.7-10.4"/><path fill="#566370" d="M379.8 206.6l1.4 7.5-14-6.4"/><path fill="#7E90A1" d="M391.3 204.1l4.7 1.7-13.5-18.2"/><path fill="#6E89A1" d="M381.2 214.1l10.1-10-11.5 2.5"/><path fill="#6A7B8C" d="M396 205.8l-4.7-1.7-10.1 10"/><path fill="#7E90A1" d="M404.2 212.3l-8.2-6.5-14.8 8.3M398.8 185.1l-2.8 20.7 8.2 6.5"/><path fill="#6A7B8C" d="M398.8 185.1l5.4-19.3 8.2 18.3"/><path fill="#8999A7" d="M398.8 185.1l13.6-1-8.2 28.2"/><path fill="#6A7B8C" d="M367.7 161.2l31.1 23.9-15.2-8.6"/><path fill="#92A6B7" d="M404.2 165.8l8.6-2.4v10.3"/><path fill="#889BAA" d="M396.7 160.5l16.1 2.9-8.6 2.4"/><path fill="#171B1A" d="M423.3 160l4.8 15.5-15.3-12.1"/><path fill="none" d="M421.8 185.1l-9-21.7v10.3"/><path fill="#181E1C" d="M428.1 175.5l-6.3 9.6-9-21.7"/><path fill="#889BAA" d="M412.8 173.7l-.4 10.4-8.2-18.3"/><path fill="#1C221B" d="M366 212.4l14 4.8-12.8-9.5"/><path fill="#191D19" d="M381.2 214.1l-1.2 3.1-12.8-9.5"/><path fill="#131414" d="M404.2 212.3l1.4 4.9-24.4-3.1"/><path fill="none" d="M380 217.2h25.6l-24.4-3.1"/><path fill="#566370" d="M404.2 212.3l9.2-15.2-.6 13.3"/><path fill="#1F2622" d="M412.8 210.4l-7.2 6.8-1.4-4.9"/><path fill="#1B211D" d="M412.4 184.1l9.4 1-7.5 24.4"/><path fill="#191F1C" d="M412.8 173.7l9 11.4-9.4-1"/><path fill="#262921" d="M413.4 197.1l.9 12.4-1.5.9"/><path fill="#AD7168" d="M339.8 266.7h8.9l-12.4-4.8"/><path fill="#997669" d="M348.7 266.7l14-10.6-5.8 12.4"/><path fill="#C46D74" d="M332 272.7l7.8-6h8.9"/><path fill="#C4787C" d="M320.9 274.9l11.1-2.2 8.9 3.7"/><path fill="#D18B8C" d="M332 272.7l16.7-6-7.8 9.7"/><path fill="#CF928C" d="M348.7 266.7l8.2 1.8 2.6 5.7"/><path fill="#D39091" d="M340.9 276.4l7.8-9.7 10.8 7.5"/><path fill="#DDBAA7" d="M366 212.4l14 4.8-12.3 11.2"/><path fill="#DAB29D" d="M348.9 214.1l17.1-1.7 1.7 16"/><path fill="#DDB7A2" d="M355.9 223l11.8 5.4-19.6 6.1"/><path fill="#E3BCA9" d="M348.1 234.5l19.1 2.2-6.3 12.6"/><path fill="none" d="M351.3 247.7l9.6 1.6 1.8 6.8"/><path fill="#9F7C76" d="M351.3 247.7l11.4 8.4-14 10.6"/><path fill="none" d="M362.7 256.1l8.9-2.3-1.9 13.9"/><path fill="#896355" d="M362.7 256.1l-5.8 12.4 12.8-.8"/><path fill="none" d="M371.6 253.8l-1.9 13.9 21.6-10.5M369.7 267.7v11l10.3-3.8"/><path fill="none" d="M369.7 267.7l21.6-10.5-11.3 17.7M369.7 267.7l-10.2 6.5 10.2 4.5"/><path fill="#D6A398" d="M356.9 268.5l2.6 5.7 10.2-6.5"/><path fill="#C9837E" d="M340.9 276.4l-11.1 2.3-8.9-3.8"/><path fill="#9E756C" d="M323.2 283l-2.3-8.1 8.9 3.8"/><path fill="#DEB2AB" d="M340.9 276.4l11.1 2.5 7.5-4.7"/><path fill="#D8A297" d="M329.8 278.7l11.1-2.3 5.4 7.9"/><path fill="#C69E91" d="M323.2 283l23.1 1.3-16.5-5.6"/><path fill="#B89588" d="M323.2 283l2.1 14.4 21-13.1"/><path fill="none" d="M346.3 306.4l14.6-6.2-14.6-15.9-5.4-7.9 11.1 2.5-5.7 5.4v22.1l-21-9 21-13.1"/><path fill="#D5AC9C" d="M325.3 297.4l21-13.1v22.1"/><path fill="#DEBFAA" d="M346.3 284.3l14.6 15.9-14.6 6.2"/><path fill="#DBB2A8" d="M340.9 276.4l11.1 2.5-5.7 5.4"/><path fill="#E8BFB3" d="M348.1 234.5l12.8 14.8-9.6-1.6"/><path fill="#E6C3B4" d="M346.3 284.3l5.7-5.4 8.9 21.3"/><path fill="#E5BDAD" d="M352 278.9l7.5-4.7 13 10.1"/><path fill="#E3BFAD" d="M372.5 284.3l-11.6 15.9-8.9-21.3"/><path fill="#DDB9A3" d="M359.5 274.2l13 10.1-2.8-5.6"/><path fill="none" d="M380 274.9l2.5 22.5-10-13.1"/><path fill="#A98571" d="M369.7 278.7l2.8 5.6 7.5-9.4"/><path fill="#BD9683" d="M382.5 297.4l-21.6 2.8 11.6-15.9"/><path fill="#513E37" d="M325.3 297.4l-5.5 10.7 26.5-1.7"/><path fill="#332420" d="M319.8 308.1l4.6 15.7 21.9-17.4"/><path fill="#271D17" d="M324.4 323.8l9.6 9.9 12.3-27.3"/><path fill="#4D382F" d="M346.3 306.4l5.7 20.2-12.7-4.6"/><path fill="#2D1F1A" d="M339.3 322l-5.3 11.7 18-7.1"/><path fill="#211A18" d="M352 326.6l10.3 13.3-28.3-6.2"/><path fill="#7B5E56" d="M346.3 306.4l14.6-6.2-8.9 26.4"/><path fill="#261A17" d="M352 326.6h19.7l-9.4 13.3"/><path fill="#725652" d="M360.9 300.2l10.8 26.4H352"/><path fill="#BB9A88" d="M360.9 300.2l21.6-2.8-8.3 17.7"/><path fill="#78675F" d="M371.7 326.6l2.5-11.5-13.3-14.9"/><path fill="#1A1818" d="M371.7 326.6l15.5 9.4-24.9 3.9"/><path fill="#45322C" d="M371.7 326.6l2.5-11.5 13 20.9"/><path fill="#927668" d="M374.2 315.1l8.3-17.7 12.1 13.8"/><path fill="#5A4645" d="M374.2 315.1l13 20.9 7.4-24.8"/><path fill="#DCB5A6" d="M360.9 249.3l13.9-4.6-12.1 11.4"/><path fill="#E6C8B5" d="M374.8 244.7l-7.6-8 24.1-8"/><path fill="#E3BCA9" d="M348.1 234.5l19.6-6.1-.5 8.3"/><path fill="#E4C1AF" d="M348.9 214.1l18.8 14.3-11.8-5.4"/><path fill="#E3C6AF" d="M367.7 228.4l23.6.3-24.1 8"/><path fill="#E6C8B5" d="M362.7 256.1l28.6-27.4 4.7 18.5"/><path fill="#E7C8B3" d="M367.7 228.4l12.3-11.2 11.3 11.5"/><path fill="#151716" d="M380 217.2h25.6l-24.4-3.1"/><path fill="#EFCEBC" d="M391.3 228.7l14.3-11.5H380"/><path fill="none" d="M371.6 253.8l24.4-6.6-4.7 10"/><path fill="none" d="M380 274.9h20.5l-9.2-17.7"/><path fill="#AE8F7E" d="M380 274.9l2.5 22.5 18-22.5"/><path fill="#9B6D62" d="M400.5 274.9l-5.9 36.3-12.1-13.8"/><path fill="#3F312E" d="M394.6 311.2l18.2 16.7-25.6 8.1"/><path fill="#EFD1C3" d="M396 247.2l18.3-37.7-23 19.2"/><path fill="#BA9981" d="M391.3 257.2l24.3-3-15.1 20.7"/><path fill="none" d="M400.5 274.9l21.3-1.7v24.2"/><path fill="#6F4B42" d="M394.6 311.2l27.2-13.8-21.3-22.5"/><path fill="#432B27" d="M394.6 311.2l18.2 16.7 9-30.5"/><path fill="#A58A7F" d="M421.8 273.2l-6.2-19-15.1 20.7"/><path fill="none" d="M391.3 257.2l23-47.7 1.3 44.7M421.8 273.2l23.7 5.5-23.7 18.7"/><path fill="#35241E" d="M421.8 297.4l15.8 22.6-24.8 7.9"/><path fill="#54342F" d="M421.8 297.4l23.7-18.7-7.9 41.3"/><path fill="#9F8278" d="M415.6 254.2l20.7 6.9-14.5 12.1"/><path fill="none" d="M414.3 209.5l20.8 10.8-20.2 9.7M414.9 230l18.8 8.8-18.1 15.4M433.7 238.8l17.2 7.7-14.6 14.6"/><path fill="#AC8E81" d="M415.6 254.2l18.1-15.4 2.6 22.3"/><path fill="#E1C6B0" d="M435.1 220.3l9.4-20.1-30.2 9.3"/><path fill="#DBB9A3" d="M435.1 220.3l15.8 26.2-36-16.5"/><path fill="#EBD0BF" d="M421.8 185.1l22.7 15.1-30.2 9.3"/><path fill="#D0B7A2" d="M415.6 254.2l-14.4-17.5-9.9 20.5"/><path fill="#D6BFA8" d="M401.2 236.7l13.1-27.2 1.3 44.7"/><path fill="#7B6253" d="M445.5 278.7l-9.2-17.6-14.5 12.1"/><path fill="#937061" d="M436.3 261.1l14.6-14.6-5.4 32.2"/><path fill="#4F3A35" d="M445.5 278.7l20.5 16.6-28.4 24.7"/><path fill="#74574D" d="M450.9 246.5l15.1 48.8-20.5-16.6"/><path fill="#856961" d="M450.9 246.5l21.5-3.3-6.4 52.1"/><path fill="none" d="M435.1 220.3l20.7-4-4.9 30.2-6.7-11.1"/><path fill="#8D7864" d="M455.8 216.3l16.6 26.9-21.5 3.3"/><path fill="#8A7160" d="M455.8 216.3l19-2.5-2.4 29.4"/><path fill="#DCBAA5" d="M444.5 200.2l11.3 16.1-20.7 4"/><path fill="#EACABF" d="M428.1 175.5l16.4 24.7-22.7-15.1"/><path fill="none" d="M428.1 175.5h16.4v24.7M444.5 200.2l22.6-17-22.6-7.7"/><path fill="#DFBDA8" d="M444.5 200.2l22.6-17-11.3 33.1"/><path fill="#B59F91" d="M467.1 183.2l7.7 30.6-19 2.5"/><path fill="#795E54" d="M472.4 243.2l11.6 20.6-18 31.5"/><path fill="#876E5D" d="M474.8 213.8l9.2 50-11.6-20.6"/><path fill="none" d="M444.5 175.5h27.9l-5.3 7.7"/><path fill="#A09486" d="M472.4 175.5l17.2 12.1-22.5-4.4"/><path fill="#B09B8E" d="M489.6 187.6l-14.8 26.2-7.7-30.6"/><path fill="#DDBFA7" d="M489.6 187.6l-2.3 33.5-12.5-7.3"/><path fill="#E2C0AB" d="M487.3 221.1l-3.3 42.7-9.2-50"/><path fill="#474B4A" d="M423.3 160h29.4l-24.6 15.5"/><path fill="#98928A" d="M452.7 160l19.7 15.5h-44.3"/><path fill="#545858" d="M452.7 160l44.3 1.2-24.6 14.3"/><path fill="#5C6060" d="M497 161.2l13.3 13.8-37.9.5"/><path fill="#6A6E6D" d="M527.2 162.4L510.3 175 497 161.2"/><path fill="#6F716F" d="M527.2 162.4l3.4 10.7-20.3 1.9"/><path fill="#75797A" d="M527.2 162.4l17.7 3.4-14.3 7.3"/><path fill="#838888" d="M530.6 173.1l14.3-7.3 5.4 11.6"/><path fill="#9E877B" d="M489.6 187.6l20.7-12.6-37.9.5"/><path fill="#E9C5B2" d="M510.3 175v10.1l-20.7 2.5"/><path fill="#ECD0BC" d="M510.3 185.1l-7.9 10.4-4.3-8.9"/><path fill="#E6C8B5" d="M498.1 186.6l-8.5 1 12.8 7.9"/><path fill="#E7C8B2" d="M502.4 195.5l-13.8 6.5 1-14.4"/><path fill="#E3C3AB" d="M502.4 195.5l1.8 6.5h-15.6"/><path fill="#EDD1C0" d="M488.6 202l7.4 12.8-8.7 6.3"/><path fill="#F0D1BD" d="M504.2 202l-8.2 12.8-7.4-12.8"/><path fill="#EFD8C4" d="M496 214.8l2.1 6.3h-10.8"/><path fill="#D8B49E" d="M498.1 221.1l-3.9 7.3-6.9-7.3"/><path fill="#F0D5C0" d="M494.2 228.4l-8.4 12.1 1.5-19.4"/><path fill="#EFCEBC" d="M494.2 228.4l5.8 10.4-14.2 1.7"/><path fill="#EAC8B9" d="M500 238.8l-7.3 13.1-6.9-11.4"/><path fill="#D5C1AD" d="M492.7 251.9l-7.5-4.2.6-7.2"/><path fill="#F1D2C4" d="M500 238.8l13.4 8.9-20.7 4.2"/><path fill="#CBB19C" d="M492.7 251.9l10.4 1.9 10.3-6.1"/><path fill="#F6DAC8" d="M494.2 228.4l11.3 1.6-5.5 8.8"/><path fill="#F1D4C3" d="M505.5 230l7.9 17.7-13.4-8.9"/><path fill="#E8C7B5" d="M505.5 230l6.6-5.3 5.9 7.2"/><path fill="#F2D4C3" d="M505.5 230l7.9 17.7 4.6-15.8"/><path fill="#E9C3B9" d="M518 231.9l6.2 10.5-10.8 5.3"/><path fill="#EBC4B3" d="M512.1 224.7h9.2l-3.3 7.2"/><path fill="#EFC7BA" d="M521.3 224.7l2.9 17.7-6.2-10.5"/><path fill="none" d="M521.3 224.7l7.5-3.5-1.6 12.2"/><path fill="#EFC7BA" d="M521.3 224.7l2.9 17.7 6.4-3.6-3.5-5.3"/><path fill="#EBC7B7" d="M528.8 221.2l7.3 10.3-5.5 7.3"/><path fill="#F0C6BB" d="M528.8 221.2l-1.7 12.3 3.5 5.3"/><path fill="#CAA199" d="M498.1 221.1l7.4 8.9-11.3-1.6"/><path fill="#EFD4C1" d="M498.1 221.1l6.1-4.8-8.2-1.5"/><path fill="#EDCBB4" d="M496 214.8l8.2-12.8v14.3"/><path fill="#E7C4AD" d="M504.2 202l7.9-7.2-9.7.7"/><path fill="#EBCDB5" d="M510.3 185.1l1.8 9.7-9.7.7"/><path fill="#DDB49C" d="M510.3 185.1l13.9-4.7-13.9-5.4"/><path fill="#E9B8A4" d="M510.3 175l20.3-1.9-6.4 7.3"/><path fill="#E3C0AF" d="M524.2 180.4l-12.1 14.4-1.8-9.7"/><path fill="#D2A99E" d="M524.2 180.4l8.2.9-1.8-8.2"/><path fill="#E1AB99" d="M530.6 173.1l12.5 4.3-10.7 3.9"/><path fill="#DCAEA3" d="M543.1 177.4l4.9 7.7-15.6-3.8"/><path fill="#D49783" d="M548 185.1l1 11.6-16.6-15.4"/><path fill="none" d="M549 196.7l-4.1 13.3-2.8-14.5"/><path fill="#F2D7CA" d="M512.1 194.8l9 3.4-2.1-11.6"/><path fill="#E5BFB4" d="M519 186.6l5.2-6.2 6.4 8.6"/><path fill="#F9E8DC" d="M524.2 180.4l8.2.9-1.8 7.7"/><path fill="#E3BAB4" d="M532.4 181.3l9.7 14.2 6.9 1.2"/><path fill="#F5D7CA" d="M530.6 189l11.5 6.5-9.7-14.2"/><path fill="#F1C9B8" d="M530.6 189l-9.5 9.2-2.1-11.6"/><path fill="#EDD4C0" d="M521.1 198.2l-9.4 7.6.4-11"/><path fill="#DBB79A" d="M512.1 194.8l-7.9 7.2 7.5 3.8"/><path fill="#CBA386" d="M511.7 205.8l-7.5 10.5V202"/><path fill="#E6C5BC" d="M504.2 216.3l1.3 13.7-7.4-8.9"/><path fill="#E9BDAC" d="M511.7 205.8l3.5 9.9-11 .6"/><path fill="#E8C7B5" d="M504.2 216.3l7.9 8.4-6.6 5.3"/><path fill="#F2D0C8" d="M515.2 215.7l-3.1 9-7.9-8.4"/><path fill="#E0ABA3" d="M515.2 215.7l5.3-8-8.8-1.9"/><path fill="#CD9D8B" d="M511.7 205.8l9.4-7.6-.6 9.5"/><path fill="#ECD2C2" d="M515.2 215.7l6.1 9h-9.2"/><path fill="#F7DECF" d="M520.5 207.7l.8 17-6.1-9"/><path fill="#DFAFA2" d="M528.8 221.2l5.9-11.2 1.4 21.5"/><path fill="none" d="M534.7 210h10.2l-4.2 9.8"/><path fill="#E1B4A9" d="M536.1 231.5l4.6-11.7-6-9.8"/><path fill="#F8E3D2" d="M520.5 207.7l8.3 13.5-7.5 3.5"/><path fill="#CD9D8B" d="M521.1 198.2l7.2 7.6-7.8 1.9 7.8-1.9.5 15.4-8.3-13.5 7.8-1.9.5 15.4-8.3-13.5"/><path fill="#E6BAAB" d="M528.3 205.8l-7.8 1.9 8.3 13.5"/><path fill="#F3D2C3" d="M521.1 198.2l9.5-9.2-2.3 16.8"/><path fill="#E0ABA3" d="M530.6 189l11.5 6.5-4.4 6.5"/><path fill="#F3D2C9" d="M528.3 205.8l9.4-3.8-7.1-13"/><path fill="#D5A694" d="M528.3 205.8l6.4 4.2-5.9 11.2"/><path fill="#EDC5B8" d="M537.7 202l-3 8-6.4-4.2"/><path fill="#D49F8F" d="M537.7 202l7.2 8h-10.2"/><path fill="#DEBFB7" d="M537.7 202l4.4-6.5 2.8 14.5"/><path fill="#CBB19C" d="M530.6 238.8l-14.5 15h-13"/><path fill="#E5CDB8" d="M484 263.8l13-3.1-11.8-13"/><path fill="#E5BDAD" d="M485.2 247.7l7.5 4.2 4.3 8.8"/><path fill="#E5BDAD" d="M492.7 251.9l10.4 1.9-6.1 6.9"/><path fill="#DDBDA3" d="M503.1 253.8l10.3 17.8 2.7-17.8"/><path fill="#EBCCBC" d="M503.1 253.8l-6.1 6.9 16.4 10.9"/><path fill="#EBD0BF" d="M497 260.7l-13 3.1 29.4 7.8"/><path fill="#EBC9BA" d="M484 263.8l16.1 27.6-34.1 3.9"/><path fill="#E0C0A5" d="M466 295.3l10.8 17.3-39.2 7.4"/><path fill="#ECCAB3" d="M476.8 312.6l23.3-21.2-34.1 3.9"/><path fill="#E8C8AD" d="M476.8 312.6l2.8 11-29.7 3M449.9 326.6l-12.3-6.6 39.2-7.4"/><path fill="#BCA18A" d="M449.9 326.6l-37.1 9.4 24.8-16"/><path fill="#9C8369" d="M412.8 336v-8.1l24.8-7.9"/><path fill="#A48E7D" d="M412.8 336l-12.9 1.6 12.9-9.7"/><path fill="#282826" d="M399.9 337.6l-12.7-1.6 25.6-8.1"/><path fill="#E8C5AC" d="M500.1 291.4l-20.5 32.2-2.8-11"/><path fill="#E7C6B3" d="M484 263.8l29.4 7.8-13.3 19.8"/><path fill="#DFBBA0" d="M500.1 291.4l10.2 7-30.7 25.2"/><path fill="#D7B296" d="M500.1 291.4l13.3-19.8-3.1 26.8"/><path fill="#B8977D" d="M516.1 253.8l24.1 3.4-9.6-18.4"/><path fill="#BF9A7E" d="M516.1 253.8l-2.7 17.8 26.8-14.4"/><path fill="#C2A085" d="M540.2 257.2l-.4 22.4-26.4-8"/><path fill="#B89677" d="M539.8 279.6l-29.5 18.8 3.1-26.8"/><path fill="#A28B74" d="M530.6 238.8l15-4.3-5.4 22.7"/><path fill="#845B49" d="M540.2 257.2l12.7 13.3-13.1 9.1"/><path fill="#835B48" d="M545.6 234.5l7.3 36-12.7-13.3"/><path fill="#1E1918" d="M545.6 234.5l12.1-13.3-4.8 48.1"/><path fill="#2F221B" d="M545.6 234.5l-4.9-14.7-4.6 12.7"/><path fill="#6A4E3E" d="M536.1 232.5l-5.5 6.3 15-4.3"/><path fill="#2B1D1A" d="M540.7 219.8l17 1.4-12.1 13.3"/><path fill="#221A18" d="M540.7 219.8l4.2-9.8 12.8 11.2"/><path fill="#34241F" d="M544.9 210l4.1-13.3 16.7-1.2"/><path fill="#1A1819" d="M544.9 210l20.8-14.5-8 25.7"/><path fill="#533F36" d="M549 196.7l-1-11.6 13.6-11.4"/><path fill="#27221B" d="M561.6 173.7l4.1 21.8-16.7 1.2"/><path fill="#201C19" d="M561.6 173.7l16.9-7.9-12.8 29.7"/><path fill="#191A17" d="M578.5 165.8l4.9-32.8-26.1 25.4"/><path fill="#21191A" d="M557.3 158.4l4.3 15.3 16.9-7.9"/><path fill="#5C5042" d="M561.6 173.7l-11.3 3.7-5.4-11.6"/><path fill="#57453E" d="M548 185.1l2.3-7.7 11.3-3.7"/><path fill="#97928C" d="M543.1 177.4h7.2l-2.3 7.7"/><path fill="#858789" d="M543.1 177.4l-12.5-4.3 19.7 4.3"/><path fill="#453B34" d="M557.3 158.4l-12.4 7.4 16.7 7.9"/><path fill="#181717" d="M583.4 133l-4.9-43.1-21.2 68.5"/><path fill="#342A25" d="M557.3 158.4l-16.9-42.9 30.8-2.1"/><path fill="none" d="M571.2 113.4l7.3-23.5-38.1 25.6"/><path fill="#151516" d="M578.5 89.9l-14.1-31.2v40.7"/><path fill="#39312F" d="M564.4 99.4V58.7l-24 56.8"/><path fill="#141516" d="M564.4 58.7L542.3 32l16.4 40.2"/><path fill="none" d="M558.7 72.2L542.3 32l-25.5 26.7"/><path fill="#5F5049" d="M558.7 72.2l-18.3 43.3-23.6-56.8"/><path fill="none" d="M542.3 32l-27.1-17.7 1.6 44.4"/><path fill="none" d="M515.2 14.3l-34.8-8.6 36.4 53M480.4 5.7L435.1 8l31.7 30.4M466.8 38.4l50 20.3-36.4-53M435.1 8l-36.2 14 36.2 23.4"/><path fill="none" d="M435.1 8l31.7 30.4-31.7 7M435.1 45.4l19.7 20.4 12-27.4"/><path fill="#8A8476" d="M454.8 65.8l62-7.1-50-20.3"/><path fill="#96918B" d="M454.8 65.8l32.7 32.6 13.4-37.9"/><path fill="#8A837B" d="M500.9 60.5l10.7 36.1-24.1 1.8"/><path fill="#8E857C" d="M500.9 60.5l15.9-1.8-5.2 37.9"/><path fill="#827972" d="M516.8 58.7l23.6 56.8-28.8-18.9"/><path fill="none" d="M398.9 22l-27.6 14.5 32.5 22.2"/><path fill="none" d="M398.9 22l36.2 23.4-31.3 13.3"/><path fill="#998E7D" d="M403.8 58.7l51 7.1-19.7-20.4"/><path fill="none" d="M371.3 36.5l-23.4 25.8 55.9-3.6M347.9 62.3l-13 27.6 47.3 16.2"/><path fill="none" d="M347.9 62.3l55.9-3.6-21.6 47.4"/><path fill="#ABA897" d="M403.8 58.7l51 7.1-3.9 22.8"/><path fill="none" d="M403.8 58.7l-21.6 47.4 68.7-17.5"/><path fill="#9A9183" d="M450.9 88.6l36.6 9.8-32.7-32.6"/><path fill="none" d="M382.2 106.1L352 124.2l-17.1-34.3"/><path fill="#B08E71" d="M334.9 89.9l-13.5 31.8 30.6 2.5"/><path fill="#765E5A" d="M321.4 121.7l-6.8 11.3 18.9 16.4"/><path fill="#C29B88" d="M321.4 121.7l30.6 2.5-18.5 25.2"/><path fill="#131314" d="M314.6 133l3.1 16.1 15.8.3"/><path fill="#302B2A" d="M317.7 149.1l12.6 6.1 3.2-5.8"/><path fill="#AB8272" d="M330.3 155.2l12.5 1.3-9.3-7.1"/><path fill="#C59E8A" d="M333.5 149.4l18.5-25.2v18.7"/><path fill="#AB8272" d="M333.5 149.4l9.3 7.1 9.2-13.6"/><path fill="#C6A798" d="M352 142.9l11.3 10-20.5 3.6"/><path fill="#D1A68F" d="M352 142.9l27.8-15.3-27.8-3.4"/><path fill="#E2BDAE" d="M352 142.9l11.3 10 16.5-25.3"/><path fill="#D9AE95" d="M379.8 127.6l2.4-21.5-30.2 18.1"/><path fill="#DFB7A5" d="M382.2 106.1l52.9 30.6-55.3-9.1"/><path fill="#DEBFAE" d="M379.8 127.6l16.2 26.9-32.7-1.6"/><path fill="#ECC8C0" d="M379.8 127.6l55.3 9.1-39.1 17.8"/><path fill="#E7C5B2" d="M382.2 106.1l41.1-10.5-4.1 32"/><path fill="#E8C9BB" d="M423.3 95.6l11.8 41.1-15.9-9.1"/><path fill="#EAC5B5" d="M435.1 136.7L423.3 160l-27.3-5.5"/><path fill="#E9C8B2" d="M435.1 136.7l17.6 23.3h-29.4"/><path fill="#E2C8BE" d="M423.3 95.6l27.6-7-15.8 48.1"/><path fill="#B79C91" d="M450.9 88.6l14.4 26.9-22.3-2.8"/><path fill="#DCBDAD" d="M443 112.7l9.7 47.3-17.6-23.3"/><path fill="#B0A295" d="M443 112.7l22.3 2.8 1.8 25.6"/><path fill="#C9B7A9" d="M443 112.7l9.7 47.3 14.4-18.9"/><path fill="#ACA497" d="M465.3 115.5l22.2-17.1-36.6-9.8"/><path fill="#A59690" d="M465.3 115.5l28.9 11.4-6.7-28.5"/><path fill="#A1938A" d="M465.3 115.5l1.8 25.6 27.1-14.2"/><path fill="none" d="M403.8 58.7l19.5 36.9-41.1 10.5"/><path fill="#B4AB9A" d="M450.9 88.6l-47.1-29.9 19.5 36.9"/><path fill="#BEAB94" d="M467.1 141.1l29.9 20.1-44.3-1.2"/><path fill="#B6A498" d="M467.1 141.1l27.1-14.2 2.8 34.3"/><path fill="#877A71" d="M487.5 98.4l24.1-1.8-17.4 30.3"/><path fill="#887674" d="M494.2 126.9l30 9.4-27.2 24.9"/><path fill="#958A85" d="M494.2 126.9l17.4-30.3 12.6 39.7"/><path fill="#826F68" d="M524.2 136.3l3 26.1-30.2-1.2"/><path fill="#716566" d="M511.6 96.6l28.8 18.9-16.2 20.8"/><path fill="#82746D" d="M524.2 136.3l20.7 29.5-17.7-3.4"/><path fill="#54453C" d="M524.2 136.3l16.2-20.8 16.9 42.9"/><path fill="#4F403B" d="M557.3 158.4l-12.4 7.4-20.7-29.5"/><path fill="#1A2123" d="M387.2 336l4.3 19.7 8.4-18.1"/><path fill="#151617" d="M399.9 337.6l24.4 14.7-32.8 3.4"/><path fill="#161719" d="M412.8 336l11.5 16.3-24.4-14.7"/><path fill="#1C1D1F" d="M412.8 336l37.1-9.4-25.6 25.7"/><path fill="#282A2E" d="M449.9 326.6l11.8 1.4-37.4 24.3"/><path fill="#28252C" d="M391.5 355.7l-2.7 14.7 35.5-18.1"/><path fill="#D2DFE6" d="M388.8 370.4l-9.4 12.6 7.8 13.3"/><path fill="#E1E8F3" d="M388.8 370.4l35.5-18.1-12.2 18.1"/><path fill="#E1EAF3" d="M388.8 370.4l-.9 14.3 24.2-14.3"/><path fill="#E3EFF5" d="M412.1 370.4l19.2-9.1-7-9"/><path fill="#E5EFF0" d="M424.3 352.3l37.4-24.3-30.4 33.3"/><path fill="none" d="M479.6 323.6l-7.2 12.4-10.7-8"/><path fill="#E8C8AD" d="M461.7 328l-11.8-1.4 29.7-3"/><path fill="#EBF2FB" d="M472.4 336l-32.8 16.3 22.1-24.3"/><path fill="#E2E8F0" d="M479.6 323.6l27.2.2-34.4 12.2"/><path fill="#E5EEF5" d="M506.8 323.8l19.2 17.9-53.6-5.7"/><path fill="#CAC8CD" d="M510.3 298.4l8.5 16.7-39.2 8.5"/><path fill="#393543" d="M479.6 323.6l39.2-8.5-12 8.7"/><path fill="#BCC3C0" d="M539.8 279.6l-21 35.5-8.5-16.7"/><path fill="#9C9895" d="M557.7 221.2l25.7 2-30.5 47.3"/><path fill="#E3E5E4" d="M552.9 270.5l22.1 39.1-35.2-30"/><path fill="#D6D8D8" d="M539.8 279.6l35.2 30-56.2 5.5"/><path fill="#9C9895" d="M583.4 223.2l14.5 16.6-16.8 16.5"/><path fill="#D4D3D1" d="M581.1 256.3l-28.2 14.2 30.5-47.3"/><path fill="#D9D9DC" d="M552.9 270.5l28.2-14.2-13.2 40.8"/><path fill="#69646A" d="M567.9 297.1l35.1-11-28 23.5"/><path fill="#706E71" d="M581.1 256.3l21.9 29.8-35.1 11"/><path fill="#757C83" d="M597.9 239.8l12.9 20.9-29.7-4.4"/><path fill="#747172" d="M581.1 256.3l21.9 29.8 7.8-25.4"/><path fill="#B7BCBA" d="M610.8 260.7l11 20.9-18.8 4.5"/><path fill="#BFBEC3" d="M603 286.1l3 28.4-31-4.9"/><path fill="#CDCBCC" d="M621.8 281.6l14.6 23.9-33.4-19.4"/><path fill="#DAD4D8" d="M603 286.1l3 28.4 30.4-9"/><path fill="#99B0B2" d="M636.4 305.5l-2 22.5-28.4-13.5"/><path fill="none" d="M636.4 305.5l13.7-7.1-28.3-16.8"/><path fill="#C8CAC9" d="M636.4 305.5l20.6 18.3-22.6 4.2"/><path fill="#AFB2BA" d="M636.4 305.5l13.7-7.1 6.9 25.4"/><path fill="none" d="M650.1 298.4l18.4 18.4-11.5 7M657 323.8l14.9 27.8-37.5-23.6"/><path fill="#8F949A" d="M657 323.8l11.5-7 3.4 34.8"/><path fill="#1C1E1F" d="M597.9 239.8l33.1 20.9h-20.2"/><path fill="#1C1F23" d="M631 260.7l19.1 12.7-28.3 8.2"/><path fill="#1C1E21" d="M631 260.7h-20.2l11 20.9"/><path fill="#1E2023" d="M650.1 273.4l20.9 12.7-20.9 12.3"/><path fill="#17191C" d="M650.1 273.4l-28.3 8.2 28.3 16.8"/><path fill="#201D24" d="M671 286.1l19.4 11.8-40.3.5"/><path fill="#20252C" d="M690.4 297.9l-21.9 18.9-18.4-18.4"/><path fill="#222126" d="M690.4 297.9l29.7 39.8-51.6-20.9"/><path fill="#1B1B1B" d="M720.1 337.7l3.1 44.6-54.7-65.5"/><path fill="#141617" d="M671.9 351.6l51.3 30.7-54.7-65.5"/><path fill="#1A1D22" d="M506.8 323.8l42.5 2.8-30.5-11.5"/><path fill="#191C20" d="M518.8 315.1l56.2-5.5-25.7 17"/><path fill="#1D1D23" d="M575 309.6l10.5 26.4-36.2-9.4"/><path fill="#251E25" d="M575 309.6l31 4.9-20.5 21.5"/><path fill="#26222A" d="M606 314.5l22.6 37.1-43.1-15.6"/><path fill="#212024" d="M606 314.5l28.4 13.5-5.8 23.6M634.4 328l37.5 23.6h-43.3"/><path fill="#191A1A" d="M671.9 351.6l6.5 19.1-49.8-19.1"/><path fill="#141517" d="M671.9 351.6l6.5 19.1 44.8 11.6"/><path fill="#1F2025" d="M723.2 382.3l-8.9 31.8-1.8-34.6"/><path fill="#1A1B1F" d="M712.5 379.5l-34.1-8.8 15.9 30.1"/><path fill="#161718" d="M694.3 400.8l13.9 6.5 4.3-27.8"/><path fill="#232027" d="M712.5 379.5l1.8 34.6-6.1-6.8"/><path fill="#17181A" d="M708.2 407.3l-17.8 19.1 23.9-12.3"/><path fill="#EBF2FB" d="M678.4 370.7l-54.9-5.4 5.1-13.7"/><path fill="#EAF5FA" d="M628.6 351.6L585.5 336l38 29.3"/><path fill="#F0F8FE" d="M623.5 365.3L575 355l10.5-19"/><path fill="#DEE9EE" d="M585.5 336l-36.2-9.4L575 355"/><path fill="#EBF3FB" d="M549.3 326.6L526 341.7l-19.2-17.9"/><path fill="#F4F9FB" d="M526 341.7l49 13.3-25.7-28.4"/><path fill="#131415" d="M690.4 426.4l3.9-25.6 13.9 6.5"/><path fill="#1E1D21" d="M678.4 370.7l-28.1 26.1-26.8-31.5M678.4 370.7l15.9 30.1-44-4"/><path fill="#17191B" d="M650.3 396.8l40.1 29.6 3.9-25.6"/><path fill="#212025" d="M387.2 396.3l19.2 6.9-18.5-18.5"/><path fill="#191B1D" d="M387.9 384.7l24.2-14.3-5.7 32.8"/><path fill="#1F1E24" d="M412.1 370.4l19.2-9.1 8.3 27.2"/><path fill="#1A1B1F" d="M412.1 370.4l-5.7 32.8 33.2-14.7"/><path fill="#36383D" d="M439.6 388.5l32.8-52.5-32.8 16.3"/><path fill="#272A2F" d="M439.6 388.5v-36.2l-8.3 9"/><path fill="#323639" d="M472.4 336l16.1 14.7 37.5-9"/><path fill="#1D2126" d="M488.5 350.7l-34.4 14.6 18.3-29.3"/><path fill="#303135" d="M488.5 350.7l19.9 26.8-54.3-12.2"/><path fill="#2D2E32" d="M508.4 377.5L484 400.8l-29.9-35.5"/><path fill="#2A2831" d="M454.1 365.3l-14.5 23.2 44.4 12.3"/><path fill="#232328" d="M484 400.8l-77.6 2.4 33.2-14.7"/><path fill="#2D2B30" d="M488.5 350.7l37.5-9-17.6 35.8"/><path fill="#302934" d="M526 341.7l49 13.3-66.6 22.5"/><path fill="#3B3A3F" d="M508.4 377.5l44.5 34.1-68.9-10.8"/><path fill="#2B2C34" d="M508.4 377.5L575 355l-22.1 56.6"/><path fill="#3E3744" d="M575 355l48.5 10.3-70.6 46.3"/><path fill="#343138" d="M623.5 365.3l26.8 31.5-19.3 16.3"/><path fill="#1F1F24" d="M552.9 411.6l78.1 1.5-7.5-47.8M552.9 411.6l56.9 33.9 21.2-32.4"/><path fill="#26272E" d="M631 413.1l59.4 13.3-40.1-29.6"/><path fill="#1B2023" d="M631 413.1l23.9 32.4h-45.1"/><path fill="#26272F" d="M690.4 426.4l-35.5 19.1-23.9-32.4"/><path fill="#18181B" d="M690.4 426.4l7.2 9.6 16.7-21.9"/><path fill="#131416" d="M697.6 436l-21.9 12.9 14.7-22.5"/><path fill="#131415" d="M675.7 448.9l-20.8-3.4 35.5-19.1"/><path fill="#151719" d="M675.7 448.9L657 477.3l-2.1-31.8"/><path fill="#171719" d="M654.9 445.5h-45.1l47.2 31.8"/><path fill="#161719" d="M697.6 436l-5.5 59-16.4-46.1"/><path fill="#16181A" d="M692.1 495L657 477.3l18.7-28.4"/><path fill="#191B1D" d="M387.2 396.3l11.2 15.3 8-8.4"/><path fill="#19191A" d="M365.3 442.8l21.9-46.5 11.2 15.3"/><path fill="none" d="M398.4 411.6l8.2 9.3-22.2 24.6"/><path fill="#171818" d="M384.4 445.5l-19.1-2.7 33.1-31.2"/><path fill="#161819" d="M384.4 445.5l-11.9 30-7.2-32.7"/><path fill="#141516" d="M372.5 475.5l-4.8 14.4-2.4-47.1"/><path fill="#131415" d="M365.3 442.8l-21.2 23.5 23.6 23.6"/><path fill="#161819" d="M344.1 466.3L321.6 509l46.1-19.1"/><path fill="#323234" d="M321.6 509l50.9 12-4.8-31.1"/><path fill="#27292D" d="M367.7 489.9l11.7-13-6.9 44.1"/><path fill="#C4D5DF" d="M379.4 476.9l5-31.4-16.7 44.4"/><path fill="#DFE9F2" d="M384.4 445.5l22.2-24.6-27.2 56"/><path fill="#D6DFE6" d="M406.6 420.9h9.9l-37.1 56"/><path fill="#151617" d="M406.6 420.9l-.2-17.7-8 8.4"/><path fill="#17181A" d="M406.4 403.2l10.1 17.7h-9.9"/><path fill="#17181A" d="M406.4 403.2l33.2-1.1-23.1 18.8"/><path fill="#171719" d="M439.6 402.1l10.3 12.7 7.6-13.2"/><path fill="#1A1B1E" d="M449.9 414.8l-33.4 6.1 23.1-18.8"/><path fill="#17181B" d="M449.9 414.8l-6.9 15-26.5-8.9"/><path fill="#161819" d="M443 429.8l-26.5-8.9-12.4 18.8"/><path fill="#16191A" d="M431.3 432.8l-9.6 19.5-17.6-12.6"/><path fill="#21272A" d="M421.7 452.3l-8.9 14-8.7-26.6"/><path fill="#19191B" d="M404.1 439.7l-24.7 37.2 33.4-10.6"/><path fill="#1D1F23" d="M412.8 466.3L402.5 499l-23.1-22.1"/><path fill="#1D1F23" d="M402.5 499l-9.5 31.9-13.6-54"/><path fill="#282D2E" d="M393 530.9l-20.5-9.9 6.9-44.1"/><path fill="#2D2C36" d="M412.8 466.3l15.7-9.9-2.8-12.1"/><path fill="#F5F9F9" d="M393 530.9h17.4l-7.9-31.9"/><path fill="#EDF2F7" d="M412.8 466.3l-2.4 64.6-7.9-31.9"/><path fill="#E9F2F7" d="M412.8 466.3h10.7l-12 42.7"/><path fill="#E2EBEA" d="M423.5 466.3l5-9.9-15.7 9.9"/><path fill="#C0C9CD" d="M425.7 444.3l5.6-11.5 11.7-3"/><path fill="#EBF5F6" d="M425.7 444.3h10.6l-7.8 12.1"/><path fill="#F4F7F8" d="M436.3 444.3l6.7-14.5-17.3 14.5"/><path fill="#DDE6E8" d="M443 429.8l8.8-1.3-1.9-13.7"/><path fill="#BCC6C7" d="M449.9 414.8l7.6-13.2 4.3 2.4"/><path fill="#C3CCCE" d="M461.8 404l-10 24.5-1.9-13.7"/><path fill="#3F3F55" d="M410.4 530.9h4.8l-3.7-21.9"/><path fill="#3B394C" d="M423.5 466.3l1.7 23.6-13.7 19.1"/><path fill="#3F3F55" d="M425.2 489.9l-10 41-3.7-21.9"/><path fill="none" d="M425.2 489.9l26.6-61.4-28.3 37.8"/><path fill="#2E2E3A" d="M451.8 428.5l-8.8 1.3-19.5 36.5"/><path fill="#FBFDFF" d="M415.2 530.9h13.3l-3.3-41"/><path fill="none" d="M425.2 489.9l13.3-30.7 4.5 23.5"/><path fill="#FCFEFF" d="M443 482.7l-14.5 48.2-3.3-41"/><path fill="none" d="M438.5 459.2l13.3-30.7 9.9 4.3"/><path fill="#F6FBFC" d="M461.7 432.8L443 482.7l-4.5-23.5"/><path fill="#DBDEE2" d="M451.8 428.5l18.8-6.2-8.9 10.5"/><path fill="none" d="M470.6 422.3l13.4-21.5-22.2 3.2"/><path fill="#DDE6EB" d="M451.8 428.5l8.9-2.9 9.9-3.3-5.3-11.1-3.5-7.2"/><path fill="#232328" d="M461.8 404l22.2-3.2-26.5.8"/><path fill="#38373E" d="M428.5 530.9l9.2 2.7 10.8-34.6"/><path fill="#47474D" d="M448.5 499l-5.5-16.3-14.5 48.2"/><path fill="#373945" d="M443 482.7l18.7-49.9-13.2 66.2"/><path fill="#2E2D3A" d="M470.6 422.3l2.3 10.5h-11.2"/><path fill="#3E404C" d="M472.9 432.8L448.5 499l13.2-66.2"/><path fill="#262628" d="M484 400.8l-.9 14-12.5 7.5"/><path fill="#2D303D" d="M483.1 414.8l-10.2 18-2.3-10.5"/><path fill="#2A2C36" d="M484 400.8l8.7 1.3-9.6 12.7"/><path fill="#E0E4E6" d="M492.7 402.1l11.6 1.9-16.4 28.8"/><path fill="#E6EDF3" d="M492.7 402.1l-9.6 12.7 4.8 18"/><path fill="#F5F9FA" d="M487.9 432.8L474.2 472l8.9-57.2"/><path fill="#F0F8FA" d="M483.1 414.8l-10.2 18 1.3 39.2"/><path fill="#F1F9FC" d="M474.2 472l-25.7 27 24.4-66.2"/><path fill="#FAFCFB" d="M474.2 472l-20.1 54.4-5.6-27.4"/><path fill="#FFF" d="M454.1 526.4l-16.4 7.2 10.8-34.6"/><path fill="#3C3942" d="M454.1 526.4l56.7 8.9-36.6-63.3"/><path fill="#1F1E23" d="M474.2 472l13.7-39.2 39.6 57.1"/><path fill="#28282F" d="M474.2 472l53.3 17.9-16.7 45.4"/><path fill="#25262A" d="M504.3 404l48.6 7.6-65 21.2"/><path fill="#231F26" d="M552.9 411.6l-25.4 78.3-39.6-57.1"/><path fill="#1C1E21" d="M552.9 411.6l56.9 33.9-82.3 44.4"/><path fill="#26292E" d="M527.5 489.9l30.1 31.1-46.8 14.3"/><path fill="#272A2F" d="M527.5 489.9l43.7-23.6-13.6 54.7"/><path fill="#1D1D23" d="M571.2 466.3l38.6-20.8 13.7 49.5"/><path fill="#1F2025" d="M571.2 466.3L557.6 521l65.9-26"/><path fill="#1E2424" d="M510.8 535.3l49.1 7.5-2.3-21.8"/><path fill="#323137" d="M557.6 521l36-14.2-33.7 36"/><path fill="#141617" d="M593.6 506.8l29.9-11.8-2.4 33.8"/><path fill="#1A1B1E" d="M593.6 506.8l-33.7 36 61.2-14"/><path fill="#141517" d="M623.5 495l33.5-17.7-47.2-31.8"/><path fill="#161718" d="M623.5 495l26.8 17.6-29.2 16.2"/><path fill="#161819" d="M623.5 495l33.5-17.7-6.7 35.3"/><path fill="#141617" d="M650.3 512.6l41.8-17.6-35.1-17.7"/><path fill="#18191B" d="M559.9 542.8l64.9 12-3.7-26"/><path fill="#17191B" d="M650.3 512.6l12.8 45.6-42-29.4"/><path fill="#161718" d="M621.1 528.8l3.7 26 38.3 3.4"/><path fill="#161819" d="M650.3 512.6l41.8-17.6-29 63.2"/><path fill="#141617" d="M692.1 495l-1.7 59.8-27.3 3.4"/><path fill="#1A1B1B" d="M714.3 414.1l5.8 21.9h-22.5"/><path fill="#111213" d="M720.1 436l-28 59 5.5-59"/><path fill="#111212" d="M720.1 436l-14 57.6-14 1.4"/><path fill="#131515" d="M706.1 493.6l-14.5 19 .5-17.6"/><path fill="#8A655A" d="M400.5 274.9l21.3 22.5v-24.2"/><path fill="#735248" d="M421.8 273.2v24.2l23.7-18.7"/><path fill="#C89F89" d="M372.5 284.3l7.5-9.4 2.5 22.5"/><path fill="#A98571" d="M369.7 267.7l10.3 7.2-10.3 3.8"/><path fill="#C49C84" d="M369.7 267.7l-10.2 6.5 10.2 4.5"/><path fill="#C36F73" d="M327.8 265.3l4.2 7.4 7.8-6"/><path fill="#9F7C76" d="M362.7 256.1l8.9-2.3-1.9 13.9"/><path fill="#805F54" d="M370.9 259l3.9 6.2-5.1 2.5M374.8 265.2l5.2 9.7-10.3-7.2"/><path fill="#EEC7B3" d="M374.8 265.2l16.5-8-11.3 17.7M371.6 253.8l-.7 5.2 3.9 6.2"/><path fill="#EEC7B3" d="M371.6 253.8l19.7 3.4-16.5 8"/><path fill="#E6CCB3" d="M371.6 253.8l19.7 3.4 4.7-10"/><path fill="#E1B79C" d="M360.9 249.3l13.9-4.6-7.6-8"/><path fill="#DCB5A6" d="M351.3 247.7l11.4 8.4-1.8-6.8"/><path fill="#9C5957" d="M339.3 228.1l3.3 2.4-5.2.8"/><path fill="#D3A295" d="M335.5 234.5l1.9-3.2 10.7 3.2"/><path fill="#B7867B" d="M337.4 231.3l5.2-.8 5.5 4"/><path fill="#BB9691" d="M328.7 227.7l3.3 3.3-5.5-1"/><path fill="#AD7570" d="M339.3 228.1L332 231l-3.3-3.3"/><path fill="#8F4847" d="M339.3 228.1l-1.9 3.2-2.5-1.5"/><path fill="#ECC4BC" d="M334.9 229.8L332 231l3.5 3.5"/><path fill="#DAA29B" d="M337.4 231.3l-2.5-1.5.6 4.7"/><path fill="#D2AFA7" d="M326.5 230l5.5 1-10.1 4.1"/><path fill="#DBA69A" d="M332 231l3.5 3.5-13.6.6"/><path fill="#CEA49C" d="M335.5 234.5l5.4 8.7-4.6-4.4"/><path fill="#D7A69C" d="M348.1 234.5h-12.6l5.4 8.7"/><path fill="#E0B1A7" d="M348.1 234.5l-3.1 12.7-4.1-4"/><path fill="#E1B3AD" d="M313.9 203l3.8 15.9 5.5-13.1"/><path fill="#DEB6A6" d="M333.6 201.2l-10.4 4.6 2.9-22.6"/><path fill="#F6E1D5" d="M344.4 191.1l-8.4-7.9-2.4 18"/><path fill="#F5DBD4" d="M350.9 203l-17.3-1.8 10.8-10.1"/><path fill="#19211D" d="M294.6 187.2l4.8 6.4 10.6.9M299.4 193.6l9.9 3.7 8.4-2.1M287.4 165.8l2 14.6 5.2 6.8"/><path fill="#232625" d="M290 161.2l-.3 11.2-2.3-6.6"/><path fill="#141616" d="M319.8 151.8l-2.1-2.7-17.1-2.6"/><path fill="#141616" d="M301.7 149.7l8.3-.6-9.4-2.6M301.7 149.7h-3.5l2.4-3.2"/><path fill="#A5867A" d="M433.7 238.8l17.2 7.7-14.6 14.6"/><path fill="#B89885" d="M400.5 274.9H380l11.3-17.7"/><path fill="#D3BBA6" d="M414.9 230l18.8 8.8-18.1 15.4"/><path fill="#E1C6B0" d="M414.3 209.5l20.8 10.8-20.2 9.7"/><path fill="#B09680" d="M455.8 216.3l-11.6 19.1 6.7 11.1"/><path fill="#D4B29B" d="M435.1 220.3l9.1 15.1 11.6-19.1"/><path fill="#AC8E81" d="M444.2 235.4l-10.5 3.4 17.2 7.7"/><path fill="#F0C6BB" d="M528.8 221.2l-1.7 12.3-5.8-8.8"/><path fill="#E1B4A9" d="M534.7 210h10.2l-4.2 9.8"/><path fill="#DEBFB7" d="M542.1 195.5l6.9 1.2-4.1 13.3"/><path fill="#211A17" d="M371.3 36.5l18.9 12.9-42.3 12.9"/><path fill="#34261E" d="M390.2 49.4l13.6 9.3-55.9 3.6"/><path fill="#1D1916" d="M390.2 49.4l8.7-27.4-27.6 14.5"/><path fill="#372B1F" d="M390.2 49.4l13.6 9.3-4.9-36.7"/><path fill="#181717" d="M413.1 31.2l22-4.5V8"/><path fill="#191816" d="M398.9 22l14.2 9.2 22-23.2"/><path fill="#3E322C" d="M398.9 22l36.2 23.4-31.3 13.3"/><path fill="#191716" d="M435.1 26.7l19-.4-19-18.3"/><path fill="none" d="M435.1 26.7l31.7 11.7-12.7-12.1"/><path fill="#584233" d="M435.1 26.7v18.7l31.7-7"/><path fill="#181616" d="M435.1 8l45.3-2.3-26.3 20.6"/><path fill="#32281E" d="M454.1 26.3l12.7 12.1-31.7-11.7"/><path fill="#231C16" d="M454.1 26.3l26.3-20.6-13.6 32.7"/><path fill="none" d="M472.7 24.3h20.5L480.4 5.7"/><path fill="#47392F" d="M472.7 24.3l13.1 21.8-19-7.7"/><path fill="#5C584D" d="M472.7 24.3h20.5l-7.4 21.8"/><path fill="#201B17" d="M493.2 24.3L480.4 5.7l-7.7 18.6"/><path fill="none" d="M493.2 24.3l23.6 34.4-31-12.6"/><path fill="none" d="M493.2 24.3l22.6 7.7 1 26.7"/><path fill="#5D544B" d="M516.8 58.7l-31-12.6 7.4-21.8"/><path fill="#161616" d="M480.4 5.7L515.8 32l-.6-17.7"/><path fill="#171615" d="M480.4 5.7l12.8 18.6 22.6 7.7"/><path fill="#493F3D" d="M515.8 32l16.1 10.9-15.1 15.8"/><path fill="#171616" d="M515.8 32h26.5l-10.4 10.9"/><path fill="#191718" d="M515.8 32l-.6-17.7L542.3 32"/><path fill="#524036" d="M531.9 42.9l26.8 29.3-41.9-13.5"/><path fill="#171616" d="M531.9 42.9L542.3 32l16.4 40.2"/><path fill="#806A58" d="M365.1 84.2l28-2.1 10.7-23.4"/><path fill="#CEAB92" d="M365.1 84.2l17.1 21.9 10.9-24"/><path fill="#48352B" d="M365.1 84.2l-17.2-21.9 55.9-3.6"/><path fill="#47392C" d="M341.4 76l23.7 8.2-17.2-21.9"/><path fill="#9B7B61" d="M334.9 89.9l30.2-5.7-23.7-8.2"/><path fill="#C29879" d="M334.9 89.9l47.3 16.2-17.1-21.9"/><path fill="#36312E" d="M564.4 99.4l6.8 14-30.8 2.1"/><path fill="#141515" d="M564.4 99.4l14.1-9.5-7.3 23.5"/><path fill="#50473D" d="M493.2 24.3l23.6 34.4-1-26.7"/><path fill="#554234" d="M435.1 26.7l-22 4.5 22 14.2"/><path fill="#998E7D" d="M435.1 45.4l31.7-7-12 27.4"/><path fill="#B9AD9D" d="M393.1 82.1l30.2 13.5-19.5-36.9"/><path fill="#CEAB92" d="M393.1 82.1l30.2 13.5-41.1 10.5"/><path fill="#C79E82" d="M334.9 89.9l47.3 16.2-30.2 18.1"/><path fill="#36383D" d="M425.2 489.9l26.6-61.4-28.3 37.8"/><path fill="#151617" d="M398.4 411.6l8.2 9.3-22.2 24.6"/><path fill="#1E232E" d="M461.8 404l-1.1 21.6-8.9 2.9"/><path fill="#C5CCD2" d="M461.8 404l22.2-3.2-13.4 21.5"/><path fill="#F6FBFC" d="M451.8 428.5l-13.3 30.7 23.2-26.4"/><path fill="#F9FBFD" d="M438.5 459.2l4.5 23.5-17.8 7.2"/><path fill="#EBF2FB" d="M479.6 323.6l-17.9 4.4 10.7 8"/><path fill="#1A1B1B" d="M723.2 382.3l-3.1 53.7-5.8-21.9"/><path fill="#8F949A" d="M650.1 298.4l18.4 18.4-11.5 7M621.8 281.6l28.3 16.8-13.7 7.1"/><path fill="#AEBEBD" d="M657 323.8l14.9 27.8-37.5-23.6"/><path fill="#131415" d="M355.2 207.7l10.8 4.7-7.7-10.4"/><path fill="#141616" d="M317.7 149.1l12.6 6.1-10.5-3.4"/><path fill="#1B221E" d="M321.4 182.3v4.3l4.7-3.4"/><path fill="#272A32" d="M321.4 182.3l-12.1-2.7 12.1 7"/><path fill="#EFD1C3" d="M401.2 236.7l13.7-6.7-.6-20.5M414.9 222.2l20.2-1.9-20.8-10.8M435.1 220.3l-1.4-16.6-19.4 5.8"/><path fill="#6E89A1" d="M309.3 179.6l.7 14.9-11.8-15.5"/><path fill="#677D9F" d="M309.3 179.6l12.1 7-11.4 7.9"/><path fill="#6E89A1" d="M321.4 182.3l-12.1-2.7 12.1 7"/><path fill="#505965" d="M301.7 149.7l8.3-.6-1.5 20.3"/><path fill="#566370" d="M310 149.1l8 16.7-9.5 3.6"/><path fill="#677D9F" d="M318 165.8l2.8 9.9 3.9-2.1"/><path fill="#61739D" d="M308.5 169.4l12.3 6.3 5.3 7.5"/><path fill="#464C55" d="M310 149.1l8 16.7 6.7-4.6"/><path fill="#505358" d="M310 149.1l9.8 2.7-1.3 4.2"/><path fill="#414F5E" d="M319.8 151.8l4.9 9.4-6.2-5.2"/><path fill="#161919" d="M337.4 165.8l10.5 18.3-3.5 7"/><path fill="#161919" d="M347.9 184.1l1.6 4.3-5.1 2.7M349.5 188.4l8.8 13.6-13.9-10.9"/><path fill="#6C7074" d="M347.9 184.1l1.6 4.3 6.4-3.3"/><path fill="#515C6F" d="M355.9 185.1l-6.4 3.3 8.8 13.6"/><path fill="#566370" d="M352 170.8l3.2-8.4-9.7 1"/><path fill="#515C6F" d="M359.7 175.7l8-14.5-12.5 1.2M383.6 176.5l-15.9-15.3-8 14.5"/><path fill="#566370" d="M383.6 176.5l-1.1 11.1-22.8-11.9"/><path fill="#202621" d="M352.9 159.2l13-1.2-2.6-4.7"/><path fill="#171B19" d="M365.9 158l9-2-11.6-2.7"/><path fill="#566370" d="M374.9 156l-7.2 5.2-1.8-3.2"/><path fill="#6C7074" d="M352.9 159.2l14.8 2-1.8-3.2"/><path fill="#566370" d="M374.9 156l21.8 4.5-29 .7"/><path fill="#7E90A1" d="M412.4 184.1l1 13-9.2 15.2"/><path fill="#6E89A1" d="M382.5 187.6l8.8 16.5-11.5 2.5M398.8 185.1l-15.2-8.6-1.1 11.1"/><path fill="#4D576F" d="M359.7 175.7v17.1l22.8-5.2"/><path fill="#515C6F" d="M367.7 161.2l29-.7 2.1 24.6"/><path fill="#EACABF" d="M428.1 175.5h44.3l-27.9 24.7"/><path fill="#EACABF" d="M472.4 175.5l-5.3 7.7-22.6 17"/><path fill="#181E1C" d="M412.8 163.4l9 21.7-9-11.4"/></svg>